<svg version="1.1" viewBox="0.0 0.0 567.0 381.0" fill="none" stroke="none" stroke-linecap="square" stroke-miterlimit="10" width="567" height="381" xmlns:xlink="http://www.w3.org/1999/xlink" xmlns="http://www.w3.org/2000/svg"><path fill="#ffffff" d="M0 0L567.0 0L567.0 381.0L0 381.0L0 0Z" fill-rule="nonzero"/><path stroke="#333333" stroke-width="1.0" stroke-linecap="butt" d="M67.5 334.5L547.5 334.5" fill-rule="nonzero"/><path stroke="#cccccc" stroke-width="1.0" stroke-linecap="butt" d="M67.5 266.5L547.5 266.5" fill-rule="nonzero"/><path stroke="#cccccc" stroke-width="1.0" stroke-linecap="butt" d="M67.5 198.5L547.5 198.5" fill-rule="nonzero"/><path stroke="#cccccc" stroke-width="1.0" stroke-linecap="butt" d="M67.5 130.5L547.5 130.5" fill-rule="nonzero"/><path stroke="#cccccc" stroke-width="1.0" stroke-linecap="butt" d="M67.5 62.5L547.5 62.5" fill-rule="nonzero"/><clipPath id="id_0"><path d="M67.05 62.25L547.95 62.25L547.95 334.95L67.05 334.95L67.05 62.25Z" clip-rule="nonzero"/></clipPath><path stroke="#000000" stroke-width="2.0" stroke-linecap="butt" stroke-opacity="0.0" clip-path="url(#id_0)" d="M272.0 335.0L139.0 335.0L139.0 166.0C139.0 164.89543 139.89543 164.0 141.0 164.0L270.0 164.0C271.10458 164.0 272.0 164.89543 272.0 166.0Z" fill-rule="nonzero"/><path fill="#4285f4" clip-path="url(#id_0)" d="M272.0 335.0L139.0 335.0L139.0 166.0C139.0 164.89543 139.89543 164.0 141.0 164.0L270.0 164.0C271.10458 164.0 272.0 164.89543 272.0 166.0Z" fill-rule="nonzero"/><path stroke="#000000" stroke-width="2.0" stroke-linecap="butt" stroke-opacity="0.0" clip-path="url(#id_0)" d="M477.0 335.0L344.0 335.0L344.0 87.0C344.0 85.89543 344.89542 85.0 346.0 85.0L475.0 85.0C476.10458 85.0 477.0 85.89543 477.0 87.0Z" fill-rule="nonzero"/><path fill="#4285f4" clip-path="url(#id_0)" d="M477.0 335.0L344.0 335.0L344.0 87.0C344.0 85.89543 344.89542 85.0 346.0 85.0L475.0 85.0C476.10458 85.0 477.0 85.89543 477.0 87.0Z" fill-rule="nonzero"/><path fill="#000000" d="M19.721874 334.79376Q19.721874 332.7625 20.128124 331.52814Q20.55 330.29376 21.378124 329.6219Q22.20625 328.95 23.45625 328.95Q24.378124 328.95 25.065624 329.325Q25.76875 329.6844 26.221874 330.3875Q26.675 331.09064 26.925 332.09064Q27.190624 333.09064 27.190624 334.79376Q27.190624 336.8094 26.76875 338.0594Q26.3625 339.29376 25.534374 339.98126Q24.70625 340.65314 23.45625 340.65314Q21.8 340.65314 20.846874 339.45Q19.721874 338.02814 19.721874 334.79376ZM21.159374 334.79376Q21.159374 337.6219 21.815624 338.5594Q22.4875 339.48126 23.45625 339.48126Q24.425 339.48126 25.08125 338.54376Q25.7375 337.60626 25.7375 334.79376Q25.7375 331.96564 25.08125 331.04376Q24.425 330.10626 23.440624 330.10626Q22.471874 330.10626 21.89375 330.9344Q21.159374 331.98126 21.159374 334.79376ZM29.503124 340.45L29.503124 338.84064L31.1125 338.84064L31.1125 340.45L29.503124 340.45ZM32.721874 334.79376Q32.721874 332.7625 33.128124 331.52814Q33.55 330.29376 34.378124 329.6219Q35.20625 328.95 36.45625 328.95Q37.378124 328.95 38.065624 329.325Q38.76875 329.6844 39.221874 330.3875Q39.675 331.09064 39.925 332.09064Q40.190624 333.09064 40.190624 334.79376Q40.190624 336.8094 39.76875 338.0594Q39.3625 339.29376 38.534374 339.98126Q37.70625 340.65314 36.45625 340.65314Q34.8 340.65314 33.846874 339.45Q32.721874 338.02814 32.721874 334.79376ZM34.159374 334.79376Q34.159374 337.6219 34.815624 338.5594Q35.4875 339.48126 36.45625 339.48126Q37.425 339.48126 38.08125 338.54376Q38.7375 337.60626 38.7375 334.79376Q38.7375 331.96564 38.08125 331.04376Q37.425 330.10626 36.440624 330.10626Q35.471874 330.10626 34.89375 330.9344Q34.159374 331.98126 34.159374 334.79376ZM41.721874 334.79376Q41.721874 332.7625 42.128124 331.52814Q42.55 330.29376 43.378124 329.6219Q44.20625 328.95 45.45625 328.95Q46.378124 328.95 47.065624 329.325Q47.76875 329.6844 48.221874 330.3875Q48.675 331.09064 48.925 332.09064Q49.190624 333.09064 49.190624 334.79376Q49.190624 336.8094 48.76875 338.0594Q48.3625 339.29376 47.534374 339.98126Q46.70625 340.65314 45.45625 340.65314Q43.8 340.65314 42.846874 339.45Q41.721874 338.02814 41.721874 334.79376ZM43.159374 334.79376Q43.159374 337.6219 43.815624 338.5594Q44.4875 339.48126 45.45625 339.48126Q46.425 339.48126 47.08125 338.54376Q47.7375 337.60626 47.7375 334.79376Q47.7375 331.96564 47.08125 331.04376Q46.425 330.10626 45.440624 330.10626Q44.471874 330.10626 43.89375 330.9344Q43.159374 331.98126 43.159374 334.79376ZM50.721874 334.79376Q50.721874 332.7625 51.128124 331.52814Q51.55 330.29376 52.378124 329.6219Q53.20625 328.95 54.45625 328.95Q55.378124 328.95 56.065624 329.325Q56.76875 329.6844 57.221874 330.3875Q57.675 331.09064 57.925 332.09064Q58.190624 333.09064 58.190624 334.79376Q58.190624 336.8094 57.76875 338.0594Q57.3625 339.29376 56.534374 339.98126Q55.70625 340.65314 54.45625 340.65314Q52.8 340.65314 51.846874 339.45Q50.721874 338.02814 50.721874 334.79376ZM52.159374 334.79376Q52.159374 337.6219 52.815624 338.5594Q53.4875 339.48126 54.45625 339.48126Q55.425 339.48126 56.08125 338.54376Q56.7375 337.60626 56.7375 334.79376Q56.7375 331.96564 56.08125 331.04376Q55.425 330.10626 54.440624 330.10626Q53.471874 330.10626 52.89375 330.9344Q52.159374 331.98126 52.159374 334.79376Z" fill-rule="nonzero"/><path fill="#000000" d="M19.721874 266.61874Q19.721874 264.5875 20.128124 263.35312Q20.55 262.11874 21.378124 261.44687Q22.20625 260.775 23.45625 260.775Q24.378124 260.775 25.065624 261.15Q25.76875 261.50937 26.221874 262.2125Q26.675 262.91562 26.925 263.91562Q27.190624 264.91562 27.190624 266.61874Q27.190624 268.63437 26.76875 269.88437Q26.3625 271.11874 25.534374 271.80624Q24.70625 272.47812 23.45625 272.47812Q21.8 272.47812 20.846874 271.275Q19.721874 269.85312 19.721874 266.61874ZM21.159374 266.61874Q21.159374 269.44687 21.815624 270.38437Q22.4875 271.30624 23.45625 271.30624Q24.425 271.30624 25.08125 270.36874Q25.7375 269.43124 25.7375 266.61874Q25.7375 263.79062 25.08125 262.86874Q24.425 261.93124 23.440624 261.93124Q22.471874 261.93124 21.89375 262.75937Q21.159374 263.80624 21.159374 266.61874ZM29.503124 272.275L29.503124 270.66562L31.1125 270.66562L31.1125 272.275L29.503124 272.275ZM40.1125 270.91562L40.1125 272.275L32.534374 272.275Q32.51875 271.75937 32.70625 271.29062Q32.9875 270.525 33.628124 269.775Q34.26875 269.025 35.471874 268.04062Q37.33125 266.50937 37.9875 265.61874Q38.64375 264.7125 38.64375 263.91562Q38.64375 263.0875 38.05 262.50937Q37.45625 261.93124 36.4875 261.93124Q35.471874 261.93124 34.8625 262.54062Q34.253124 263.15 34.253124 264.22812L32.8 264.0875Q32.95625 262.4625 33.925 261.61874Q34.89375 260.775 36.51875 260.775Q38.175 260.775 39.128124 261.69687Q40.096874 262.60312 40.096874 263.94687Q40.096874 264.63437 39.815624 265.30624Q39.534374 265.9625 38.878124 266.69687Q38.221874 267.43124 36.70625 268.7125Q35.440624 269.775 35.08125 270.16562Q34.721874 270.54062 34.4875 270.91562L40.1125 270.91562ZM41.721874 266.61874Q41.721874 264.5875 42.128124 263.35312Q42.55 262.11874 43.378124 261.44687Q44.20625 260.775 45.45625 260.775Q46.378124 260.775 47.065624 261.15Q47.76875 261.50937 48.221874 262.2125Q48.675 262.91562 48.925 263.91562Q49.190624 264.91562 49.190624 266.61874Q49.190624 268.63437 48.76875 269.88437Q48.3625 271.11874 47.534374 271.80624Q46.70625 272.47812 45.45625 272.47812Q43.8 272.47812 42.846874 271.275Q41.721874 269.85312 41.721874 266.61874ZM43.159374 266.61874Q43.159374 269.44687 43.815624 270.38437Q44.4875 271.30624 45.45625 271.30624Q46.425 271.30624 47.08125 270.36874Q47.7375 269.43124 47.7375 266.61874Q47.7375 263.79062 47.08125 262.86874Q46.425 261.93124 45.440624 261.93124Q44.471874 261.93124 43.89375 262.75937Q43.159374 263.80624 43.159374 266.61874ZM50.721874 266.61874Q50.721874 264.5875 51.128124 263.35312Q51.55 262.11874 52.378124 261.44687Q53.20625 260.775 54.45625 260.775Q55.378124 260.775 56.065624 261.15Q56.76875 261.50937 57.221874 262.2125Q57.675 262.91562 57.925 263.91562Q58.190624 264.91562 58.190624 266.61874Q58.190624 268.63437 57.76875 269.88437Q57.3625 271.11874 56.534374 271.80624Q55.70625 272.47812 54.45625 272.47812Q52.8 272.47812 51.846874 271.275Q50.721874 269.85312 50.721874 266.61874ZM52.159374 266.61874Q52.159374 269.44687 52.815624 270.38437Q53.4875 271.30624 54.45625 271.30624Q55.425 271.30624 56.08125 270.36874Q56.7375 269.43124 56.7375 266.61874Q56.7375 263.79062 56.08125 262.86874Q55.425 261.93124 54.440624 261.93124Q53.471874 261.93124 52.89375 262.75937Q52.159374 263.80624 52.159374 266.61874Z" fill-rule="nonzero"/><path fill="#000000" d="M19.721874 198.44376Q19.721874 196.4125 20.128124 195.17813Q20.55 193.94376 21.378124 193.27188Q22.20625 192.6 23.45625 192.6Q24.378124 192.6 25.065624 192.975Q25.76875 193.33438 26.221874 194.0375Q26.675 194.74063 26.925 195.74063Q27.190624 196.74063 27.190624 198.44376Q27.190624 200.45938 26.76875 201.70938Q26.3625 202.94376 25.534374 203.63126Q24.70625 204.30313 23.45625 204.30313Q21.8 204.30313 20.846874 203.1Q19.721874 201.67813 19.721874 198.44376ZM21.159374 198.44376Q21.159374 201.27188 21.815624 202.20938Q22.4875 203.13126 23.45625 203.13126Q24.425 203.13126 25.08125 202.19376Q25.7375 201.25626 25.7375 198.44376Q25.7375 195.61563 25.08125 194.69376Q24.425 193.75626 23.440624 193.75626Q22.471874 193.75626 21.89375 194.58438Q21.159374 195.63126 21.159374 198.44376ZM29.503124 204.1L29.503124 202.49063L31.1125 202.49063L31.1125 204.1L29.503124 204.1ZM37.221874 204.1L37.221874 201.35L32.253124 201.35L32.253124 200.06876L37.4875 192.64688L38.628124 192.64688L38.628124 200.06876L40.175 200.06876L40.175 201.35L38.628124 201.35L38.628124 204.1L37.221874 204.1ZM37.221874 200.06876L37.221874 194.89688L33.64375 200.06876L37.221874 200.06876ZM41.721874 198.44376Q41.721874 196.4125 42.128124 195.17813Q42.55 193.94376 43.378124 193.27188Q44.20625 192.6 45.45625 192.6Q46.378124 192.6 47.065624 192.975Q47.76875 193.33438 48.221874 194.0375Q48.675 194.74063 48.925 195.74063Q49.190624 196.74063 49.190624 198.44376Q49.190624 200.45938 48.76875 201.70938Q48.3625 202.94376 47.534374 203.63126Q46.70625 204.30313 45.45625 204.30313Q43.8 204.30313 42.846874 203.1Q41.721874 201.67813 41.721874 198.44376ZM43.159374 198.44376Q43.159374 201.27188 43.815624 202.20938Q44.4875 203.13126 45.45625 203.13126Q46.425 203.13126 47.08125 202.19376Q47.7375 201.25626 47.7375 198.44376Q47.7375 195.61563 47.08125 194.69376Q46.425 193.75626 45.440624 193.75626Q44.471874 193.75626 43.89375 194.58438Q43.159374 195.63126 43.159374 198.44376ZM50.721874 198.44376Q50.721874 196.4125 51.128124 195.17813Q51.55 193.94376 52.378124 193.27188Q53.20625 192.6 54.45625 192.6Q55.378124 192.6 56.065624 192.975Q56.76875 193.33438 57.221874 194.0375Q57.675 194.74063 57.925 195.74063Q58.190624 196.74063 58.190624 198.44376Q58.190624 200.45938 57.76875 201.70938Q57.3625 202.94376 56.534374 203.63126Q55.70625 204.30313 54.45625 204.30313Q52.8 204.30313 51.846874 203.1Q50.721874 201.67813 50.721874 198.44376ZM52.159374 198.44376Q52.159374 201.27188 52.815624 202.20938Q53.4875 203.13126 54.45625 203.13126Q55.425 203.13126 56.08125 202.19376Q56.7375 201.25626 56.7375 198.44376Q56.7375 195.61563 56.08125 194.69376Q55.425 193.75626 54.440624 193.75626Q53.471874 193.75626 52.89375 194.58438Q52.159374 195.63126 52.159374 198.44376Z" fill-rule="nonzero"/><path fill="#000000" d="M19.721874 130.26875Q19.721874 128.2375 20.128124 127.00313Q20.55 125.76875 21.378124 125.09688Q22.20625 124.425 23.45625 124.425Q24.378124 124.425 25.065624 124.8Q25.76875 125.15938 26.221874 125.8625Q26.675 126.56563 26.925 127.56563Q27.190624 128.56563 27.190624 130.26875Q27.190624 132.28438 26.76875 133.53438Q26.3625 134.76875 25.534374 135.45625Q24.70625 136.12813 23.45625 136.12813Q21.8 136.12813 20.846874 134.925Q19.721874 133.50313 19.721874 130.26875ZM21.159374 130.26875Q21.159374 133.09688 21.815624 134.03438Q22.4875 134.95625 23.45625 134.95625Q24.425 134.95625 25.08125 134.01875Q25.7375 133.08125 25.7375 130.26875Q25.7375 127.44063 25.08125 126.51875Q24.425 125.58125 23.440624 125.58125Q22.471874 125.58125 21.89375 126.40938Q21.159374 127.45625 21.159374 130.26875ZM29.503124 135.925L29.503124 134.31563L31.1125 134.31563L31.1125 135.925L29.503124 135.925ZM40.01875 127.26875L38.6125 127.37813Q38.425 126.55 38.08125 126.175Q37.51875 125.58125 36.675 125.58125Q36.003124 125.58125 35.503124 125.95625Q34.83125 126.44063 34.440624 127.37813Q34.065624 128.3 34.05 130.01875Q34.565624 129.2375 35.3 128.8625Q36.034374 128.4875 36.83125 128.4875Q38.2375 128.4875 39.221874 129.53438Q40.221874 130.56563 40.221874 132.20625Q40.221874 133.28438 39.753124 134.20625Q39.284374 135.12813 38.471874 135.62813Q37.659374 136.12813 36.628124 136.12813Q34.878124 136.12813 33.76875 134.83125Q32.659374 133.53438 32.659374 130.56563Q32.659374 127.2375 33.878124 125.7375Q34.95625 124.425 36.76875 124.425Q38.1125 124.425 38.971874 125.19063Q39.846874 125.94063 40.01875 127.26875ZM34.26875 132.20625Q34.26875 132.94063 34.58125 133.6125Q34.89375 134.26875 35.440624 134.6125Q36.003124 134.95625 36.6125 134.95625Q37.503124 134.95625 38.14375 134.2375Q38.784374 133.51875 38.784374 132.28438Q38.784374 131.09688 38.14375 130.425Q37.51875 129.7375 36.55 129.7375Q35.596874 129.7375 34.925 130.425Q34.26875 131.09688 34.26875 132.20625ZM41.721874 130.26875Q41.721874 128.2375 42.128124 127.00313Q42.55 125.76875 43.378124 125.09688Q44.20625 124.425 45.45625 124.425Q46.378124 124.425 47.065624 124.8Q47.76875 125.15938 48.221874 125.8625Q48.675 126.56563 48.925 127.56563Q49.190624 128.56563 49.190624 130.26875Q49.190624 132.28438 48.76875 133.53438Q48.3625 134.76875 47.534374 135.45625Q46.70625 136.12813 45.45625 136.12813Q43.8 136.12813 42.846874 134.925Q41.721874 133.50313 41.721874 130.26875ZM43.159374 130.26875Q43.159374 133.09688 43.815624 134.03438Q44.4875 134.95625 45.45625 134.95625Q46.425 134.95625 47.08125 134.01875Q47.7375 133.08125 47.7375 130.26875Q47.7375 127.44063 47.08125 126.51875Q46.425 125.58125 45.440624 125.58125Q44.471874 125.58125 43.89375 126.40938Q43.159374 127.45625 43.159374 130.26875ZM50.721874 130.26875Q50.721874 128.2375 51.128124 127.00313Q51.55 125.76875 52.378124 125.09688Q53.20625 124.425 54.45625 124.425Q55.378124 124.425 56.065624 124.8Q56.76875 125.15938 57.221874 125.8625Q57.675 126.56563 57.925 127.56563Q58.190624 128.56563 58.190624 130.26875Q58.190624 132.28438 57.76875 133.53438Q57.3625 134.76875 56.534374 135.45625Q55.70625 136.12813 54.45625 136.12813Q52.8 136.12813 51.846874 134.925Q50.721874 133.50313 50.721874 130.26875ZM52.159374 130.26875Q52.159374 133.09688 52.815624 134.03438Q53.4875 134.95625 54.45625 134.95625Q55.425 134.95625 56.08125 134.01875Q56.7375 133.08125 56.7375 130.26875Q56.7375 127.44063 56.08125 126.51875Q55.425 125.58125 54.440624 125.58125Q53.471874 125.58125 52.89375 126.40938Q52.159374 127.45625 52.159374 130.26875Z" fill-rule="nonzero"/><path fill="#000000" d="M19.721874 62.09375Q19.721874 60.0625 20.128124 58.828125Q20.55 57.59375 21.378124 56.921875Q22.20625 56.25 23.45625 56.25Q24.378124 56.25 25.065624 56.625Q25.76875 56.984375 26.221874 57.6875Q26.675 58.390625 26.925 59.390625Q27.190624 60.390625 27.190624 62.09375Q27.190624 64.109375 26.76875 65.359375Q26.3625 66.59375 25.534374 67.28125Q24.70625 67.953125 23.45625 67.953125Q21.8 67.953125 20.846874 66.75Q19.721874 65.328125 19.721874 62.09375ZM21.159374 62.09375Q21.159374 64.921875 21.815624 65.859375Q22.4875 66.78125 23.45625 66.78125Q24.425 66.78125 25.08125 65.84375Q25.7375 64.90625 25.7375 62.09375Q25.7375 59.265625 25.08125 58.34375Q24.425 57.40625 23.440624 57.40625Q22.471874 57.40625 21.89375 58.234375Q21.159374 59.28125 21.159374 62.09375ZM29.503124 67.75L29.503124 66.140625L31.1125 66.140625L31.1125 67.75L29.503124 67.75ZM34.878124 61.53125Q34.003124 61.21875 33.58125 60.625Q33.159374 60.03125 33.159374 59.203125Q33.159374 57.953125 34.05 57.109375Q34.95625 56.25 36.45625 56.25Q37.95625 56.25 38.8625 57.125Q39.784374 57.984375 39.784374 59.234375Q39.784374 60.03125 39.3625 60.625Q38.940624 61.21875 38.096874 61.53125Q39.14375 61.875 39.690624 62.640625Q40.253124 63.40625 40.253124 64.46875Q40.253124 65.9375 39.20625 66.953125Q38.175 67.953125 36.471874 67.953125Q34.784374 67.953125 33.7375 66.953125Q32.70625 65.9375 32.70625 64.4375Q32.70625 63.3125 33.26875 62.5625Q33.83125 61.8125 34.878124 61.53125ZM34.596874 59.15625Q34.596874 59.96875 35.1125 60.484375Q35.64375 61.0 36.4875 61.0Q37.3 61.0 37.815624 60.484375Q38.33125 59.96875 38.33125 59.234375Q38.33125 58.453125 37.8 57.9375Q37.26875 57.40625 36.471874 57.40625Q35.659374 57.40625 35.128124 57.921875Q34.596874 58.4375 34.596874 59.15625ZM34.14375 64.4375Q34.14375 65.046875 34.425 65.609375Q34.721874 66.171875 35.284374 66.484375Q35.846874 66.78125 36.4875 66.78125Q37.503124 66.78125 38.159374 66.140625Q38.815624 65.484375 38.815624 64.484375Q38.815624 63.46875 38.128124 62.8125Q37.45625 62.140625 36.440624 62.140625Q35.45625 62.140625 34.8 62.796875Q34.14375 63.453125 34.14375 64.4375ZM41.721874 62.09375Q41.721874 60.0625 42.128124 58.828125Q42.55 57.59375 43.378124 56.921875Q44.20625 56.25 45.45625 56.25Q46.378124 56.25 47.065624 56.625Q47.76875 56.984375 48.221874 57.6875Q48.675 58.390625 48.925 59.390625Q49.190624 60.390625 49.190624 62.09375Q49.190624 64.109375 48.76875 65.359375Q48.3625 66.59375 47.534374 67.28125Q46.70625 67.953125 45.45625 67.953125Q43.8 67.953125 42.846874 66.75Q41.721874 65.328125 41.721874 62.09375ZM43.159374 62.09375Q43.159374 64.921875 43.815624 65.859375Q44.4875 66.78125 45.45625 66.78125Q46.425 66.78125 47.08125 65.84375Q47.7375 64.90625 47.7375 62.09375Q47.7375 59.265625 47.08125 58.34375Q46.425 57.40625 45.440624 57.40625Q44.471874 57.40625 43.89375 58.234375Q43.159374 59.28125 43.159374 62.09375ZM50.721874 62.09375Q50.721874 60.0625 51.128124 58.828125Q51.55 57.59375 52.378124 56.921875Q53.20625 56.25 54.45625 56.25Q55.378124 56.25 56.065624 56.625Q56.76875 56.984375 57.221874 57.6875Q57.675 58.390625 57.925 59.390625Q58.190624 60.390625 58.190624 62.09375Q58.190624 64.109375 57.76875 65.359375Q57.3625 66.59375 56.534374 67.28125Q55.70625 67.953125 54.45625 67.953125Q52.8 67.953125 51.846874 66.75Q50.721874 65.328125 50.721874 62.09375ZM52.159374 62.09375Q52.159374 64.921875 52.815624 65.859375Q53.4875 66.78125 54.45625 66.78125Q55.425 66.78125 56.08125 65.84375Q56.7375 64.90625 56.7375 62.09375Q56.7375 59.265625 56.08125 58.34375Q55.425 57.40625 54.440624 57.40625Q53.471874 57.40625 52.89375 58.234375Q52.159374 59.28125 52.159374 62.09375Z" fill-rule="nonzero"/><path fill="#000000" d="M177.9621 352.3719Q177.9621 349.5125 179.49335 347.90314Q181.0246 346.29376 183.44647 346.29376Q185.0246 346.29376 186.29022 347.0594Q187.57147 347.8094 188.24335 349.16876Q188.91522 350.5125 188.91522 352.23126Q188.91522 353.98126 188.2121 355.35626Q187.50897 356.73126 186.2121 357.45Q184.93085 358.15314 183.43085 358.15314Q181.82147 358.15314 180.54022 357.3719Q179.2746 356.575 178.61835 355.23126Q177.9621 353.8719 177.9621 352.3719ZM179.5246 352.3875Q179.5246 354.46564 180.63397 355.65314Q181.74335 356.84064 183.43085 356.84064Q185.13397 356.84064 186.24335 355.6375Q187.35272 354.4344 187.35272 352.23126Q187.35272 350.825 186.86835 349.79376Q186.3996 348.7469 185.49335 348.16876Q184.5871 347.59064 183.44647 347.59064Q181.8371 347.59064 180.68085 348.7Q179.5246 349.8094 179.5246 352.3875ZM190.22772 357.95L190.22772 349.65314L191.49335 349.65314L191.49335 350.90314Q191.97772 350.02814 192.38397 349.7469Q192.79022 349.46564 193.29022 349.46564Q193.99335 349.46564 194.72772 349.91876L194.24335 351.21564Q193.72772 350.91876 193.2121 350.91876Q192.75897 350.91876 192.38397 351.2Q192.0246 351.46564 191.86835 351.96564Q191.63397 352.71564 191.63397 353.60626L191.63397 357.95L190.22772 357.95ZM195.24335 348.10626L195.24335 346.4969L196.6496 346.4969L196.6496 348.10626L195.24335 348.10626ZM195.24335 357.95L195.24335 349.65314L196.6496 349.65314L196.6496 357.95L195.24335 357.95ZM198.97772 358.6375L200.35272 358.84064Q200.43085 359.48126 200.82147 359.7625Q201.35272 360.15314 202.25897 360.15314Q203.22772 360.15314 203.75897 359.7625Q204.29022 359.3719 204.47772 358.66876Q204.5871 358.2469 204.5871 356.85626Q203.66522 357.95 202.29022 357.95Q200.57147 357.95 199.63397 356.71564Q198.69647 355.48126 198.69647 353.7469Q198.69647 352.5594 199.11835 351.5594Q199.55585 350.5594 200.36835 350.0125Q201.19647 349.46564 202.29022 349.46564Q203.75897 349.46564 204.7121 350.65314L204.7121 349.65314L206.00897 349.65314L206.00897 356.825Q206.00897 358.7625 205.61835 359.575Q205.22772 360.3875 204.36835 360.85626Q203.50897 361.325 202.25897 361.325Q200.7746 361.325 199.85272 360.65314Q198.94647 359.98126 198.97772 358.6375ZM200.1496 353.65314Q200.1496 355.27814 200.79022 356.02814Q201.44647 356.77814 202.41522 356.77814Q203.38397 356.77814 204.04022 356.04376Q204.69647 355.29376 204.69647 353.7Q204.69647 352.16876 204.0246 351.40314Q203.35272 350.6219 202.3996 350.6219Q201.4621 350.6219 200.80585 351.3875Q200.1496 352.15314 200.1496 353.65314ZM213.6496 356.91876Q212.86835 357.59064 212.1496 357.8719Q211.43085 358.1375 210.60272 358.1375Q209.22772 358.1375 208.49335 357.46564Q207.75897 356.79376 207.75897 355.7625Q207.75897 355.15314 208.04022 354.65314Q208.32147 354.1375 208.75897 353.84064Q209.2121 353.52814 209.7746 353.3719Q210.19647 353.2625 211.0246 353.16876Q212.72772 352.96564 213.54022 352.6844Q213.54022 352.3875 213.54022 352.3094Q213.54022 351.45 213.1496 351.10626Q212.60272 350.6219 211.54022 350.6219Q210.55585 350.6219 210.07147 350.98126Q209.60272 351.325 209.38397 352.2L208.00897 352.0125Q208.19647 351.1375 208.61835 350.59064Q209.05585 350.04376 209.86835 349.7625Q210.68085 349.46564 211.74335 349.46564Q212.80585 349.46564 213.4621 349.71564Q214.13397 349.96564 214.44647 350.34064Q214.75897 350.71564 214.88397 351.29376Q214.9621 351.65314 214.9621 352.59064L214.9621 354.46564Q214.9621 356.4344 215.04022 356.95Q215.13397 357.46564 215.3996 357.95L213.93085 357.95Q213.7121 357.5125 213.6496 356.91876ZM213.54022 353.77814Q212.7746 354.09064 211.24335 354.3094Q210.36835 354.4344 210.00897 354.59064Q209.6496 354.7469 209.44647 355.0594Q209.25897 355.35626 209.25897 355.71564Q209.25897 356.27814 209.68085 356.65314Q210.11835 357.02814 210.93085 357.02814Q211.74335 357.02814 212.36835 356.6844Q213.00897 356.325 213.30585 355.7Q213.54022 355.23126 213.54022 354.29376L213.54022 353.77814ZM217.24335 357.95L217.24335 349.65314L218.49335 349.65314L218.49335 350.8094Q218.88397 350.2 219.5246 349.84064Q220.18085 349.46564 221.00897 349.46564Q221.93085 349.46564 222.5246 349.85626Q223.11835 350.23126 223.35272 350.91876Q224.3371 349.46564 225.91522 349.46564Q227.1496 349.46564 227.80585 350.15314Q228.47772 350.825 228.47772 352.2469L228.47772 357.95L227.0871 357.95L227.0871 352.71564Q227.0871 351.8719 226.94647 351.5125Q226.80585 351.1375 226.44647 350.91876Q226.0871 350.6844 225.60272 350.6844Q224.72772 350.6844 224.1496 351.2625Q223.57147 351.84064 223.57147 353.1219L223.57147 357.95L222.16522 357.95L222.16522 352.5594Q222.16522 351.6219 221.82147 351.15314Q221.47772 350.6844 220.69647 350.6844Q220.10272 350.6844 219.60272 350.9969Q219.10272 351.3094 218.86835 351.91876Q218.6496 352.5125 218.6496 353.6375L218.6496 357.95L217.24335 357.95ZM230.24335 348.10626L230.24335 346.4969L231.6496 346.4969L231.6496 348.10626L230.24335 348.10626ZM230.24335 357.95L230.24335 349.65314L231.6496 349.65314L231.6496 357.95L230.24335 357.95Z" fill-rule="nonzero"/><path fill="#000000" d="M380.08478 357.95L380.08478 346.4969L388.36603 346.4969L388.36603 347.84064L381.6004 347.84064L381.6004 351.35626L387.94415 351.35626L387.94415 352.7L381.6004 352.7L381.6004 356.59064L388.63165 356.59064L388.63165 357.95L380.08478 357.95ZM390.8504 357.95L390.8504 346.4969L392.25665 346.4969L392.25665 357.95L390.8504 357.95ZM400.55353 355.27814L402.00665 355.45Q401.6629 356.73126 400.7254 357.4344Q399.80353 358.1375 398.36603 358.1375Q396.5379 358.1375 395.4754 357.0125Q394.4129 355.8875 394.4129 353.8719Q394.4129 351.77814 395.49103 350.6219Q396.56915 349.46564 398.2879 349.46564Q399.94415 349.46564 400.99103 350.60626Q402.05353 351.73126 402.05353 353.77814Q402.05353 353.90314 402.05353 354.15314L395.86603 354.15314Q395.94415 355.52814 396.63165 356.2625Q397.33478 356.98126 398.36603 356.98126Q399.14728 356.98126 399.69415 356.575Q400.24103 356.16876 400.55353 355.27814ZM395.94415 352.9969L400.56915 352.9969Q400.4754 351.95 400.0379 351.4344Q399.36603 350.6219 398.30353 350.6219Q397.33478 350.6219 396.6629 351.27814Q396.00665 351.91876 395.94415 352.9969ZM406.17853 357.95L403.02228 349.65314L404.50665 349.65314L406.2879 354.6219Q406.58478 355.41876 406.81915 356.29376Q407.00665 355.6375 407.3504 354.71564L409.19415 349.65314L410.63165 349.65314L407.49103 357.95L406.17853 357.95ZM417.55353 355.27814L419.00665 355.45Q418.6629 356.73126 417.7254 357.4344Q416.80353 358.1375 415.36603 358.1375Q413.5379 358.1375 412.4754 357.0125Q411.4129 355.8875 411.4129 353.8719Q411.4129 351.77814 412.49103 350.6219Q413.56915 349.46564 415.2879 349.46564Q416.94415 349.46564 417.99103 350.60626Q419.05353 351.73126 419.05353 353.77814Q419.05353 353.90314 419.05353 354.15314L412.86603 354.15314Q412.94415 355.52814 413.63165 356.2625Q414.33478 356.98126 415.36603 356.98126Q416.14728 356.98126 416.69415 356.575Q417.24103 356.16876 417.55353 355.27814ZM412.94415 352.9969L417.56915 352.9969Q417.4754 351.95 417.0379 351.4344Q416.36603 350.6219 415.30353 350.6219Q414.33478 350.6219 413.6629 351.27814Q413.00665 351.91876 412.94415 352.9969ZM420.88165 357.95L420.88165 349.65314L422.14728 349.65314L422.14728 350.825Q423.05353 349.46564 424.7879 349.46564Q425.5379 349.46564 426.1629 349.73126Q426.7879 349.9969 427.1004 350.4344Q427.4129 350.8719 427.5379 351.48126Q427.61603 351.8719 427.61603 352.84064L427.61603 357.95L426.20978 357.95L426.20978 352.90314Q426.20978 352.04376 426.0379 351.6219Q425.88165 351.1844 425.45978 350.9344Q425.05353 350.6844 424.49103 350.6844Q423.58478 350.6844 422.92853 351.2625Q422.2879 351.825 422.2879 353.41876L422.2879 357.95L420.88165 357.95ZM432.94415 356.6844L433.14728 357.9344Q432.55353 358.0594 432.08478 358.0594Q431.31915 358.0594 430.89728 357.825Q430.4754 357.575 430.30353 357.1844Q430.13165 356.77814 430.13165 355.5125L430.13165 350.7469L429.1004 350.7469L429.1004 349.65314L430.13165 349.65314L430.13165 347.59064L431.5379 346.7469L431.5379 349.65314L432.94415 349.65314L432.94415 350.7469L431.5379 350.7469L431.5379 355.59064Q431.5379 356.2 431.6004 356.3719Q431.67853 356.54376 431.8504 356.65314Q432.02228 356.7469 432.33478 356.7469Q432.56915 356.7469 432.94415 356.6844ZM433.81915 361.15314L433.6629 359.825Q434.11603 359.95 434.45978 359.95Q434.92853 359.95 435.20978 359.79376Q435.49103 359.6375 435.67853 359.35626Q435.80353 359.15314 436.1004 358.3094Q436.14728 358.2 436.2254 357.96564L433.08478 349.65314L434.6004 349.65314L436.31915 354.45Q436.6629 355.3719 436.92853 356.3719Q437.1629 355.40314 437.50665 354.48126L439.27228 349.65314L440.67853 349.65314L437.52228 358.09064Q437.02228 359.46564 436.74103 359.98126Q436.36603 360.66876 435.88165 360.9969Q435.39728 361.325 434.7254 361.325Q434.31915 361.325 433.81915 361.15314Z" fill-rule="nonzero"/><path fill="#757575" d="M20.3625 23.159374L25.51875 23.159374Q27.05 23.159374 27.8 23.3Q28.55 23.425 29.14375 23.83125Q29.7375 24.221874 30.128124 24.89375Q30.534374 25.565624 30.534374 26.409374Q30.534374 27.315624 30.034374 28.08125Q29.55 28.83125 28.721874 29.20625Q29.89375 29.55 30.51875 30.378124Q31.159374 31.190624 31.159374 32.315624Q31.159374 33.190624 30.753124 34.01875Q30.346874 34.846874 29.628124 35.346874Q28.925 35.846874 27.89375 35.95625Q27.2375 36.034374 24.753124 36.05L20.3625 36.05L20.3625 23.159374ZM22.971874 25.315624L22.971874 28.284374L24.675 28.284374Q26.190624 28.284374 26.565624 28.2375Q27.2375 28.159374 27.6125 27.784374Q28.003124 27.39375 28.003124 26.784374Q28.003124 26.175 27.659374 25.8Q27.33125 25.425 26.690624 25.346874Q26.3 25.315624 24.471874 25.315624L22.971874 25.315624ZM22.971874 30.440624L22.971874 33.878124L25.378124 33.878124Q26.784374 33.878124 27.159374 33.8Q27.7375 33.690624 28.096874 33.284374Q28.471874 32.878124 28.471874 32.190624Q28.471874 31.6125 28.190624 31.20625Q27.909374 30.8 27.378124 30.628124Q26.846874 30.440624 25.065624 30.440624L22.971874 30.440624ZM39.4875 36.05L39.4875 34.659374Q38.971874 35.39375 38.14375 35.83125Q37.315624 36.26875 36.39375 36.26875Q35.45625 36.26875 34.70625 35.8625Q33.95625 35.440624 33.6125 34.690624Q33.284374 33.940624 33.284374 32.628124L33.284374 26.721874L35.753124 26.721874L35.753124 31.003124Q35.753124 32.971874 35.89375 33.425Q36.034374 33.8625 36.39375 34.128124Q36.753124 34.378124 37.3 34.378124Q37.940624 34.378124 38.440624 34.034374Q38.940624 33.690624 39.128124 33.175Q39.315624 32.659374 39.315624 30.659374L39.315624 26.721874L41.784374 26.721874L41.784374 36.05L39.4875 36.05ZM44.346874 25.45625L44.346874 23.159374L46.815624 23.159374L46.815624 25.45625L44.346874 25.45625ZM44.346874 36.05L44.346874 26.721874L46.815624 26.721874L46.815624 36.05L44.346874 36.05ZM49.346874 36.05L49.346874 23.159374L51.815624 23.159374L51.815624 36.05L49.346874 36.05ZM62.909374 36.05L60.6125 36.05L60.6125 34.675Q60.034374 35.471874 59.253124 35.878124Q58.4875 36.26875 57.690624 36.26875Q56.08125 36.26875 54.925 34.971874Q53.784374 33.675 53.784374 31.346874Q53.784374 28.971874 54.89375 27.7375Q56.01875 26.503124 57.721874 26.503124Q59.284374 26.503124 60.440624 27.8L60.440624 23.159374L62.909374 23.159374L62.909374 36.05ZM56.315624 31.175Q56.315624 32.675 56.721874 33.346874Q57.315624 34.315624 58.39375 34.315624Q59.253124 34.315624 59.846874 33.596874Q60.440624 32.8625 60.440624 31.425Q60.440624 29.815624 59.8625 29.1125Q59.284374 28.39375 58.378124 28.39375Q57.503124 28.39375 56.909374 29.096874Q56.315624 29.784374 56.315624 31.175ZM74.62813 26.721874L74.62813 28.690624L72.94063 28.690624L72.94063 32.440624Q72.94063 33.58125 72.9875 33.784374Q73.03438 33.971874 73.20625 34.096874Q73.37813 34.20625 73.62813 34.20625Q73.95625 34.20625 74.6125 33.971874L74.83125 35.89375Q73.95625 36.26875 72.87813 36.26875Q72.20625 36.26875 71.65938 36.05Q71.12813 35.815624 70.87813 35.45625Q70.62813 35.096874 70.53438 34.4875Q70.45625 34.065624 70.45625 32.753124L70.45625 28.690624L69.31563 28.690624L69.31563 26.721874L70.45625 26.721874L70.45625 24.8625L72.94063 23.425L72.94063 26.721874L74.62813 26.721874ZM76.34688 25.45625L76.34688 23.159374L78.81563 23.159374L78.81563 25.45625L76.34688 25.45625ZM76.34688 36.05L76.34688 26.721874L78.81563 26.721874L78.81563 36.05L76.34688 36.05ZM81.15938 26.721874L83.44063 26.721874L83.44063 27.9875Q84.65938 26.503124 86.34688 26.503124Q87.2375 26.503124 87.89375 26.878124Q88.56563 27.2375 88.9875 27.9875Q89.59688 27.2375 90.3 26.878124Q91.01875 26.503124 91.83125 26.503124Q92.8625 26.503124 93.56563 26.925Q94.28438 27.346874 94.62813 28.14375Q94.89375 28.753124 94.89375 30.08125L94.89375 36.05L92.40938 36.05L92.40938 30.721874Q92.40938 29.33125 92.15938 28.925Q91.81563 28.39375 91.1125 28.39375Q90.58125 28.39375 90.12813 28.721874Q89.675 29.034374 89.47188 29.64375Q89.26875 30.253124 89.26875 31.565624L89.26875 36.05L86.8 36.05L86.8 30.940624Q86.8 29.565624 86.65938 29.175Q86.53438 28.784374 86.25313 28.596874Q85.9875 28.39375 85.50313 28.39375Q84.94063 28.39375 84.47188 28.70625Q84.01875 29.003124 83.81563 29.596874Q83.62813 30.175 83.62813 31.51875L83.62813 36.05L81.15938 36.05L81.15938 26.721874ZM102.75313 33.08125L105.20625 33.4875Q104.7375 34.846874 103.70625 35.565624Q102.69063 36.26875 101.14375 36.26875Q98.70625 36.26875 97.55 34.675Q96.62813 33.39375 96.62813 31.45625Q96.62813 29.128124 97.83125 27.815624Q99.05 26.503124 100.90938 26.503124Q102.9875 26.503124 104.19063 27.878124Q105.39375 29.253124 105.34688 32.096874L99.15938 32.096874Q99.175 33.190624 99.7375 33.8Q100.31563 34.409374 101.175 34.409374Q101.75313 34.409374 102.14375 34.096874Q102.55 33.784374 102.75313 33.08125ZM102.89375 30.58125Q102.8625 29.503124 102.33125 28.95625Q101.8 28.39375 101.05 28.39375Q100.2375 28.39375 99.72188 28.9875Q99.19063 29.565624 99.19063 30.58125L102.89375 30.58125ZM112.34688 25.45625L112.34688 23.159374L114.81563 23.159374L114.81563 25.45625L112.34688 25.45625ZM112.34688 36.05L112.34688 26.721874L114.81563 26.721874L114.81563 36.05L112.34688 36.05ZM125.83125 36.05L123.3625 36.05L123.3625 31.284374Q123.3625 29.76875 123.20625 29.33125Q123.05 28.89375 122.69063 28.64375Q122.33125 28.39375 121.83125 28.39375Q121.19063 28.39375 120.675 28.753124Q120.175 29.096874 119.9875 29.675Q119.8 30.253124 119.8 31.815624L119.8 36.05L117.33125 36.05L117.33125 26.721874L119.6125 26.721874L119.6125 28.08125Q120.84688 26.503124 122.69063 26.503124Q123.51875 26.503124 124.19063 26.8Q124.8625 27.096874 125.20625 27.55Q125.56563 28.003124 125.69063 28.596874Q125.83125 29.175 125.83125 30.253124L125.83125 36.05ZM132.47188 33.39375L134.95625 33.003124Q135.1125 33.721874 135.59688 34.096874Q136.08125 34.471874 136.94063 34.471874Q137.90938 34.471874 138.39375 34.128124Q138.70625 33.878124 138.70625 33.471874Q138.70625 33.190624 138.53438 33.003124Q138.34688 32.83125 137.70625 32.675Q134.72188 32.01875 133.925 31.471874Q132.81563 30.721874 132.81563 29.3625Q132.81563 28.159374 133.76875 27.33125Q134.7375 26.503124 136.7375 26.503124Q138.65938 26.503124 139.58125 27.128124Q140.51875 27.753124 140.87813 28.971874L138.55 29.409374Q138.39375 28.8625 137.97188 28.58125Q137.56563 28.284374 136.78438 28.284374Q135.81563 28.284374 135.39375 28.55Q135.1125 28.753124 135.1125 29.05Q135.1125 29.315624 135.3625 29.503124Q135.69063 29.753124 137.65938 30.20625Q139.62813 30.64375 140.425 31.3Q141.19063 31.95625 141.19063 33.128124Q141.19063 34.409374 140.1125 35.346874Q139.05 36.26875 136.94063 36.26875Q135.03438 36.26875 133.925 35.4875Q132.81563 34.70625 132.47188 33.39375ZM148.75313 33.08125L151.20625 33.4875Q150.7375 34.846874 149.70625 35.565624Q148.69063 36.26875 147.14375 36.26875Q144.70625 36.26875 143.55 34.675Q142.62813 33.39375 142.62813 31.45625Q142.62813 29.128124 143.83125 27.815624Q145.05 26.503124 146.90938 26.503124Q148.9875 26.503124 150.19063 27.878124Q151.39375 29.253124 151.34688 32.096874L145.15938 32.096874Q145.175 33.190624 145.7375 33.8Q146.31563 34.409374 147.175 34.409374Q147.75313 34.409374 148.14375 34.096874Q148.55 33.784374 148.75313 33.08125ZM148.89375 30.58125Q148.8625 29.503124 148.33125 28.95625Q147.8 28.39375 147.05 28.39375Q146.2375 28.39375 145.72188 28.9875Q145.19063 29.565624 145.19063 30.58125L148.89375 30.58125ZM161.4875 29.471874L159.05 29.909374Q158.925 29.190624 158.4875 28.815624Q158.05 28.440624 157.3625 28.440624Q156.44063 28.440624 155.87813 29.08125Q155.33125 29.721874 155.33125 31.221874Q155.33125 32.878124 155.89375 33.565624Q156.45625 34.253124 157.39375 34.253124Q158.09688 34.253124 158.53438 33.846874Q158.9875 33.440624 159.175 32.471874L161.59688 32.878124Q161.22188 34.55 160.14375 35.409374Q159.08125 36.26875 157.28438 36.26875Q155.2375 36.26875 154.01875 34.971874Q152.8 33.675 152.8 31.39375Q152.8 29.08125 154.01875 27.8Q155.2375 26.503124 157.33125 26.503124Q159.03438 26.503124 160.03438 27.2375Q161.03438 27.971874 161.4875 29.471874ZM162.76875 31.253124Q162.76875 30.01875 163.37813 28.878124Q163.9875 27.721874 165.09688 27.1125Q166.20625 26.503124 167.58125 26.503124Q169.69063 26.503124 171.05 27.878124Q172.40938 29.253124 172.40938 31.3625Q172.40938 33.471874 171.03438 34.878124Q169.675 36.26875 167.59688 36.26875Q166.31563 36.26875 165.14375 35.690624Q163.9875 35.096874 163.37813 33.9875Q162.76875 32.8625 162.76875 31.253124ZM165.3 31.378124Q165.3 32.76875 165.95625 33.51875Q166.62813 34.253124 167.58125 34.253124Q168.55 34.253124 169.20625 33.51875Q169.8625 32.76875 169.8625 31.3625Q169.8625 29.9875 169.20625 29.253124Q168.55 28.51875 167.58125 28.51875Q166.62813 28.51875 165.95625 29.253124Q165.3 29.9875 165.3 31.378124ZM182.83125 36.05L180.3625 36.05L180.3625 31.284374Q180.3625 29.76875 180.20625 29.33125Q180.05 28.89375 179.69063 28.64375Q179.33125 28.39375 178.83125 28.39375Q178.19063 28.39375 177.675 28.753124Q177.175 29.096874 176.9875 29.675Q176.8 30.253124 176.8 31.815624L176.8 36.05L174.33125 36.05L174.33125 26.721874L176.6125 26.721874L176.6125 28.08125Q177.84688 26.503124 179.69063 26.503124Q180.51875 26.503124 181.19063 26.8Q181.8625 27.096874 182.20625 27.55Q182.56563 28.003124 182.69063 28.596874Q182.83125 29.175 182.83125 30.253124L182.83125 36.05ZM193.90938 36.05L191.6125 36.05L191.6125 34.675Q191.03438 35.471874 190.25313 35.878124Q189.4875 36.26875 188.69063 36.26875Q187.08125 36.26875 185.925 34.971874Q184.78438 33.675 184.78438 31.346874Q184.78438 28.971874 185.89375 27.7375Q187.01875 26.503124 188.72188 26.503124Q190.28438 26.503124 191.44063 27.8L191.44063 23.159374L193.90938 23.159374L193.90938 36.05ZM187.31563 31.175Q187.31563 32.675 187.72188 33.346874Q188.31563 34.315624 189.39375 34.315624Q190.25313 34.315624 190.84688 33.596874Q191.44063 32.8625 191.44063 31.425Q191.44063 29.815624 190.8625 29.1125Q190.28438 28.39375 189.37813 28.39375Q188.50313 28.39375 187.90938 29.096874Q187.31563 29.784374 187.31563 31.175ZM195.47188 33.39375L197.95625 33.003124Q198.1125 33.721874 198.59688 34.096874Q199.08125 34.471874 199.94063 34.471874Q200.90938 34.471874 201.39375 34.128124Q201.70625 33.878124 201.70625 33.471874Q201.70625 33.190624 201.53438 33.003124Q201.34688 32.83125 200.70625 32.675Q197.72188 32.01875 196.925 31.471874Q195.81563 30.721874 195.81563 29.3625Q195.81563 28.159374 196.76875 27.33125Q197.7375 26.503124 199.7375 26.503124Q201.65938 26.503124 202.58125 27.128124Q203.51875 27.753124 203.87813 28.971874L201.55 29.409374Q201.39375 28.8625 200.97188 28.58125Q200.56563 28.284374 199.78438 28.284374Q198.81563 28.284374 198.39375 28.55Q198.1125 28.753124 198.1125 29.05Q198.1125 29.315624 198.3625 29.503124Q198.69063 29.753124 200.65938 30.20625Q202.62813 30.64375 203.425 31.3Q204.19063 31.95625 204.19063 33.128124Q204.19063 34.409374 203.1125 35.346874Q202.05 36.26875 199.94063 36.26875Q198.03438 36.26875 196.925 35.4875Q195.81563 34.70625 195.47188 33.39375ZM215.44063 39.83125L213.7375 39.83125Q212.39375 37.815624 211.69063 35.628124Q210.9875 33.425 210.9875 31.378124Q210.9875 28.846874 211.8625 26.58125Q212.6125 24.6125 213.78438 22.940624L215.47188 22.940624Q214.25313 25.6125 213.8 27.4875Q213.3625 29.346874 213.3625 31.440624Q213.3625 32.878124 213.62813 34.39375Q213.89375 35.89375 214.3625 37.26875Q214.65938 38.159374 215.44063 39.83125ZM216.47188 33.39375L218.95625 33.003124Q219.1125 33.721874 219.59688 34.096874Q220.08125 34.471874 220.94063 34.471874Q221.90938 34.471874 222.39375 34.128124Q222.70625 33.878124 222.70625 33.471874Q222.70625 33.190624 222.53438 33.003124Q222.34688 32.83125 221.70625 32.675Q218.72188 32.01875 217.925 31.471874Q216.81563 30.721874 216.81563 29.3625Q216.81563 28.159374 217.76875 27.33125Q218.7375 26.503124 220.7375 26.503124Q222.65938 26.503124 223.58125 27.128124Q224.51875 27.753124 224.87813 28.971874L222.55 29.409374Q222.39375 28.8625 221.97188 28.58125Q221.56563 28.284374 220.78438 28.284374Q219.81563 28.284374 219.39375 28.55Q219.1125 28.753124 219.1125 29.05Q219.1125 29.315624 219.3625 29.503124Q219.69063 29.753124 221.65938 30.20625Q223.62813 30.64375 224.425 31.3Q225.19063 31.95625 225.19063 33.128124Q225.19063 34.409374 224.1125 35.346874Q223.05 36.26875 220.94063 36.26875Q219.03438 36.26875 217.925 35.4875Q216.81563 34.70625 216.47188 33.39375ZM227.15938 26.721874L229.44063 26.721874L229.44063 27.9875Q230.65938 26.503124 232.34688 26.503124Q233.2375 26.503124 233.89375 26.878124Q234.56563 27.2375 234.9875 27.9875Q235.59688 27.2375 236.3 26.878124Q237.01875 26.503124 237.83125 26.503124Q238.8625 26.503124 239.56563 26.925Q240.28438 27.346874 240.62813 28.14375Q240.89375 28.753124 240.89375 30.08125L240.89375 36.05L238.40938 36.05L238.40938 30.721874Q238.40938 29.33125 238.15938 28.925Q237.81563 28.39375 237.1125 28.39375Q236.58125 28.39375 236.12813 28.721874Q235.675 29.034374 235.47188 29.64375Q235.26875 30.253124 235.26875 31.565624L235.26875 36.05L232.8 36.05L232.8 30.940624Q232.8 29.565624 232.65938 29.175Q232.53438 28.784374 232.25313 28.596874Q231.9875 28.39375 231.50313 28.39375Q230.94063 28.39375 230.47188 28.70625Q230.01875 29.003124 229.81563 29.596874Q229.62813 30.175 229.62813 31.51875L229.62813 36.05L227.15938 36.05L227.15938 26.721874ZM245.19063 29.565624L242.94063 29.159374Q243.33125 27.8 244.25313 27.159374Q245.175 26.503124 246.9875 26.503124Q248.64375 26.503124 249.44063 26.89375Q250.25313 27.284374 250.58125 27.89375Q250.925 28.4875 250.925 30.096874L250.89375 32.9875Q250.89375 34.20625 251.00313 34.8Q251.12813 35.378124 251.45625 36.05L249.01875 36.05Q248.90938 35.8 248.76875 35.315624Q248.70625 35.096874 248.69063 35.034374Q248.05 35.64375 247.33125 35.95625Q246.6125 36.26875 245.8 36.26875Q244.34688 36.26875 243.51875 35.4875Q242.69063 34.690624 242.69063 33.503124Q242.69063 32.70625 243.06563 32.096874Q243.44063 31.471874 244.12813 31.14375Q244.81563 30.815624 246.09688 30.565624Q247.83125 30.2375 248.4875 29.95625L248.4875 29.70625Q248.4875 29.003124 248.12813 28.70625Q247.78438 28.39375 246.81563 28.39375Q246.15938 28.39375 245.78438 28.659374Q245.40938 28.909374 245.19063 29.565624ZM248.4875 31.565624Q248.01875 31.721874 246.9875 31.940624Q245.95625 32.159374 245.64375 32.378124Q245.15938 32.721874 245.15938 33.253124Q245.15938 33.76875 245.55 34.14375Q245.94063 34.51875 246.53438 34.51875Q247.20625 34.51875 247.8 34.08125Q248.25313 33.753124 248.39375 33.26875Q248.4875 32.940624 248.4875 32.065624L248.4875 31.565624ZM253.34688 36.05L253.34688 23.159374L255.81563 23.159374L255.81563 36.05L253.34688 36.05ZM258.34686 36.05L258.34686 23.159374L260.8156 23.159374L260.8156 36.05L258.34686 36.05ZM268.7531 33.08125L271.20624 33.4875Q270.7375 34.846874 269.70624 35.565624Q268.6906 36.26875 267.14374 36.26875Q264.70624 36.26875 263.55 34.675Q262.6281 33.39375 262.6281 31.45625Q262.6281 29.128124 263.83124 27.815624Q265.05 26.503124 266.90936 26.503124Q268.9875 26.503124 270.1906 27.878124Q271.39374 29.253124 271.34686 32.096874L265.15936 32.096874Q265.175 33.190624 265.7375 33.8Q266.3156 34.409374 267.175 34.409374Q267.7531 34.409374 268.14374 34.096874Q268.55 33.784374 268.7531 33.08125ZM268.89374 30.58125Q268.8625 29.503124 268.33124 28.95625Q267.8 28.39375 267.05 28.39375Q266.2375 28.39375 265.72186 28.9875Q265.1906 29.565624 265.1906 30.58125L268.89374 30.58125ZM275.70624 36.05L273.2375 36.05L273.2375 26.721874L275.53436 26.721874L275.53436 28.05Q276.1125 27.096874 276.58124 26.8Q277.0656 26.503124 277.65936 26.503124Q278.5031 26.503124 279.28436 26.971874L278.51874 29.128124Q277.89374 28.721874 277.3625 28.721874Q276.84686 28.721874 276.47186 29.003124Q276.1125 29.284374 275.90936 30.034374Q275.70624 30.784374 275.70624 33.159374L275.70624 36.05ZM285.34686 25.45625L285.34686 23.159374L287.8156 23.159374L287.8156 25.45625L285.34686 25.45625ZM285.34686 36.05L285.34686 26.721874L287.8156 26.721874L287.8156 36.05L285.34686 36.05ZM289.47186 33.39375L291.95624 33.003124Q292.1125 33.721874 292.59686 34.096874Q293.08124 34.471874 293.9406 34.471874Q294.90936 34.471874 295.39374 34.128124Q295.70624 33.878124 295.70624 33.471874Q295.70624 33.190624 295.53436 33.003124Q295.34686 32.83125 294.70624 32.675Q291.72186 32.01875 290.925 31.471874Q289.8156 30.721874 289.8156 29.3625Q289.8156 28.159374 290.76874 27.33125Q291.7375 26.503124 293.7375 26.503124Q295.65936 26.503124 296.58124 27.128124Q297.51874 27.753124 297.8781 28.971874L295.55 29.409374Q295.39374 28.8625 294.97186 28.58125Q294.5656 28.284374 293.78436 28.284374Q292.8156 28.284374 292.39374 28.55Q292.1125 28.753124 292.1125 29.05Q292.1125 29.315624 292.3625 29.503124Q292.6906 29.753124 294.65936 30.20625Q296.6281 30.64375 297.425 31.3Q298.1906 31.95625 298.1906 33.128124Q298.1906 34.409374 297.1125 35.346874Q296.05 36.26875 293.9406 36.26875Q292.03436 36.26875 290.925 35.4875Q289.8156 34.70625 289.47186 33.39375ZM305.2375 36.05L305.2375 23.159374L307.70624 23.159374L307.70624 27.8Q308.84686 26.503124 310.40936 26.503124Q312.1125 26.503124 313.22186 27.7375Q314.34686 28.971874 314.34686 31.284374Q314.34686 33.675 313.20624 34.971874Q312.08124 36.26875 310.45624 36.26875Q309.64374 36.26875 308.8625 35.8625Q308.09686 35.45625 307.53436 34.675L307.53436 36.05L305.2375 36.05ZM307.6906 31.175Q307.6906 32.628124 308.14374 33.33125Q308.78436 34.315624 309.84686 34.315624Q310.675 34.315624 311.2375 33.6125Q311.8156 32.909374 311.8156 31.409374Q311.8156 29.815624 311.2375 29.1125Q310.65936 28.39375 309.7531 28.39375Q308.8625 28.39375 308.26874 29.08125Q307.6906 29.76875 307.6906 31.175ZM321.7531 33.08125L324.20624 33.4875Q323.7375 34.846874 322.70624 35.565624Q321.6906 36.26875 320.14374 36.26875Q317.70624 36.26875 316.55 34.675Q315.6281 33.39375 315.6281 31.45625Q315.6281 29.128124 316.83124 27.815624Q318.05 26.503124 319.90936 26.503124Q321.9875 26.503124 323.1906 27.878124Q324.39374 29.253124 324.34686 32.096874L318.15936 32.096874Q318.175 33.190624 318.7375 33.8Q319.3156 34.409374 320.175 34.409374Q320.7531 34.409374 321.14374 34.096874Q321.55 33.784374 321.7531 33.08125ZM321.89374 30.58125Q321.8625 29.503124 321.33124 28.95625Q320.8 28.39375 320.05 28.39375Q319.2375 28.39375 318.72186 28.9875Q318.1906 29.565624 318.1906 30.58125L321.89374 30.58125ZM330.6281 26.721874L330.6281 28.690624L328.9406 28.690624L328.9406 32.440624Q328.9406 33.58125 328.9875 33.784374Q329.03436 33.971874 329.20624 34.096874Q329.3781 34.20625 329.6281 34.20625Q329.95624 34.20625 330.6125 33.971874L330.83124 35.89375Q329.95624 36.26875 328.8781 36.26875Q328.20624 36.26875 327.65936 36.05Q327.1281 35.815624 326.8781 35.45625Q326.6281 35.096874 326.53436 34.4875Q326.45624 34.065624 326.45624 32.753124L326.45624 28.690624L325.3156 28.690624L325.3156 26.721874L326.45624 26.721874L326.45624 24.8625L328.9406 23.425L328.9406 26.721874L330.6281 26.721874ZM336.6281 26.721874L336.6281 28.690624L334.9406 28.690624L334.9406 32.440624Q334.9406 33.58125 334.9875 33.784374Q335.03436 33.971874 335.20624 34.096874Q335.3781 34.20625 335.6281 34.20625Q335.95624 34.20625 336.6125 33.971874L336.83124 35.89375Q335.95624 36.26875 334.8781 36.26875Q334.20624 36.26875 333.65936 36.05Q333.1281 35.815624 332.8781 35.45625Q332.6281 35.096874 332.53436 34.4875Q332.45624 34.065624 332.45624 32.753124L332.45624 28.690624L331.3156 28.690624L331.3156 26.721874L332.45624 26.721874L332.45624 24.8625L334.9406 23.425L334.9406 26.721874L336.6281 26.721874ZM343.7531 33.08125L346.20624 33.4875Q345.7375 34.846874 344.70624 35.565624Q343.6906 36.26875 342.14374 36.26875Q339.70624 36.26875 338.55 34.675Q337.6281 33.39375 337.6281 31.45625Q337.6281 29.128124 338.83124 27.815624Q340.05 26.503124 341.90936 26.503124Q343.9875 26.503124 345.1906 27.878124Q346.39374 29.253124 346.34686 32.096874L340.15936 32.096874Q340.175 33.190624 340.7375 33.8Q341.3156 34.409374 342.175 34.409374Q342.7531 34.409374 343.14374 34.096874Q343.55 33.784374 343.7531 33.08125ZM343.89374 30.58125Q343.8625 29.503124 343.33124 28.95625Q342.8 28.39375 342.05 28.39375Q341.2375 28.39375 340.72186 28.9875Q340.1906 29.565624 340.1906 30.58125L343.89374 30.58125ZM350.70624 36.05L348.2375 36.05L348.2375 26.721874L350.53436 26.721874L350.53436 28.05Q351.1125 27.096874 351.58124 26.8Q352.0656 26.503124 352.65936 26.503124Q353.5031 26.503124 354.28436 26.971874L353.51874 29.128124Q352.89374 28.721874 352.3625 28.721874Q351.84686 28.721874 351.47186 29.003124Q351.1125 29.284374 350.90936 30.034374Q350.70624 30.784374 350.70624 33.159374L350.70624 36.05ZM354.65936 39.83125Q355.39374 38.26875 355.6906 37.425Q355.9875 36.596874 356.2375 35.51875Q356.4875 34.425 356.6125 33.440624Q356.7375 32.45625 356.7375 31.440624Q356.7375 29.346874 356.28436 27.4875Q355.84686 25.6125 354.64374 22.940624L356.3156 22.940624Q357.64374 24.83125 358.3781 26.95625Q359.1125 29.065624 359.1125 31.253124Q359.1125 33.08125 358.53436 35.190624Q357.8781 37.55 356.3625 39.83125L354.65936 39.83125Z" fill-rule="nonzero"/></svg>