<?xml version="1.0" encoding="UTF-8" standalone="no"?>
<!DOCTYPE svg PUBLIC "-//W3C//DTD SVG 1.1//EN"
 "http://www.w3.org/Graphics/SVG/1.1/DTD/svg11.dtd">
<!-- Generated by graphviz version 14.1.3 (0)
 -->
<!-- Title: g Pages: 1 -->
<svg width="608pt" height="620pt"
 viewBox="0.00 0.00 608.00 620.00" xmlns="http://www.w3.org/2000/svg" xmlns:xlink="http://www.w3.org/1999/xlink">
<g id="graph0" class="graph" transform="scale(1 1) rotate(0) translate(4 616)">
<title>g</title>
<polygon fill="white" stroke="none" points="-4,4 -4,-616 604,-616 604,4 -4,4"/>
<!-- build script -->
<g id="node1" class="node">
<title>build script</title>
<polygon fill="white" stroke="none" points="349.9,-612 286.1,-612 286.1,-576 349.9,-576 349.9,-612"/>
<text xml:space="preserve" text-anchor="middle" x="318" y="-591" font-family="Helvetica,sans-Serif" font-size="10.00">build script</text>
</g>
<!-- Eleventy -->
<g id="node2" class="node">
<title>Eleventy</title>
<polygon fill="white" stroke="none" points="345.18,-540 290.82,-540 290.82,-504 345.18,-504 345.18,-540"/>
<text xml:space="preserve" text-anchor="middle" x="318" y="-519" font-family="Helvetica,sans-Serif" font-size="10.00">Eleventy</text>
</g>
<!-- build script&#45;&gt;Eleventy -->
<g id="edge1" class="edge">
<title>build script&#45;&gt;Eleventy</title>
<path fill="none" stroke="black" d="M318,-576.05C318,-567.71 318,-557.49 318,-548.25"/>
<polygon fill="black" stroke="black" points="318,-541.01 321.38,-548.51 318,-543.54 318,-548.51 318,-548.51 318,-548.51 318,-543.54 314.63,-548.51 318,-541.01"/>
</g>
<!-- eleventy.config.js -->
<g id="node3" class="node">
<title>eleventy.config.js</title>
<polygon fill="white" stroke="none" points="364.35,-468 271.65,-468 271.65,-432 364.35,-432 364.35,-468"/>
<text xml:space="preserve" text-anchor="middle" x="318" y="-447" font-family="Helvetica,sans-Serif" font-size="10.00">eleventy.config.js</text>
</g>
<!-- Eleventy&#45;&gt;eleventy.config.js -->
<g id="edge2" class="edge">
<title>Eleventy&#45;&gt;eleventy.config.js</title>
<path fill="none" stroke="#cccccc" stroke-dasharray="5,2" d="M318,-504.05C318,-495.71 318,-485.49 318,-476.25"/>
<polygon fill="#cccccc" stroke="#cccccc" points="318,-469.01 321.38,-476.51 318,-471.54 318,-476.51 318,-476.51 318,-476.51 318,-471.54 314.63,-476.51 318,-469.01"/>
</g>
<!-- eleventyDataSchema.js -->
<g id="node4" class="node">
<title>eleventyDataSchema.js</title>
<polygon fill="white" stroke="none" points="503.53,-468 382.47,-468 382.47,-432 503.53,-432 503.53,-468"/>
<text xml:space="preserve" text-anchor="middle" x="443" y="-447" font-family="Helvetica,sans-Serif" font-size="10.00">eleventyDataSchema.js</text>
</g>
<!-- Eleventy&#45;&gt;eleventyDataSchema.js -->
<g id="edge3" class="edge">
<title>Eleventy&#45;&gt;eleventyDataSchema.js</title>
<path fill="none" stroke="#cccccc" stroke-dasharray="5,2" d="M345.12,-505.81C362.75,-495.94 385.96,-482.94 405.36,-472.08"/>
<polygon fill="#cccccc" stroke="#cccccc" points="411.8,-468.47 406.91,-475.08 409.59,-469.71 405.26,-472.14 405.26,-472.14 405.26,-472.14 409.59,-469.71 403.61,-469.19 411.8,-468.47"/>
</g>
<!-- metadata.js -->
<g id="node5" class="node">
<title>metadata.js</title>
<polygon fill="white" stroke="none" points="127.85,-36 60.15,-36 60.15,0 127.85,0 127.85,-36"/>
<text xml:space="preserve" text-anchor="middle" x="94" y="-15" font-family="Helvetica,sans-Serif" font-size="10.00">metadata.js</text>
</g>
<!-- Eleventy&#45;&gt;metadata.js -->
<g id="edge4" class="edge">
<title>Eleventy&#45;&gt;metadata.js</title>
<path fill="none" stroke="#cccccc" stroke-dasharray="5,2" d="M290.89,-521.19C213.99,-520.18 0,-505.97 0,-379 0,-379 0,-379 0,-161 0,-112.28 38.95,-67.44 66.7,-41.68"/>
<polygon fill="#cccccc" stroke="#cccccc" points="72.23,-36.68 68.94,-44.21 70.36,-38.37 66.67,-41.71 66.67,-41.71 66.67,-41.71 70.36,-38.37 64.41,-39.2 72.23,-36.68"/>
</g>
<!-- content folder -->
<g id="node12" class="node">
<title>content folder</title>
<text xml:space="preserve" text-anchor="middle" x="318" y="-375" font-family="Helvetica,sans-Serif" font-size="10.00">content folder</text>
</g>
<!-- eleventy.config.js&#45;&gt;content folder -->
<g id="edge18" class="edge">
<title>eleventy.config.js&#45;&gt;content folder</title>
<path fill="none" stroke="black" d="M318,-432.05C318,-423.71 318,-413.49 318,-404.25"/>
<polygon fill="black" stroke="black" points="318,-397.01 321.38,-404.51 318,-399.54 318,-404.51 318,-404.51 318,-404.51 318,-399.54 314.63,-404.51 318,-397.01"/>
</g>
<!-- filters.js -->
<g id="node18" class="node">
<title>filters.js</title>
<polygon fill="white" stroke="none" points="352,-36 298,-36 298,0 352,0 352,-36"/>
<text xml:space="preserve" text-anchor="middle" x="325" y="-15" font-family="Helvetica,sans-Serif" font-size="10.00">filters.js</text>
</g>
<!-- eleventy.config.js&#45;&gt;filters.js -->
<g id="edge17" class="edge">
<title>eleventy.config.js&#45;&gt;filters.js</title>
<path fill="none" stroke="black" d="M361.14,-432.12C440.13,-400.55 600,-333.41 600,-307 600,-307 600,-307 600,-161 600,-54.38 434.77,-27.73 360.46,-21.14"/>
<polygon fill="black" stroke="black" points="353.08,-20.53 360.84,-17.78 355.61,-20.74 360.56,-21.15 360.56,-21.15 360.56,-21.15 355.61,-20.74 360.28,-24.51 353.08,-20.53"/>
</g>
<!-- base.njk -->
<g id="node6" class="node">
<title>base.njk</title>
<polygon fill="white" stroke="none" points="214,-108 160,-108 160,-72 214,-72 214,-108"/>
<text xml:space="preserve" text-anchor="middle" x="187" y="-87" font-family="Helvetica,sans-Serif" font-size="10.00">base.njk</text>
</g>
<!-- base.njk&#45;&gt;metadata.js -->
<g id="edge5" class="edge">
<title>base.njk&#45;&gt;metadata.js</title>
<path fill="none" stroke="#cccccc" stroke-dasharray="5,2" d="M164.49,-72.05C152.04,-62.68 136.42,-50.93 123.06,-40.87"/>
<polygon fill="#cccccc" stroke="#cccccc" points="117.28,-36.52 125.3,-38.34 119.3,-38.04 123.27,-41.03 123.27,-41.03 123.27,-41.03 119.3,-38.04 121.24,-43.73 117.28,-36.52"/>
</g>
<!-- blog folder -->
<g id="node7" class="node">
<title>blog folder</title>
<text xml:space="preserve" text-anchor="middle" x="489" y="-303" font-family="Helvetica,sans-Serif" font-size="10.00">blog folder</text>
</g>
<!-- blog.11tydata.js -->
<g id="node8" class="node">
<title>blog.11tydata.js</title>
<polygon fill="white" stroke="none" points="432.02,-252 345.98,-252 345.98,-216 432.02,-216 432.02,-252"/>
<text xml:space="preserve" text-anchor="middle" x="389" y="-231" font-family="Helvetica,sans-Serif" font-size="10.00">blog.11tydata.js</text>
</g>
<!-- blog folder&#45;&gt;blog.11tydata.js -->
<g id="edge6" class="edge">
<title>blog folder&#45;&gt;blog.11tydata.js</title>
<path fill="none" stroke="#cccccc" stroke-dasharray="5,2" d="M464.79,-288.05C451.28,-278.6 434.31,-266.72 419.85,-256.6"/>
<polygon fill="#cccccc" stroke="#cccccc" points="413.98,-252.49 422.06,-254.02 416.06,-253.94 420.13,-256.79 420.13,-256.79 420.13,-256.79 416.06,-253.94 418.19,-259.55 413.98,-252.49"/>
</g>
<!-- post.njk -->
<g id="node9" class="node">
<title>post.njk</title>
<polygon fill="white" stroke="none" points="325,-180 271,-180 271,-144 325,-144 325,-180"/>
<text xml:space="preserve" text-anchor="middle" x="298" y="-159" font-family="Helvetica,sans-Serif" font-size="10.00">post.njk</text>
</g>
<!-- blog.11tydata.js&#45;&gt;post.njk -->
<g id="edge7" class="edge">
<title>blog.11tydata.js&#45;&gt;post.njk</title>
<path fill="none" stroke="black" d="M366.97,-216.05C354.79,-206.68 339.51,-194.93 326.44,-184.87"/>
<polygon fill="black" stroke="black" points="320.79,-180.53 328.79,-182.43 322.8,-182.08 326.74,-185.1 326.74,-185.1 326.74,-185.1 322.8,-182.08 324.68,-187.78 320.79,-180.53"/>
</g>
<!-- post.njk&#45;&gt;base.njk -->
<g id="edge23" class="edge">
<title>post.njk&#45;&gt;base.njk</title>
<path fill="none" stroke="black" d="M271.13,-144.05C256,-134.51 236.95,-122.5 220.81,-112.32"/>
<polygon fill="black" stroke="black" points="214.65,-108.44 222.8,-109.58 216.79,-109.79 221,-112.44 221,-112.44 221,-112.44 216.79,-109.79 219.2,-115.29 214.65,-108.44"/>
</g>
<!-- post.njk&#45;&gt;filters.js -->
<g id="edge25" class="edge">
<title>post.njk&#45;&gt;filters.js</title>
<path fill="none" stroke="#cccccc" stroke-dasharray="5,2" d="M300.54,-144.22C303.33,-126.29 308.06,-97.06 313,-72 314.81,-62.84 317.01,-52.83 319.04,-44.01"/>
<polygon fill="#cccccc" stroke="#cccccc" points="320.7,-36.85 322.29,-44.91 320.13,-39.31 319,-44.15 319,-44.15 319,-44.15 320.13,-39.31 315.72,-43.39 320.7,-36.85"/>
</g>
<!-- postslist.njk -->
<g id="node19" class="node">
<title>postslist.njk</title>
<polygon fill="white" stroke="none" points="389.84,-108 322.16,-108 322.16,-72 389.84,-72 389.84,-108"/>
<text xml:space="preserve" text-anchor="middle" x="356" y="-87" font-family="Helvetica,sans-Serif" font-size="10.00">postslist.njk</text>
</g>
<!-- post.njk&#45;&gt;postslist.njk -->
<g id="edge24" class="edge">
<title>post.njk&#45;&gt;postslist.njk</title>
<path fill="none" stroke="black" d="M312.04,-144.05C319.45,-135.11 328.65,-124.01 336.72,-114.27"/>
<polygon fill="black" stroke="black" points="341.31,-108.73 339.13,-116.66 339.7,-110.68 336.53,-114.5 336.53,-114.5 336.53,-114.5 339.7,-110.68 333.93,-112.35 341.31,-108.73"/>
</g>
<!-- blog.njk -->
<g id="node10" class="node">
<title>blog.njk</title>
<polygon fill="white" stroke="none" points="154,-324 100,-324 100,-288 154,-288 154,-324"/>
<text xml:space="preserve" text-anchor="middle" x="127" y="-303" font-family="Helvetica,sans-Serif" font-size="10.00">blog.njk</text>
</g>
<!-- home.njk -->
<g id="node11" class="node">
<title>home.njk</title>
<polygon fill="white" stroke="none" points="215.29,-252 158.71,-252 158.71,-216 215.29,-216 215.29,-252"/>
<text xml:space="preserve" text-anchor="middle" x="187" y="-231" font-family="Helvetica,sans-Serif" font-size="10.00">home.njk</text>
</g>
<!-- blog.njk&#45;&gt;home.njk -->
<g id="edge8" class="edge">
<title>blog.njk&#45;&gt;home.njk</title>
<path fill="none" stroke="#cccccc" stroke-dasharray="5,2" d="M141.52,-288.05C149.19,-279.11 158.71,-268.01 167.06,-258.27"/>
<polygon fill="#cccccc" stroke="#cccccc" points="171.82,-252.71 169.5,-260.6 170.17,-254.64 166.94,-258.41 166.94,-258.41 166.94,-258.41 170.17,-254.64 164.37,-256.21 171.82,-252.71"/>
</g>
<!-- home.njk&#45;&gt;base.njk -->
<g id="edge19" class="edge">
<title>home.njk&#45;&gt;base.njk</title>
<path fill="none" stroke="black" d="M187,-216.15C187,-191.49 187,-145.37 187,-116.53"/>
<polygon fill="black" stroke="black" points="187,-109.04 190.38,-116.54 187,-111.57 187,-116.54 187,-116.54 187,-116.54 187,-111.57 183.63,-116.54 187,-109.04"/>
</g>
<!-- content folder&#45;&gt;blog folder -->
<g id="edge9" class="edge">
<title>content folder&#45;&gt;blog folder</title>
<path fill="none" stroke="#cccccc" stroke-dasharray="5,2" d="M356.19,-361.75C382.36,-351.25 417.84,-336.92 449,-324 449.37,-323.85 449.73,-323.7 450.1,-323.54"/>
<polygon fill="#cccccc" stroke="#cccccc" points="456.89,-320.7 451.27,-326.71 454.55,-321.68 449.97,-323.6 449.97,-323.6 449.97,-323.6 454.55,-321.68 448.67,-320.48 456.89,-320.7"/>
</g>
<!-- content folder&#45;&gt;blog.njk -->
<g id="edge10" class="edge">
<title>content folder&#45;&gt;blog.njk</title>
<path fill="none" stroke="#cccccc" stroke-dasharray="5,2" d="M279.98,-365.31C248.33,-355.27 202.27,-339.93 163,-324 162.63,-323.85 162.26,-323.7 161.89,-323.55"/>
<polygon fill="#cccccc" stroke="#cccccc" points="155.1,-320.62 163.33,-320.49 157.43,-321.62 161.99,-323.59 161.99,-323.59 161.99,-323.59 157.43,-321.62 160.65,-326.69 155.1,-320.62"/>
</g>
<!-- index.njk -->
<g id="node13" class="node">
<title>index.njk</title>
<polygon fill="white" stroke="none" points="345.73,-324 290.27,-324 290.27,-288 345.73,-288 345.73,-324"/>
<text xml:space="preserve" text-anchor="middle" x="318" y="-303" font-family="Helvetica,sans-Serif" font-size="10.00">index.njk</text>
</g>
<!-- content folder&#45;&gt;index.njk -->
<g id="edge11" class="edge">
<title>content folder&#45;&gt;index.njk</title>
<path fill="none" stroke="#cccccc" stroke-dasharray="5,2" d="M318,-360.05C318,-351.71 318,-341.49 318,-332.25"/>
<polygon fill="#cccccc" stroke="#cccccc" points="318,-325.01 321.38,-332.51 318,-327.54 318,-332.51 318,-332.51 318,-332.51 318,-327.54 314.63,-332.51 318,-325.01"/>
</g>
<!-- content.11tydata.js -->
<g id="node14" class="node">
<title>content.11tydata.js</title>
<polygon fill="white" stroke="none" points="271.97,-324 172.03,-324 172.03,-288 271.97,-288 271.97,-324"/>
<text xml:space="preserve" text-anchor="middle" x="222" y="-303" font-family="Helvetica,sans-Serif" font-size="10.00">content.11tydata.js</text>
</g>
<!-- content folder&#45;&gt;content.11tydata.js -->
<g id="edge12" class="edge">
<title>content folder&#45;&gt;content.11tydata.js</title>
<path fill="none" stroke="#cccccc" stroke-dasharray="5,2" d="M294.76,-360.05C281.91,-350.68 265.79,-338.93 252,-328.87"/>
<polygon fill="#cccccc" stroke="#cccccc" points="246.01,-324.51 254.06,-326.2 248.05,-326 252.07,-328.93 252.07,-328.93 252.07,-328.93 248.05,-326 250.08,-331.65 246.01,-324.51"/>
</g>
<!-- sitemap.xml.njk -->
<g id="node15" class="node">
<title>sitemap.xml.njk</title>
<polygon fill="white" stroke="none" points="572.45,-180 487.55,-180 487.55,-144 572.45,-144 572.45,-180"/>
<text xml:space="preserve" text-anchor="middle" x="530" y="-159" font-family="Helvetica,sans-Serif" font-size="10.00">sitemap.xml.njk</text>
</g>
<!-- content folder&#45;&gt;sitemap.xml.njk -->
<g id="edge13" class="edge">
<title>content folder&#45;&gt;sitemap.xml.njk</title>
<path fill="none" stroke="#cccccc" stroke-dasharray="5,2" d="M356.29,-372.94C411.16,-366.25 507.9,-350.89 529,-324 559.71,-284.88 548.21,-222.37 538.35,-187.88"/>
<polygon fill="#cccccc" stroke="#cccccc" points="536.25,-180.91 541.64,-187.12 536.98,-183.33 538.41,-188.09 538.41,-188.09 538.41,-188.09 536.98,-183.33 535.18,-189.06 536.25,-180.91"/>
</g>
<!-- tags.njk -->
<g id="node16" class="node">
<title>tags.njk</title>
<polygon fill="white" stroke="none" points="82,-324 28,-324 28,-288 82,-288 82,-324"/>
<text xml:space="preserve" text-anchor="middle" x="55" y="-303" font-family="Helvetica,sans-Serif" font-size="10.00">tags.njk</text>
</g>
<!-- content folder&#45;&gt;tags.njk -->
<g id="edge14" class="edge">
<title>content folder&#45;&gt;tags.njk</title>
<path fill="none" stroke="#cccccc" stroke-dasharray="5,2" d="M279.95,-370.67C234.29,-362.49 155.78,-346.57 91,-324 90.62,-323.87 90.25,-323.74 89.87,-323.6"/>
<polygon fill="#cccccc" stroke="#cccccc" points="83,-320.89 91.22,-320.5 85.36,-321.82 89.98,-323.64 89.98,-323.64 89.98,-323.64 85.36,-321.82 88.74,-326.78 83,-320.89"/>
</g>
<!-- tag&#45;pages.njk -->
<g id="node17" class="node">
<title>tag&#45;pages.njk</title>
<polygon fill="white" stroke="none" points="440.02,-324 363.98,-324 363.98,-288 440.02,-288 440.02,-324"/>
<text xml:space="preserve" text-anchor="middle" x="402" y="-303" font-family="Helvetica,sans-Serif" font-size="10.00">tag&#45;pages.njk</text>
</g>
<!-- content folder&#45;&gt;tag&#45;pages.njk -->
<g id="edge15" class="edge">
<title>content folder&#45;&gt;tag&#45;pages.njk</title>
<path fill="none" stroke="#cccccc" stroke-dasharray="5,2" d="M338.33,-360.05C349.48,-350.77 363.42,-339.15 375.42,-329.15"/>
<polygon fill="#cccccc" stroke="#cccccc" points="380.92,-324.57 377.32,-331.96 378.97,-326.19 375.16,-329.37 375.16,-329.37 375.16,-329.37 378.97,-326.19 372.99,-326.78 380.92,-324.57"/>
</g>
<!-- index.njk&#45;&gt;home.njk -->
<g id="edge21" class="edge">
<title>index.njk&#45;&gt;home.njk</title>
<path fill="none" stroke="#cccccc" stroke-dasharray="5,2" d="M290.54,-290.33C270.76,-279.76 243.9,-265.4 222.49,-253.97"/>
<polygon fill="#cccccc" stroke="#cccccc" points="215.95,-250.47 224.16,-251.03 218.18,-251.66 222.57,-254 222.57,-254 222.57,-254 218.18,-251.66 220.98,-256.98 215.95,-250.47"/>
</g>
<!-- index.njk&#45;&gt;filters.js -->
<g id="edge20" class="edge">
<title>index.njk&#45;&gt;filters.js</title>
<path fill="none" stroke="#cccccc" stroke-dasharray="5,2" d="M305.52,-288.41C285.36,-259.58 249.13,-198.13 262,-144 270.97,-106.29 293.22,-67.05 308.72,-42.82"/>
<polygon fill="#cccccc" stroke="#cccccc" points="312.62,-36.82 311.36,-44.95 311.24,-38.94 308.53,-43.11 308.53,-43.11 308.53,-43.11 311.24,-38.94 305.7,-41.26 312.62,-36.82"/>
</g>
<!-- index.njk&#45;&gt;postslist.njk -->
<g id="edge22" class="edge">
<title>index.njk&#45;&gt;postslist.njk</title>
<path fill="none" stroke="black" d="M320.98,-288.21C327.63,-250.78 343.69,-160.35 351.53,-116.16"/>
<polygon fill="black" stroke="black" points="352.82,-108.91 354.83,-116.89 352.38,-111.41 351.51,-116.3 351.51,-116.3 351.51,-116.3 352.38,-111.41 348.18,-115.71 352.82,-108.91"/>
</g>
<!-- content.11tydata.js&#45;&gt;home.njk -->
<g id="edge16" class="edge">
<title>content.11tydata.js&#45;&gt;home.njk</title>
<path fill="none" stroke="black" d="M213.53,-288.05C209.23,-279.46 203.93,-268.86 199.2,-259.4"/>
<polygon fill="black" stroke="black" points="195.94,-252.88 202.31,-258.08 197.07,-255.14 199.29,-259.59 199.29,-259.59 199.29,-259.59 197.07,-255.14 196.27,-261.1 195.94,-252.88"/>
</g>
<!-- sitemap.xml.njk&#45;&gt;filters.js -->
<g id="edge27" class="edge">
<title>sitemap.xml.njk&#45;&gt;filters.js</title>
<path fill="none" stroke="#cccccc" stroke-dasharray="5,2" d="M505.68,-144.15C468.46,-118.37 397.38,-69.14 356.34,-40.71"/>
<polygon fill="#cccccc" stroke="#cccccc" points="350.29,-36.52 358.38,-38.02 352.37,-37.96 356.46,-40.79 356.46,-40.79 356.46,-40.79 352.37,-37.96 354.53,-43.56 350.29,-36.52"/>
</g>
<!-- tags.njk&#45;&gt;home.njk -->
<g id="edge31" class="edge">
<title>tags.njk&#45;&gt;home.njk</title>
<path fill="none" stroke="#cccccc" stroke-dasharray="5,2" d="M81.71,-290.83C101.79,-280.19 129.51,-265.49 151.46,-253.85"/>
<polygon fill="#cccccc" stroke="#cccccc" points="157.88,-250.44 152.84,-256.94 155.65,-251.63 151.26,-253.95 151.26,-253.95 151.26,-253.95 155.65,-251.63 149.68,-250.97 157.88,-250.44"/>
</g>
<!-- tags.njk&#45;&gt;filters.js -->
<g id="edge30" class="edge">
<title>tags.njk&#45;&gt;filters.js</title>
<path fill="none" stroke="#cccccc" stroke-dasharray="5,2" d="M57.01,-288.13C63,-245.45 84.64,-132.33 151,-72 189.78,-36.75 251.4,-24.93 289.95,-20.97"/>
<polygon fill="#cccccc" stroke="#cccccc" points="297.07,-20.32 289.91,-24.37 294.55,-20.55 289.6,-21.01 289.6,-21.01 289.6,-21.01 294.55,-20.55 289.29,-17.65 297.07,-20.32"/>
</g>
<!-- tag&#45;pages.njk&#45;&gt;home.njk -->
<g id="edge29" class="edge">
<title>tag&#45;pages.njk&#45;&gt;home.njk</title>
<path fill="none" stroke="#cccccc" stroke-dasharray="5,2" d="M364.08,-291.13C361.02,-290.06 357.96,-289 355,-288 309.87,-272.73 257.45,-256.41 223.32,-245.98"/>
<polygon fill="#cccccc" stroke="#cccccc" points="216.22,-243.82 224.38,-242.78 218.64,-244.56 223.4,-246.01 223.4,-246.01 223.4,-246.01 218.64,-244.56 222.41,-249.23 216.22,-243.82"/>
</g>
<!-- tag&#45;pages.njk&#45;&gt;postslist.njk -->
<g id="edge28" class="edge">
<title>tag&#45;pages.njk&#45;&gt;postslist.njk</title>
<path fill="none" stroke="black" d="M418.48,-288.46C426.99,-278.73 436.51,-265.68 441,-252 445.99,-236.8 445.71,-231.29 441,-216 428.72,-176.11 398.89,-137.54 378.06,-114.04"/>
<polygon fill="black" stroke="black" points="373.26,-108.73 380.79,-112.03 374.96,-110.61 378.29,-114.29 378.29,-114.29 378.29,-114.29 374.96,-110.61 375.78,-116.56 373.26,-108.73"/>
</g>
<!-- postslist.njk&#45;&gt;filters.js -->
<g id="edge26" class="edge">
<title>postslist.njk&#45;&gt;filters.js</title>
<path fill="none" stroke="#cccccc" stroke-dasharray="5,2" d="M348.5,-72.05C344.73,-63.54 340.09,-53.07 335.93,-43.68"/>
<polygon fill="#cccccc" stroke="#cccccc" points="332.93,-36.9 339.05,-42.39 333.95,-39.22 335.97,-43.76 335.97,-43.76 335.97,-43.76 333.95,-39.22 332.88,-45.13 332.93,-36.9"/>
</g>
</g>
</svg>
