<?xml version="1.0" encoding="UTF-8" standalone="no"?>
<!DOCTYPE svg PUBLIC "-//W3C//DTD SVG 1.1//EN"
 "http://www.w3.org/Graphics/SVG/1.1/DTD/svg11.dtd">
<!-- Generated by graphviz version 14.1.3 (0)
 -->
<!-- Title: g Pages: 1 -->
<svg width="793pt" height="188pt"
 viewBox="0.00 0.00 793.00 188.00" xmlns="http://www.w3.org/2000/svg" xmlns:xlink="http://www.w3.org/1999/xlink">
<g id="graph0" class="graph" transform="scale(1 1) rotate(0) translate(4 184)">
<title>g</title>
<polygon fill="white" stroke="none" points="-4,4 -4,-184 788.75,-184 788.75,4 -4,4"/>
<!-- build script -->
<g id="node1" class="node">
<title>build script</title>
<polygon fill="white" stroke="none" points="63.8,-180 0,-180 0,-144 63.8,-144 63.8,-180"/>
<text xml:space="preserve" text-anchor="middle" x="31.9" y="-159" font-family="Helvetica,sans-Serif" font-size="10.00">build script</text>
</g>
<!-- Eleventy -->
<g id="node2" class="node">
<title>Eleventy</title>
<polygon fill="white" stroke="none" points="59.08,-108 4.72,-108 4.72,-72 59.08,-72 59.08,-108"/>
<text xml:space="preserve" text-anchor="middle" x="31.9" y="-87" font-family="Helvetica,sans-Serif" font-size="10.00">Eleventy</text>
</g>
<!-- build script&#45;&gt;Eleventy -->
<g id="edge1" class="edge">
<title>build script&#45;&gt;Eleventy</title>
<path fill="none" stroke="black" d="M31.9,-144.05C31.9,-135.71 31.9,-125.49 31.9,-116.25"/>
<polygon fill="black" stroke="black" points="31.9,-109.01 35.27,-116.51 31.9,-111.54 31.9,-116.51 31.9,-116.51 31.9,-116.51 31.9,-111.54 28.52,-116.51 31.9,-109.01"/>
</g>
<!-- blog.11tydata.js -->
<g id="node3" class="node">
<title>blog.11tydata.js</title>
<polygon fill="white" stroke="none" points="285.92,-180 199.87,-180 199.87,-144 285.92,-144 285.92,-180"/>
<text xml:space="preserve" text-anchor="middle" x="242.9" y="-159" font-family="Helvetica,sans-Serif" font-size="10.00">blog.11tydata.js</text>
</g>
<!-- post.njk -->
<g id="node4" class="node">
<title>post.njk</title>
<polygon fill="white" stroke="none" points="259.9,-108 205.9,-108 205.9,-72 259.9,-72 259.9,-108"/>
<text xml:space="preserve" text-anchor="middle" x="232.9" y="-87" font-family="Helvetica,sans-Serif" font-size="10.00">post.njk</text>
</g>
<!-- blog.11tydata.js&#45;&gt;post.njk -->
<g id="edge2" class="edge">
<title>blog.11tydata.js&#45;&gt;post.njk</title>
<path fill="none" stroke="black" d="M240.48,-144.05C239.29,-135.71 237.83,-125.49 236.51,-116.25"/>
<polygon fill="black" stroke="black" points="235.47,-109 239.87,-115.94 235.83,-111.5 236.53,-116.42 236.53,-116.42 236.53,-116.42 235.83,-111.5 233.19,-116.9 235.47,-109"/>
</g>
<!-- base.njk -->
<g id="node12" class="node">
<title>base.njk</title>
<polygon fill="white" stroke="none" points="220.9,-36 166.9,-36 166.9,0 220.9,0 220.9,-36"/>
<text xml:space="preserve" text-anchor="middle" x="193.9" y="-15" font-family="Helvetica,sans-Serif" font-size="10.00">base.njk</text>
</g>
<!-- post.njk&#45;&gt;base.njk -->
<g id="edge8" class="edge">
<title>post.njk&#45;&gt;base.njk</title>
<path fill="none" stroke="black" d="M223.46,-72.05C218.67,-63.46 212.76,-52.86 207.49,-43.4"/>
<polygon fill="black" stroke="black" points="203.85,-36.85 210.44,-41.76 205.08,-39.06 207.5,-43.41 207.5,-43.41 207.5,-43.41 205.08,-39.06 204.55,-45.05 203.85,-36.85"/>
</g>
<!-- postslist.njk -->
<g id="node14" class="node">
<title>postslist.njk</title>
<polygon fill="white" stroke="none" points="339.74,-36 272.06,-36 272.06,0 339.74,0 339.74,-36"/>
<text xml:space="preserve" text-anchor="middle" x="305.9" y="-15" font-family="Helvetica,sans-Serif" font-size="10.00">postslist.njk</text>
</g>
<!-- post.njk&#45;&gt;postslist.njk -->
<g id="edge9" class="edge">
<title>post.njk&#45;&gt;postslist.njk</title>
<path fill="none" stroke="black" d="M250.57,-72.05C260.07,-62.94 271.93,-51.58 282.22,-41.71"/>
<polygon fill="black" stroke="black" points="287.51,-36.63 284.43,-44.26 285.68,-38.38 282.1,-41.82 282.1,-41.82 282.1,-41.82 285.68,-38.38 279.76,-39.39 287.51,-36.63"/>
</g>
<!-- blog.njk -->
<g id="node5" class="node">
<title>blog.njk</title>
<polygon fill="white" stroke="none" points="438.9,-180 384.9,-180 384.9,-144 438.9,-144 438.9,-180"/>
<text xml:space="preserve" text-anchor="middle" x="411.9" y="-159" font-family="Helvetica,sans-Serif" font-size="10.00">blog.njk</text>
</g>
<!-- content.11tydata.js -->
<g id="node6" class="node">
<title>content.11tydata.js</title>
<polygon fill="white" stroke="none" points="181.87,-180 81.93,-180 81.93,-144 181.87,-144 181.87,-180"/>
<text xml:space="preserve" text-anchor="middle" x="131.9" y="-159" font-family="Helvetica,sans-Serif" font-size="10.00">content.11tydata.js</text>
</g>
<!-- home.njk -->
<g id="node7" class="node">
<title>home.njk</title>
<polygon fill="white" stroke="none" points="169.19,-108 112.61,-108 112.61,-72 169.19,-72 169.19,-108"/>
<text xml:space="preserve" text-anchor="middle" x="140.9" y="-87" font-family="Helvetica,sans-Serif" font-size="10.00">home.njk</text>
</g>
<!-- content.11tydata.js&#45;&gt;home.njk -->
<g id="edge3" class="edge">
<title>content.11tydata.js&#45;&gt;home.njk</title>
<path fill="none" stroke="black" d="M134.08,-144.05C135.15,-135.71 136.46,-125.49 137.65,-116.25"/>
<polygon fill="black" stroke="black" points="138.58,-109 140.98,-116.87 138.26,-111.51 137.63,-116.44 137.63,-116.44 137.63,-116.44 138.26,-111.51 134.28,-116.01 138.58,-109"/>
</g>
<!-- home.njk&#45;&gt;base.njk -->
<g id="edge6" class="edge">
<title>home.njk&#45;&gt;base.njk</title>
<path fill="none" stroke="black" d="M153.73,-72.05C160.43,-63.2 168.75,-52.22 176.07,-42.55"/>
<polygon fill="black" stroke="black" points="180.45,-36.76 178.62,-44.78 178.92,-38.78 175.92,-42.74 175.92,-42.74 175.92,-42.74 178.92,-38.78 173.23,-40.7 180.45,-36.76"/>
</g>
<!-- eleventy.config.js -->
<g id="node8" class="node">
<title>eleventy.config.js</title>
<polygon fill="white" stroke="none" points="560.25,-180 467.54,-180 467.54,-144 560.25,-144 560.25,-180"/>
<text xml:space="preserve" text-anchor="middle" x="513.9" y="-159" font-family="Helvetica,sans-Serif" font-size="10.00">eleventy.config.js</text>
</g>
<!-- filters.js -->
<g id="node9" class="node">
<title>filters.js</title>
<polygon fill="white" stroke="none" points="499.9,-108 445.9,-108 445.9,-72 499.9,-72 499.9,-108"/>
<text xml:space="preserve" text-anchor="middle" x="472.9" y="-87" font-family="Helvetica,sans-Serif" font-size="10.00">filters.js</text>
</g>
<!-- eleventy.config.js&#45;&gt;filters.js -->
<g id="edge4" class="edge">
<title>eleventy.config.js&#45;&gt;filters.js</title>
<path fill="none" stroke="black" d="M503.97,-144.05C498.89,-135.37 492.6,-124.64 487.02,-115.11"/>
<polygon fill="black" stroke="black" points="483.35,-108.84 490.05,-113.61 484.63,-111.02 487.14,-115.31 487.14,-115.31 487.14,-115.31 484.63,-111.02 484.23,-117.02 483.35,-108.84"/>
</g>
<!-- content folder -->
<g id="node10" class="node">
<title>content folder</title>
<polygon fill="white" stroke="none" points="594.2,-108 517.6,-108 517.6,-72 594.2,-72 594.2,-108"/>
<text xml:space="preserve" text-anchor="middle" x="555.9" y="-87" font-family="Helvetica,sans-Serif" font-size="10.00">content folder</text>
</g>
<!-- eleventy.config.js&#45;&gt;content folder -->
<g id="edge5" class="edge">
<title>eleventy.config.js&#45;&gt;content folder</title>
<path fill="none" stroke="black" d="M524.07,-144.05C529.28,-135.37 535.71,-124.64 541.43,-115.11"/>
<polygon fill="black" stroke="black" points="545.2,-108.83 544.23,-117 543.9,-111 541.34,-115.27 541.34,-115.27 541.34,-115.27 543.9,-111 538.45,-113.53 545.2,-108.83"/>
</g>
<!-- eleventyDataSchema.js -->
<g id="node11" class="node">
<title>eleventyDataSchema.js</title>
<polygon fill="white" stroke="none" points="699.43,-180 578.37,-180 578.37,-144 699.43,-144 699.43,-180"/>
<text xml:space="preserve" text-anchor="middle" x="638.9" y="-159" font-family="Helvetica,sans-Serif" font-size="10.00">eleventyDataSchema.js</text>
</g>
<!-- index.njk -->
<g id="node13" class="node">
<title>index.njk</title>
<polygon fill="white" stroke="none" points="333.63,-108 278.17,-108 278.17,-72 333.63,-72 333.63,-108"/>
<text xml:space="preserve" text-anchor="middle" x="305.9" y="-87" font-family="Helvetica,sans-Serif" font-size="10.00">index.njk</text>
</g>
<!-- index.njk&#45;&gt;postslist.njk -->
<g id="edge7" class="edge">
<title>index.njk&#45;&gt;postslist.njk</title>
<path fill="none" stroke="black" d="M305.9,-72.05C305.9,-63.71 305.9,-53.49 305.9,-44.25"/>
<polygon fill="black" stroke="black" points="305.9,-37.01 309.27,-44.51 305.9,-39.54 305.9,-44.51 305.9,-44.51 305.9,-44.51 305.9,-39.54 302.52,-44.51 305.9,-37.01"/>
</g>
<!-- metadata.js -->
<g id="node15" class="node">
<title>metadata.js</title>
<polygon fill="white" stroke="none" points="784.75,-180 717.05,-180 717.05,-144 784.75,-144 784.75,-180"/>
<text xml:space="preserve" text-anchor="middle" x="750.9" y="-159" font-family="Helvetica,sans-Serif" font-size="10.00">metadata.js</text>
</g>
<!-- tag&#45;pages.njk -->
<g id="node16" class="node">
<title>tag&#45;pages.njk</title>
<polygon fill="white" stroke="none" points="427.92,-108 351.88,-108 351.88,-72 427.92,-72 427.92,-108"/>
<text xml:space="preserve" text-anchor="middle" x="389.9" y="-87" font-family="Helvetica,sans-Serif" font-size="10.00">tag&#45;pages.njk</text>
</g>
<!-- tag&#45;pages.njk&#45;&gt;postslist.njk -->
<g id="edge10" class="edge">
<title>tag&#45;pages.njk&#45;&gt;postslist.njk</title>
<path fill="none" stroke="black" d="M369.56,-72.05C358.42,-62.77 344.48,-51.15 332.48,-41.15"/>
<polygon fill="black" stroke="black" points="326.98,-36.57 334.9,-38.78 328.93,-38.19 332.74,-41.37 332.74,-41.37 332.74,-41.37 328.93,-38.19 330.58,-43.96 326.98,-36.57"/>
</g>
</g>
</svg>
