<?xml version="1.0" encoding="UTF-8" standalone="no"?>
<!DOCTYPE svg PUBLIC "-//W3C//DTD SVG 1.1//EN"
 "http://www.w3.org/Graphics/SVG/1.1/DTD/svg11.dtd">
<!-- Generated by graphviz version 14.1.3 (0)
 -->
<!-- Title: g Pages: 1 -->
<svg width="684pt" height="332pt"
 viewBox="0.00 0.00 684.00 332.00" xmlns="http://www.w3.org/2000/svg" xmlns:xlink="http://www.w3.org/1999/xlink">
<g id="graph0" class="graph" transform="scale(1 1) rotate(0) translate(4 328)">
<title>g</title>
<polygon fill="white" stroke="none" points="-4,4 -4,-328 679.65,-328 679.65,4 -4,4"/>
<!-- build script -->
<g id="node1" class="node">
<title>build script</title>
<polygon fill="white" stroke="none" points="391.55,-324 327.75,-324 327.75,-288 391.55,-288 391.55,-324"/>
<text xml:space="preserve" text-anchor="middle" x="359.65" y="-303" font-family="Helvetica,sans-Serif" font-size="10.00">build script</text>
</g>
<!-- Origami -->
<g id="node2" class="node">
<title>Origami</title>
<polygon fill="white" stroke="none" points="350.65,-252 296.65,-252 296.65,-216 350.65,-216 350.65,-252"/>
<text xml:space="preserve" text-anchor="middle" x="323.65" y="-231" font-family="Helvetica,sans-Serif" font-size="10.00">Origami</text>
</g>
<!-- build script&#45;&gt;Origami -->
<g id="edge1" class="edge">
<title>build script&#45;&gt;Origami</title>
<path fill="none" stroke="black" d="M350.93,-288.05C346.51,-279.46 341.06,-268.86 336.2,-259.4"/>
<polygon fill="black" stroke="black" points="332.84,-252.87 339.27,-258 334,-255.12 336.27,-259.54 336.27,-259.54 336.27,-259.54 334,-255.12 333.27,-261.09 332.84,-252.87"/>
</g>
<!-- site.ori -->
<g id="node3" class="node">
<title>site.ori</title>
<polygon fill="white" stroke="none" points="422.65,-252 368.65,-252 368.65,-216 422.65,-216 422.65,-252"/>
<text xml:space="preserve" text-anchor="middle" x="395.65" y="-231" font-family="Helvetica,sans-Serif" font-size="10.00">site.ori</text>
</g>
<!-- build script&#45;&gt;site.ori -->
<g id="edge2" class="edge">
<title>build script&#45;&gt;site.ori</title>
<path fill="none" stroke="black" d="M368.36,-288.05C372.78,-279.46 378.24,-268.86 383.1,-259.4"/>
<polygon fill="black" stroke="black" points="386.46,-252.87 386.03,-261.09 385.3,-255.12 383.03,-259.54 383.03,-259.54 383.03,-259.54 385.3,-255.12 380.03,-258 386.46,-252.87"/>
</g>
<!-- base.ori.html -->
<g id="node4" class="node">
<title>base.ori.html</title>
<polygon fill="white" stroke="none" points="282.27,-108 209.03,-108 209.03,-72 282.27,-72 282.27,-108"/>
<text xml:space="preserve" text-anchor="middle" x="245.65" y="-87" font-family="Helvetica,sans-Serif" font-size="10.00">base.ori.html</text>
</g>
<!-- site.ori&#45;&gt;base.ori.html -->
<g id="edge3" class="edge">
<title>site.ori&#45;&gt;base.ori.html</title>
<path fill="none" stroke="black" d="M422.57,-227.44C447.19,-220.78 482.2,-206.95 498.65,-180 506.98,-166.34 508.74,-156.42 498.65,-144 472.92,-112.33 356.1,-98.91 290.57,-93.79"/>
<polygon fill="black" stroke="black" points="283.28,-93.24 291.01,-90.44 285.81,-93.43 290.76,-93.81 290.76,-93.81 290.76,-93.81 285.81,-93.43 290.51,-97.17 283.28,-93.24"/>
</g>
<!-- blogIndex.ori.html -->
<g id="node5" class="node">
<title>blogIndex.ori.html</title>
<polygon fill="white" stroke="none" points="293.11,-180 198.18,-180 198.18,-144 293.11,-144 293.11,-180"/>
<text xml:space="preserve" text-anchor="middle" x="245.65" y="-159" font-family="Helvetica,sans-Serif" font-size="10.00">blogIndex.ori.html</text>
</g>
<!-- site.ori&#45;&gt;blogIndex.ori.html -->
<g id="edge4" class="edge">
<title>site.ori&#45;&gt;blogIndex.ori.html</title>
<path fill="none" stroke="black" d="M368.92,-220.36C365.8,-218.89 362.65,-217.41 359.65,-216 336.69,-205.24 311.1,-193.34 289.98,-183.54"/>
<polygon fill="black" stroke="black" points="283.23,-180.4 291.46,-180.5 285.53,-181.47 290.03,-183.56 290.03,-183.56 290.03,-183.56 285.53,-181.47 288.61,-186.62 283.23,-180.4"/>
</g>
<!-- feed.ori -->
<g id="node6" class="node">
<title>feed.ori</title>
<polygon fill="white" stroke="none" points="478.65,-108 424.65,-108 424.65,-72 478.65,-72 478.65,-108"/>
<text xml:space="preserve" text-anchor="middle" x="451.65" y="-87" font-family="Helvetica,sans-Serif" font-size="10.00">feed.ori</text>
</g>
<!-- site.ori&#45;&gt;feed.ori -->
<g id="edge5" class="edge">
<title>site.ori&#45;&gt;feed.ori</title>
<path fill="none" stroke="black" d="M422.58,-231.18C454.73,-227.4 507.2,-215.77 531.65,-180 540.68,-166.79 539.22,-158.1 531.65,-144 521.94,-125.93 503.06,-112.98 486.08,-104.4"/>
<polygon fill="black" stroke="black" points="479.55,-101.29 487.78,-101.47 481.84,-102.38 486.32,-104.52 486.32,-104.52 486.32,-104.52 481.84,-102.38 484.87,-107.57 479.55,-101.29"/>
</g>
<!-- index.ori.html -->
<g id="node7" class="node">
<title>index.ori.html</title>
<polygon fill="white" stroke="none" points="97.38,-180 21.91,-180 21.91,-144 97.38,-144 97.38,-180"/>
<text xml:space="preserve" text-anchor="middle" x="59.65" y="-159" font-family="Helvetica,sans-Serif" font-size="10.00">index.ori.html</text>
</g>
<!-- site.ori&#45;&gt;index.ori.html -->
<g id="edge6" class="edge">
<title>site.ori&#45;&gt;index.ori.html</title>
<path fill="none" stroke="black" d="M368.87,-219.29C365.81,-218.05 362.69,-216.91 359.65,-216 252.98,-184.06 217.84,-206.8 105.57,-179.7"/>
<polygon fill="black" stroke="black" points="98.53,-177.95 106.63,-176.48 100.99,-178.56 105.81,-179.76 105.81,-179.76 105.81,-179.76 100.99,-178.56 105,-183.03 98.53,-177.95"/>
</g>
<!-- metadata.yaml -->
<g id="node8" class="node">
<title>metadata.yaml</title>
<polygon fill="white" stroke="none" points="188.44,-36 106.86,-36 106.86,0 188.44,0 188.44,-36"/>
<text xml:space="preserve" text-anchor="middle" x="147.65" y="-15" font-family="Helvetica,sans-Serif" font-size="10.00">metadata.yaml</text>
</g>
<!-- site.ori&#45;&gt;metadata.yaml -->
<g id="edge7" class="edge">
<title>site.ori&#45;&gt;metadata.yaml</title>
<path fill="none" stroke="black" d="M368.9,-219.18C365.83,-217.95 362.71,-216.86 359.65,-216 284.98,-195.15 64.56,-237.58 12.65,-180 -31.44,-131.1 53.76,-71.11 107.85,-39.99"/>
<polygon fill="black" stroke="black" points="114.2,-36.39 109.34,-43.02 112,-37.64 107.67,-40.09 107.67,-40.09 107.67,-40.09 112,-37.64 106.01,-37.15 114.2,-36.39"/>
</g>
<!-- post.ori.html -->
<g id="node9" class="node">
<title>post.ori.html</title>
<polygon fill="white" stroke="none" points="381.88,-180 311.42,-180 311.42,-144 381.88,-144 381.88,-180"/>
<text xml:space="preserve" text-anchor="middle" x="346.65" y="-159" font-family="Helvetica,sans-Serif" font-size="10.00">post.ori.html</text>
</g>
<!-- site.ori&#45;&gt;post.ori.html -->
<g id="edge8" class="edge">
<title>site.ori&#45;&gt;post.ori.html</title>
<path fill="none" stroke="black" d="M383.79,-216.05C377.65,-207.28 370.05,-196.43 363.33,-186.83"/>
<polygon fill="black" stroke="black" points="359.1,-180.79 366.17,-185 360.55,-182.86 363.4,-186.93 363.4,-186.93 363.4,-186.93 360.55,-182.86 360.64,-188.87 359.1,-180.79"/>
</g>
<!-- posts.ori -->
<g id="node10" class="node">
<title>posts.ori</title>
<polygon fill="white" stroke="none" points="647.65,-108 593.65,-108 593.65,-72 647.65,-72 647.65,-108"/>
<text xml:space="preserve" text-anchor="middle" x="620.65" y="-87" font-family="Helvetica,sans-Serif" font-size="10.00">posts.ori</text>
</g>
<!-- site.ori&#45;&gt;posts.ori -->
<g id="edge9" class="edge">
<title>site.ori&#45;&gt;posts.ori</title>
<path fill="none" stroke="black" d="M422.6,-228.37C454.9,-221.82 509.53,-207.46 548.65,-180 573.17,-162.79 593.78,-134.99 606.58,-115.04"/>
<polygon fill="black" stroke="black" points="610.45,-108.84 609.33,-116.99 609.11,-110.99 606.47,-115.2 606.47,-115.2 606.47,-115.2 609.11,-110.99 603.61,-113.42 610.45,-108.84"/>
</g>
<!-- tagIndex.ori.html -->
<g id="node11" class="node">
<title>tagIndex.ori.html</title>
<polygon fill="white" stroke="none" points="489.61,-180 399.69,-180 399.69,-144 489.61,-144 489.61,-180"/>
<text xml:space="preserve" text-anchor="middle" x="444.65" y="-159" font-family="Helvetica,sans-Serif" font-size="10.00">tagIndex.ori.html</text>
</g>
<!-- site.ori&#45;&gt;tagIndex.ori.html -->
<g id="edge10" class="edge">
<title>site.ori&#45;&gt;tagIndex.ori.html</title>
<path fill="none" stroke="black" d="M407.51,-216.05C413.65,-207.28 421.25,-196.43 427.97,-186.83"/>
<polygon fill="black" stroke="black" points="432.2,-180.79 430.66,-188.87 430.75,-182.86 427.9,-186.93 427.9,-186.93 427.9,-186.93 430.75,-182.86 425.13,-185 432.2,-180.79"/>
</g>
<!-- tag.ori.html -->
<g id="node12" class="node">
<title>tag.ori.html</title>
<polygon fill="white" stroke="none" points="180.38,-180 114.92,-180 114.92,-144 180.38,-144 180.38,-180"/>
<text xml:space="preserve" text-anchor="middle" x="147.65" y="-159" font-family="Helvetica,sans-Serif" font-size="10.00">tag.ori.html</text>
</g>
<!-- site.ori&#45;&gt;tag.ori.html -->
<g id="edge11" class="edge">
<title>site.ori&#45;&gt;tag.ori.html</title>
<path fill="none" stroke="black" d="M368.8,-219.5C365.75,-218.21 362.66,-217.02 359.65,-216 286.46,-191.34 263.51,-202.58 189.65,-180 189.15,-179.85 188.66,-179.69 188.16,-179.54"/>
<polygon fill="black" stroke="black" points="181.16,-177.15 189.35,-176.38 183.55,-177.96 188.25,-179.57 188.25,-179.57 188.25,-179.57 183.55,-177.96 187.16,-182.76 181.16,-177.15"/>
</g>
<!-- tags.ori -->
<g id="node13" class="node">
<title>tags.ori</title>
<polygon fill="white" stroke="none" points="675.65,-180 621.65,-180 621.65,-144 675.65,-144 675.65,-180"/>
<text xml:space="preserve" text-anchor="middle" x="648.65" y="-159" font-family="Helvetica,sans-Serif" font-size="10.00">tags.ori</text>
</g>
<!-- site.ori&#45;&gt;tags.ori -->
<g id="edge12" class="edge">
<title>site.ori&#45;&gt;tags.ori</title>
<path fill="none" stroke="black" d="M422.45,-227.63C463.03,-219.21 542.26,-201.6 607.65,-180 609.7,-179.32 611.79,-178.59 613.89,-177.82"/>
<polygon fill="black" stroke="black" points="620.82,-175.17 615.02,-181 618.45,-176.07 613.81,-177.85 613.81,-177.85 613.81,-177.85 618.45,-176.07 612.61,-174.7 620.82,-175.17"/>
</g>
<!-- base.ori.html&#45;&gt;metadata.yaml -->
<g id="edge13" class="edge">
<title>base.ori.html&#45;&gt;metadata.yaml</title>
<path fill="none" stroke="black" d="M221.93,-72.05C208.68,-62.6 192.05,-50.72 177.88,-40.6"/>
<polygon fill="black" stroke="black" points="172.14,-36.5 180.21,-38.11 174.2,-37.97 178.25,-40.86 178.25,-40.86 178.25,-40.86 174.2,-37.97 176.29,-43.6 172.14,-36.5"/>
</g>
<!-- blogIndex.ori.html&#45;&gt;base.ori.html -->
<g id="edge14" class="edge">
<title>blogIndex.ori.html&#45;&gt;base.ori.html</title>
<path fill="none" stroke="black" d="M245.65,-144.05C245.65,-135.71 245.65,-125.49 245.65,-116.25"/>
<polygon fill="black" stroke="black" points="245.65,-109.01 249.02,-116.51 245.65,-111.54 245.65,-116.51 245.65,-116.51 245.65,-116.51 245.65,-111.54 242.27,-116.51 245.65,-109.01"/>
</g>
<!-- postList.ori.html -->
<g id="node14" class="node">
<title>postList.ori.html</title>
<polygon fill="white" stroke="none" points="190.66,-108 104.64,-108 104.64,-72 190.66,-72 190.66,-108"/>
<text xml:space="preserve" text-anchor="middle" x="147.65" y="-87" font-family="Helvetica,sans-Serif" font-size="10.00">postList.ori.html</text>
</g>
<!-- blogIndex.ori.html&#45;&gt;postList.ori.html -->
<g id="edge15" class="edge">
<title>blogIndex.ori.html&#45;&gt;postList.ori.html</title>
<path fill="none" stroke="black" d="M221.93,-144.05C208.68,-134.6 192.05,-122.72 177.88,-112.6"/>
<polygon fill="black" stroke="black" points="172.14,-108.5 180.21,-110.11 174.2,-109.97 178.25,-112.86 178.25,-112.86 178.25,-112.86 174.2,-109.97 176.29,-115.6 172.14,-108.5"/>
</g>
<!-- feed.ori&#45;&gt;metadata.yaml -->
<g id="edge16" class="edge">
<title>feed.ori&#45;&gt;metadata.yaml</title>
<path fill="none" stroke="black" d="M424.67,-82.79C373.49,-71 261.65,-45.25 196.81,-30.32"/>
<polygon fill="black" stroke="black" points="189.56,-28.65 197.62,-27.04 192.03,-29.22 196.87,-30.33 196.87,-30.33 196.87,-30.33 192.03,-29.22 196.11,-33.62 189.56,-28.65"/>
</g>
<!-- index.ori.html&#45;&gt;base.ori.html -->
<g id="edge17" class="edge">
<title>index.ori.html&#45;&gt;base.ori.html</title>
<path fill="none" stroke="black" d="M97.29,-146.83C127.43,-135.49 169.77,-119.56 201.5,-107.61"/>
<polygon fill="black" stroke="black" points="208.19,-105.1 202.36,-110.9 205.82,-105.99 201.17,-107.74 201.17,-107.74 201.17,-107.74 205.82,-105.99 199.98,-104.58 208.19,-105.1"/>
</g>
<!-- index.ori.html&#45;&gt;metadata.yaml -->
<g id="edge19" class="edge">
<title>index.ori.html&#45;&gt;metadata.yaml</title>
<path fill="none" stroke="black" d="M64.24,-144.31C69.85,-125.69 80.48,-95.14 95.65,-72 102.82,-61.05 112.49,-50.45 121.54,-41.64"/>
<polygon fill="black" stroke="black" points="126.79,-36.68 123.65,-44.29 124.95,-38.42 121.34,-41.83 121.34,-41.83 121.34,-41.83 124.95,-38.42 119.02,-39.38 126.79,-36.68"/>
</g>
<!-- index.ori.html&#45;&gt;postList.ori.html -->
<g id="edge18" class="edge">
<title>index.ori.html&#45;&gt;postList.ori.html</title>
<path fill="none" stroke="black" d="M80.95,-144.05C92.62,-134.77 107.23,-123.15 119.8,-113.15"/>
<polygon fill="black" stroke="black" points="125.59,-108.55 121.82,-115.86 123.61,-110.12 119.72,-113.22 119.72,-113.22 119.72,-113.22 123.61,-110.12 117.62,-110.58 125.59,-108.55"/>
</g>
<!-- post.ori.html&#45;&gt;base.ori.html -->
<g id="edge20" class="edge">
<title>post.ori.html&#45;&gt;base.ori.html</title>
<path fill="none" stroke="black" d="M322.2,-144.05C308.55,-134.6 291.41,-122.72 276.81,-112.6"/>
<polygon fill="black" stroke="black" points="270.87,-108.48 278.96,-109.98 272.95,-109.93 277.04,-112.76 277.04,-112.76 277.04,-112.76 272.95,-109.93 275.12,-115.53 270.87,-108.48"/>
</g>
<!-- images.ori -->
<g id="node15" class="node">
<title>images.ori</title>
<polygon fill="white" stroke="none" points="651.71,-36 589.58,-36 589.58,0 651.71,0 651.71,-36"/>
<text xml:space="preserve" text-anchor="middle" x="620.65" y="-15" font-family="Helvetica,sans-Serif" font-size="10.00">images.ori</text>
</g>
<!-- posts.ori&#45;&gt;images.ori -->
<g id="edge22" class="edge">
<title>posts.ori&#45;&gt;images.ori</title>
<path fill="none" stroke="black" d="M620.65,-72.05C620.65,-63.71 620.65,-53.49 620.65,-44.25"/>
<polygon fill="black" stroke="black" points="620.65,-37.01 624.02,-44.51 620.65,-39.54 620.65,-44.51 620.65,-44.51 620.65,-44.51 620.65,-39.54 617.27,-44.51 620.65,-37.01"/>
</g>
<!-- tagIndex.ori.html&#45;&gt;base.ori.html -->
<g id="edge25" class="edge">
<title>tagIndex.ori.html&#45;&gt;base.ori.html</title>
<path fill="none" stroke="black" d="M399.99,-145.29C367.24,-133.77 322.97,-118.2 290.23,-106.68"/>
<polygon fill="black" stroke="black" points="283.32,-104.25 291.52,-103.56 285.71,-105.09 290.4,-106.74 290.4,-106.74 290.4,-106.74 285.71,-105.09 289.28,-109.93 283.32,-104.25"/>
</g>
<!-- tag.ori.html&#45;&gt;base.ori.html -->
<g id="edge23" class="edge">
<title>tag.ori.html&#45;&gt;base.ori.html</title>
<path fill="none" stroke="black" d="M171.37,-144.05C184.61,-134.6 201.25,-122.72 215.41,-112.6"/>
<polygon fill="black" stroke="black" points="221.15,-108.5 217.01,-115.6 219.09,-109.97 215.05,-112.86 215.05,-112.86 215.05,-112.86 219.09,-109.97 213.09,-110.11 221.15,-108.5"/>
</g>
<!-- tag.ori.html&#45;&gt;postList.ori.html -->
<g id="edge24" class="edge">
<title>tag.ori.html&#45;&gt;postList.ori.html</title>
<path fill="none" stroke="black" d="M147.65,-144.05C147.65,-135.71 147.65,-125.49 147.65,-116.25"/>
<polygon fill="black" stroke="black" points="147.65,-109.01 151.02,-116.51 147.65,-111.54 147.65,-116.51 147.65,-116.51 147.65,-116.51 147.65,-111.54 144.27,-116.51 147.65,-109.01"/>
</g>
<!-- tags.ori&#45;&gt;posts.ori -->
<g id="edge26" class="edge">
<title>tags.ori&#45;&gt;posts.ori</title>
<path fill="none" stroke="black" d="M641.87,-144.05C638.47,-135.54 634.28,-125.07 630.52,-115.68"/>
<polygon fill="black" stroke="black" points="627.82,-108.92 633.74,-114.63 628.76,-111.27 630.6,-115.88 630.6,-115.88 630.6,-115.88 628.76,-111.27 627.47,-117.14 627.82,-108.92"/>
</g>
<!-- postList.ori.html&#45;&gt;metadata.yaml -->
<g id="edge21" class="edge">
<title>postList.ori.html&#45;&gt;metadata.yaml</title>
<path fill="none" stroke="black" d="M147.65,-72.05C147.65,-63.71 147.65,-53.49 147.65,-44.25"/>
<polygon fill="black" stroke="black" points="147.65,-37.01 151.02,-44.51 147.65,-39.54 147.65,-44.51 147.65,-44.51 147.65,-44.51 147.65,-39.54 144.27,-44.51 147.65,-37.01"/>
</g>
</g>
</svg>
