<?xml version="1.0" encoding="UTF-8" standalone="no"?>
<!DOCTYPE svg PUBLIC "-//W3C//DTD SVG 1.1//EN"
 "http://www.w3.org/Graphics/SVG/1.1/DTD/svg11.dtd">
<!-- Generated by graphviz version 14.1.2 (0)
 -->
<!-- Title: g Pages: 1 -->
<svg width="1060pt" height="1455pt"
 viewBox="0.00 0.00 1060.00 1455.00" xmlns="http://www.w3.org/2000/svg" xmlns:xlink="http://www.w3.org/1999/xlink">
<g id="graph0" class="graph" transform="scale(1 1) rotate(0) translate(4 1451)">
<title>g</title>
<g id="node1" class="node">
<title></title>
<g id="a_node1"><a xlink:href=".">
<ellipse fill="white" stroke="#666666" cx="5.4" cy="-493" rx="5.4" ry="5.4"/>
</a>
</g>
</g>
<!-- about/ -->
<g id="node2" class="node">
<title>about/</title>
<g id="a_node2"><a xlink:href="about/">
<ellipse fill="white" stroke="#666666" cx="280.48" cy="-1354" rx="5.4" ry="5.4"/>
</a>
</g>
</g>
<!-- &#45;&gt;about/ -->
<g id="edge1" class="edge">
<title>&#45;&gt;about/</title>
<path fill="none" stroke="#999999" d="M6.48,-498.77C7.44,-552.06 19.71,-962.57 172.14,-1242 197.42,-1288.33 246.88,-1329.35 268.7,-1346.05"/>
<polygon fill="#999999" stroke="#999999" points="274.42,-1350.33 266.4,-1348.54 272.4,-1348.81 268.42,-1345.83 268.42,-1345.83 268.42,-1345.83 272.4,-1348.81 270.44,-1343.13 274.42,-1350.33"/>
<g id="a_edge1&#45;label"><a xlink:href="about/" xlink:title="about/">
<text xml:space="preserve" text-anchor="middle" x="91.47" y="-1112.1" font-family="Helvetica,sans-Serif" font-size="10.00">about/</text>
</a>
</g>
</g>
<!-- assets/ -->
<g id="node4" class="node">
<title>assets/</title>
<g id="a_node4"><a xlink:href="assets/">
<ellipse fill="white" stroke="#666666" cx="280.48" cy="-1201" rx="5.4" ry="5.4"/>
</a>
</g>
</g>
<!-- &#45;&gt;assets/ -->
<g id="edge3" class="edge">
<title>&#45;&gt;assets/</title>
<path fill="none" stroke="#999999" d="M8.29,-497.9C30.39,-555.19 239.48,-1097.29 274.52,-1188.12"/>
<polygon fill="#999999" stroke="#999999" points="277.2,-1195.07 271.35,-1189.28 276.28,-1192.71 274.5,-1188.07 274.5,-1188.07 274.5,-1188.07 276.28,-1192.71 277.65,-1186.86 277.2,-1195.07"/>
<g id="a_edge3&#45;label"><a xlink:href="assets/" xlink:title="assets/">
<text xml:space="preserve" text-anchor="middle" x="91.47" y="-765.76" font-family="Helvetica,sans-Serif" font-size="10.00">assets/</text>
</a>
</g>
</g>
<!-- blog/ -->
<g id="node7" class="node">
<title>blog/</title>
<g id="a_node7"><a xlink:href="blog/">
<ellipse fill="white" stroke="#666666" cx="280.48" cy="-811" rx="5.4" ry="5.4"/>
</a>
</g>
</g>
<!-- &#45;&gt;blog/ -->
<g id="edge6" class="edge">
<title>&#45;&gt;blog/</title>
<path fill="none" stroke="#999999" d="M9.47,-496.57C36.05,-527.53 227.57,-750.55 270.82,-800.91"/>
<polygon fill="#999999" stroke="#999999" points="275.65,-806.53 268.2,-803.04 274,-804.61 270.76,-800.84 270.76,-800.84 270.76,-800.84 274,-804.61 273.32,-798.64 275.65,-806.53"/>
<g id="a_edge6&#45;label"><a xlink:href="blog/" xlink:title="blog/">
<text xml:space="preserve" text-anchor="middle" x="91.47" y="-617.17" font-family="Helvetica,sans-Serif" font-size="10.00">blog/</text>
</a>
</g>
</g>
<!-- feed/ -->
<g id="node20" class="node">
<title>feed/</title>
<g id="a_node20"><a xlink:href="feed/">
<ellipse fill="white" stroke="#666666" cx="280.48" cy="-544" rx="5.4" ry="5.4"/>
</a>
</g>
</g>
<!-- &#45;&gt;feed/ -->
<g id="edge19" class="edge">
<title>&#45;&gt;feed/</title>
<path fill="none" stroke="#999999" d="M11.14,-493.89C42.22,-499.69 217.12,-532.35 266.5,-541.58"/>
<polygon fill="#999999" stroke="#999999" points="273.84,-542.95 265.85,-544.89 271.35,-542.48 266.46,-541.57 266.46,-541.57 266.46,-541.57 271.35,-542.48 267.08,-538.25 273.84,-542.95"/>
<g id="a_edge19&#45;label"><a xlink:href="feed/" xlink:title="feed/">
<text xml:space="preserve" text-anchor="middle" x="91.47" y="-515.43" font-family="Helvetica,sans-Serif" font-size="10.00">feed/</text>
</a>
</g>
</g>
<!-- index.html -->
<g id="node22" class="node">
<title>index.html</title>
<g id="a_node22"><a xlink:href="index.html" xlink:title="...&lt;li class=&quot;nav&#45;item&quot;&gt;&lt;a href=&quot;/&quot; aria&#45;cu...\l">
<polygon fill="white" stroke="#b3b3b3" points="383.54,-467 177.43,-467 177.43,-431 383.54,-431 383.54,-467"/>
<text xml:space="preserve" text-anchor="start" x="185.43" y="-446" font-family="Helvetica,sans-Serif" font-size="10.00">...&lt;li class=&quot;nav&#45;item&quot;&gt;&lt;a href=&quot;/&quot; aria&#45;cu...</text>
</a>
</g>
</g>
<!-- &#45;&gt;index.html -->
<g id="edge21" class="edge">
<title>&#45;&gt;index.html</title>
<path fill="none" stroke="#999999" d="M9.57,-489.14C17.61,-479.71 39.92,-455.62 64.8,-447 97.35,-435.72 134.38,-432.85 168.41,-433.78"/>
<polygon fill="#999999" stroke="#999999" points="175.77,-434.05 168.15,-437.15 173.24,-433.96 168.28,-433.77 168.28,-433.77 168.28,-433.77 173.24,-433.96 168.4,-430.4 175.77,-434.05"/>
<g id="a_edge21&#45;label"><a xlink:href="index.html" xlink:title="index.html">
<text xml:space="preserve" text-anchor="middle" x="91.47" y="-450" font-family="Helvetica,sans-Serif" font-size="10.00">index.html</text>
</a>
</g>
</g>
<!-- tags/ -->
<g id="node23" class="node">
<title>tags/</title>
<g id="a_node23"><a xlink:href="tags/">
<ellipse fill="white" stroke="#666666" cx="280.48" cy="-349" rx="5.4" ry="5.4"/>
</a>
</g>
</g>
<!-- &#45;&gt;tags/ -->
<g id="edge22" class="edge">
<title>&#45;&gt;tags/</title>
<path fill="none" stroke="#999999" d="M8.2,-488.16C13.96,-473.36 33.4,-428.39 64.8,-406 129.94,-359.54 230.52,-350.95 266.3,-349.36"/>
<polygon fill="#999999" stroke="#999999" points="273.37,-349.11 265.99,-352.75 270.84,-349.2 265.87,-349.37 265.87,-349.37 265.87,-349.37 270.84,-349.2 265.76,-346 273.37,-349.11"/>
<g id="a_edge22&#45;label"><a xlink:href="tags/" xlink:title="tags/">
<text xml:space="preserve" text-anchor="middle" x="91.47" y="-409" font-family="Helvetica,sans-Serif" font-size="10.00">tags/</text>
</a>
</g>
</g>
<!-- 404.html -->
<g id="node33" class="node">
<title>404.html</title>
<g id="a_node33"><a xlink:href="404.html" xlink:title="...&lt;li class=&quot;nav&#45;item&quot;&gt;&lt;a href=&quot;/&quot; &gt;Home&lt;/...\l">
<polygon fill="white" stroke="#b3b3b3" points="388.82,-272 172.14,-272 172.14,-236 388.82,-236 388.82,-272"/>
<text xml:space="preserve" text-anchor="start" x="180.14" y="-251" font-family="Helvetica,sans-Serif" font-size="10.00">...&lt;li class=&quot;nav&#45;item&quot;&gt;&lt;a href=&quot;/&quot; &gt;Home&lt;/...</text>
</a>
</g>
</g>
<!-- &#45;&gt;404.html -->
<g id="edge32" class="edge">
<title>&#45;&gt;404.html</title>
<path fill="none" stroke="#999999" d="M7.11,-487.46C10.1,-466.44 23.41,-390.65 64.8,-348 99.28,-312.48 149.47,-289.49 192.65,-275.14"/>
<polygon fill="#999999" stroke="#999999" points="199.75,-272.85 193.65,-278.37 197.34,-273.63 192.61,-275.16 192.61,-275.16 192.61,-275.16 197.34,-273.63 191.58,-271.95 199.75,-272.85"/>
<g id="a_edge32&#45;label"><a xlink:href="404.html" xlink:title="404.html">
<text xml:space="preserve" text-anchor="middle" x="91.47" y="-351" font-family="Helvetica,sans-Serif" font-size="10.00">404.html</text>
</a>
</g>
</g>
<!-- sitemap.xml -->
<g id="node34" class="node">
<title>sitemap.xml</title>
<g id="a_node34"><a xlink:href="sitemap.xml" xlink:title="&lt;?xml version=&quot;1.0&quot; encoding=&quot;UTF&#45;8&quot;?&gt;\l&lt;...\l">
<polygon fill="white" stroke="#b3b3b3" points="380.91,-164 180.06,-164 180.06,-128 380.91,-128 380.91,-164"/>
<text xml:space="preserve" text-anchor="start" x="188.06" y="-149" font-family="Helvetica,sans-Serif" font-size="10.00">&lt;?xml version=&quot;1.0&quot; encoding=&quot;UTF&#45;8&quot;?&gt;</text>
<text xml:space="preserve" text-anchor="start" x="188.06" y="-137" font-family="Helvetica,sans-Serif" font-size="10.00">&lt;...</text>
</a>
</g>
</g>
<!-- &#45;&gt;sitemap.xml -->
<g id="edge33" class="edge">
<title>&#45;&gt;sitemap.xml</title>
<path fill="none" stroke="#999999" d="M6.62,-487.52C7.91,-461.79 16.16,-351.26 64.8,-280 102.07,-225.4 169.68,-188.7 219.1,-167.71"/>
<polygon fill="#999999" stroke="#999999" points="225.74,-164.95 220.12,-170.94 223.41,-165.92 218.82,-167.83 218.82,-167.83 218.82,-167.83 223.41,-165.92 217.52,-164.71 225.74,-164.95"/>
<g id="a_edge33&#45;label"><a xlink:href="sitemap.xml" xlink:title="sitemap.xml">
<text xml:space="preserve" text-anchor="middle" x="91.47" y="-283" font-family="Helvetica,sans-Serif" font-size="10.00">sitemap.xml</text>
</a>
</g>
</g>
<!-- about/index.html -->
<g id="node3" class="node">
<title>about/index.html</title>
<g id="a_node3"><a xlink:href="about/index.html" xlink:title="&lt;!doctype html&gt;\l&lt;html lang=&quot;en&#45;US&quot;&gt;\l &lt;he...\l">
<polygon fill="white" stroke="#b3b3b3" points="741.9,-1447 632.36,-1447 632.36,-1403 741.9,-1403 741.9,-1447"/>
<text xml:space="preserve" text-anchor="start" x="640.36" y="-1434" font-family="Helvetica,sans-Serif" font-size="10.00">&lt;!doctype html&gt;</text>
<text xml:space="preserve" text-anchor="start" x="640.36" y="-1422" font-family="Helvetica,sans-Serif" font-size="10.00">&lt;html lang=&quot;en&#45;US&quot;&gt;</text>
<text xml:space="preserve" text-anchor="start" x="640.36" y="-1410" font-family="Helvetica,sans-Serif" font-size="10.00"> &lt;he...</text>
</a>
</g>
</g>
<!-- about/&#45;&gt;about/index.html -->
<g id="edge2" class="edge">
<title>about/&#45;&gt;about/index.html</title>
<path fill="none" stroke="#999999" d="M286.31,-1354.85C319.83,-1360.73 519.67,-1395.79 623.53,-1414.02"/>
<polygon fill="#999999" stroke="#999999" points="630.85,-1415.3 622.88,-1417.33 628.36,-1414.86 623.47,-1414 623.47,-1414 623.47,-1414 628.36,-1414.86 624.05,-1410.68 630.85,-1415.3"/>
<g id="a_edge2&#45;label"><a xlink:href="about/index.html" xlink:title="index.html">
<text xml:space="preserve" text-anchor="middle" x="491.46" y="-1400.95" font-family="Helvetica,sans-Serif" font-size="10.00">index.html</text>
</a>
</g>
</g>
<!-- assets/highlightjs&#45;okaidia.css -->
<g id="node5" class="node">
<title>assets/highlightjs&#45;okaidia.css</title>
<g id="a_node5"><a xlink:href="assets/highlightjs-okaidia.css" xlink:title="/**\l * okaidia theme for JavaScript, CSS...\l">
<polygon fill="white" stroke="#b3b3b3" points="780.17,-1331 594.09,-1331 594.09,-1295 780.17,-1295 780.17,-1331"/>
<text xml:space="preserve" text-anchor="start" x="602.09" y="-1316" font-family="Helvetica,sans-Serif" font-size="10.00">/**</text>
<text xml:space="preserve" text-anchor="start" x="602.09" y="-1304" font-family="Helvetica,sans-Serif" font-size="10.00"> * okaidia theme for JavaScript, CSS...</text>
</a>
</g>
</g>
<!-- assets/&#45;&gt;assets/highlightjs&#45;okaidia.css -->
<g id="edge4" class="edge">
<title>assets/&#45;&gt;assets/highlightjs&#45;okaidia.css</title>
<path fill="none" stroke="#999999" d="M286.03,-1202.26C317.47,-1210.96 504.52,-1262.73 611.38,-1292.31"/>
<polygon fill="#999999" stroke="#999999" points="618.39,-1294.25 610.26,-1295.5 615.95,-1293.58 611.16,-1292.25 611.16,-1292.25 611.16,-1292.25 615.95,-1293.58 612.06,-1289 618.39,-1294.25"/>
<g id="a_edge4&#45;label"><a xlink:href="assets/highlightjs-okaidia.css" xlink:title="highlightjs&#45;okaidia.css">
<text xml:space="preserve" text-anchor="middle" x="491.46" y="-1273.33" font-family="Helvetica,sans-Serif" font-size="10.00">highlightjs&#45;okaidia.css</text>
</a>
</g>
</g>
<!-- assets/index.css -->
<g id="node6" class="node">
<title>assets/index.css</title>
<g id="a_node6"><a xlink:href="assets/index.css" xlink:title="/* Defaults */\l:root {\l &#45;&#45;font&#45;family: &#45;...\l">
<polygon fill="white" stroke="#b3b3b3" points="731.52,-1223 642.74,-1223 642.74,-1179 731.52,-1179 731.52,-1223"/>
<text xml:space="preserve" text-anchor="start" x="650.74" y="-1210" font-family="Helvetica,sans-Serif" font-size="10.00">/* Defaults */</text>
<text xml:space="preserve" text-anchor="start" x="650.74" y="-1198" font-family="Helvetica,sans-Serif" font-size="10.00">:root {</text>
<text xml:space="preserve" text-anchor="start" x="650.74" y="-1186" font-family="Helvetica,sans-Serif" font-size="10.00"> &#45;&#45;font&#45;family: &#45;...</text>
</a>
</g>
</g>
<!-- assets/&#45;&gt;assets/index.css -->
<g id="edge5" class="edge">
<title>assets/&#45;&gt;assets/index.css</title>
<path fill="none" stroke="#999999" d="M286.31,-1201C321.01,-1201 533.94,-1201 634.12,-1201"/>
<polygon fill="#999999" stroke="#999999" points="641.37,-1201 633.87,-1204.38 638.84,-1201 633.87,-1201 633.87,-1201 633.87,-1201 638.84,-1201 633.87,-1197.63 641.37,-1201"/>
<g id="a_edge5&#45;label"><a xlink:href="assets/index.css" xlink:title="index.css">
<text xml:space="preserve" text-anchor="middle" x="491.46" y="-1204" font-family="Helvetica,sans-Serif" font-size="10.00">index.css</text>
</a>
</g>
</g>
<!-- blog/index.html -->
<g id="node8" class="node">
<title>blog/index.html</title>
<g id="a_node8"><a xlink:href="blog/index.html" xlink:title="&lt;!doctype html&gt;\l&lt;html lang=&quot;en&#45;US&quot;&gt;\l &lt;he...\l">
<polygon fill="white" stroke="#b3b3b3" points="741.9,-1107 632.36,-1107 632.36,-1063 741.9,-1063 741.9,-1107"/>
<text xml:space="preserve" text-anchor="start" x="640.36" y="-1094" font-family="Helvetica,sans-Serif" font-size="10.00">&lt;!doctype html&gt;</text>
<text xml:space="preserve" text-anchor="start" x="640.36" y="-1082" font-family="Helvetica,sans-Serif" font-size="10.00">&lt;html lang=&quot;en&#45;US&quot;&gt;</text>
<text xml:space="preserve" text-anchor="start" x="640.36" y="-1070" font-family="Helvetica,sans-Serif" font-size="10.00"> &lt;he...</text>
</a>
</g>
</g>
<!-- blog/&#45;&gt;blog/index.html -->
<g id="edge7" class="edge">
<title>blog/&#45;&gt;blog/index.html</title>
<path fill="none" stroke="#999999" d="M284.66,-814.78C300.27,-833.23 371.1,-914.86 442.82,-965 500.35,-1005.22 573.35,-1039.28 624.32,-1060.72"/>
<polygon fill="#999999" stroke="#999999" points="631.18,-1063.58 622.96,-1063.81 628.84,-1062.61 624.26,-1060.69 624.26,-1060.69 624.26,-1060.69 628.84,-1062.61 625.56,-1057.58 631.18,-1063.58"/>
<g id="a_edge7&#45;label"><a xlink:href="blog/index.html" xlink:title="index.html">
<text xml:space="preserve" text-anchor="middle" x="491.46" y="-1024.39" font-family="Helvetica,sans-Serif" font-size="10.00">index.html</text>
</a>
</g>
</g>
<!-- blog/fifthpost/ -->
<g id="node9" class="node">
<title>blog/fifthpost/</title>
<g id="a_node9"><a xlink:href="blog/fifthpost/">
<ellipse fill="white" stroke="#666666" cx="687.13" cy="-986" rx="5.4" ry="5.4"/>
</a>
</g>
</g>
<!-- blog/&#45;&gt;blog/fifthpost/ -->
<g id="edge8" class="edge">
<title>blog/&#45;&gt;blog/fifthpost/</title>
<path fill="none" stroke="#999999" d="M285.61,-813.52C303.7,-824.51 378.05,-869.01 442.82,-898 529.01,-936.57 637.71,-971.13 673.84,-982.26"/>
<polygon fill="#999999" stroke="#999999" points="680.55,-984.32 672.39,-985.35 678.13,-983.58 673.38,-982.12 673.38,-982.12 673.38,-982.12 678.13,-983.58 674.36,-978.9 680.55,-984.32"/>
<g id="a_edge8&#45;label"><a xlink:href="blog/fifthpost/" xlink:title="fifthpost/">
<text xml:space="preserve" text-anchor="middle" x="491.46" y="-938.29" font-family="Helvetica,sans-Serif" font-size="10.00">fifthpost/</text>
</a>
</g>
</g>
<!-- blog/fourthpost/ -->
<g id="node11" class="node">
<title>blog/fourthpost/</title>
<g id="a_node11"><a xlink:href="blog/fourthpost/">
<ellipse fill="white" stroke="#666666" cx="687.13" cy="-903" rx="5.4" ry="5.4"/>
</a>
</g>
</g>
<!-- blog/&#45;&gt;blog/fourthpost/ -->
<g id="edge10" class="edge">
<title>blog/&#45;&gt;blog/fourthpost/</title>
<path fill="none" stroke="#999999" d="M286.03,-812.03C325.34,-820.97 608.02,-885.24 672.89,-899.99"/>
<polygon fill="#999999" stroke="#999999" points="680.17,-901.64 672.11,-903.27 677.7,-901.08 672.86,-899.98 672.86,-899.98 672.86,-899.98 677.7,-901.08 673.6,-896.69 680.17,-901.64"/>
<g id="a_edge10&#45;label"><a xlink:href="blog/fourthpost/" xlink:title="fourthpost/">
<text xml:space="preserve" text-anchor="middle" x="491.46" y="-870.95" font-family="Helvetica,sans-Serif" font-size="10.00">fourthpost/</text>
</a>
</g>
</g>
<!-- blog/thirdpost/ -->
<g id="node14" class="node">
<title>blog/thirdpost/</title>
<g id="a_node14"><a xlink:href="blog/thirdpost/">
<ellipse fill="white" stroke="#666666" cx="687.13" cy="-808" rx="5.4" ry="5.4"/>
</a>
</g>
</g>
<!-- blog/&#45;&gt;blog/thirdpost/ -->
<g id="edge13" class="edge">
<title>blog/&#45;&gt;blog/thirdpost/</title>
<path fill="none" stroke="#999999" d="M286.24,-810.93C305.66,-810.63 380.92,-809.51 442.82,-809 530.85,-808.27 636.8,-808.07 673.16,-808.02"/>
<polygon fill="#999999" stroke="#999999" points="680.27,-808.01 672.78,-811.39 677.74,-808.01 672.77,-808.02 672.77,-808.02 672.77,-808.02 677.74,-808.01 672.77,-804.64 680.27,-808.01"/>
<g id="a_edge13&#45;label"><a xlink:href="blog/thirdpost/" xlink:title="thirdpost/">
<text xml:space="preserve" text-anchor="middle" x="491.46" y="-812" font-family="Helvetica,sans-Serif" font-size="10.00">thirdpost/</text>
</a>
</g>
</g>
<!-- blog/secondpost/ -->
<g id="node16" class="node">
<title>blog/secondpost/</title>
<g id="a_node16"><a xlink:href="blog/secondpost/">
<ellipse fill="white" stroke="#666666" cx="687.13" cy="-722" rx="5.4" ry="5.4"/>
</a>
</g>
</g>
<!-- blog/&#45;&gt;blog/secondpost/ -->
<g id="edge15" class="edge">
<title>blog/&#45;&gt;blog/secondpost/</title>
<path fill="none" stroke="#999999" d="M286.03,-810C325.34,-801.35 608.02,-739.18 672.89,-724.91"/>
<polygon fill="#999999" stroke="#999999" points="680.17,-723.31 673.57,-728.22 677.7,-723.86 672.84,-724.92 672.84,-724.92 672.84,-724.92 677.7,-723.86 672.12,-721.63 680.17,-723.31"/>
<g id="a_edge15&#45;label"><a xlink:href="blog/secondpost/" xlink:title="secondpost/">
<text xml:space="preserve" text-anchor="middle" x="491.46" y="-777.47" font-family="Helvetica,sans-Serif" font-size="10.00">secondpost/</text>
</a>
</g>
</g>
<!-- blog/firstpost/ -->
<g id="node18" class="node">
<title>blog/firstpost/</title>
<g id="a_node18"><a xlink:href="blog/firstpost/">
<ellipse fill="white" stroke="#666666" cx="687.13" cy="-639" rx="5.4" ry="5.4"/>
</a>
</g>
</g>
<!-- blog/&#45;&gt;blog/firstpost/ -->
<g id="edge17" class="edge">
<title>blog/&#45;&gt;blog/firstpost/</title>
<path fill="none" stroke="#999999" d="M285.61,-808.54C303.74,-797.82 378.19,-754.41 442.82,-726 528.79,-688.21 636.84,-654.05 673.39,-642.85"/>
<polygon fill="#999999" stroke="#999999" points="680.55,-640.67 674.36,-646.09 678.13,-641.41 673.38,-642.86 673.38,-642.86 673.38,-642.86 678.13,-641.41 672.4,-639.63 680.55,-640.67"/>
<g id="a_edge17&#45;label"><a xlink:href="blog/firstpost/" xlink:title="firstpost/">
<text xml:space="preserve" text-anchor="middle" x="491.46" y="-729" font-family="Helvetica,sans-Serif" font-size="10.00">firstpost/</text>
</a>
</g>
</g>
<!-- blog/fifthpost/index.html -->
<g id="node10" class="node">
<title>blog/fifthpost/index.html</title>
<g id="a_node10"><a xlink:href="blog/fifthpost/index.html" xlink:title="&lt;!doctype html&gt;\l&lt;html lang=&quot;en&#45;US&quot;&gt;\l &lt;he...\l">
<polygon fill="white" stroke="#b3b3b3" points="1052.18,-1163 942.64,-1163 942.64,-1119 1052.18,-1119 1052.18,-1163"/>
<text xml:space="preserve" text-anchor="start" x="950.64" y="-1150" font-family="Helvetica,sans-Serif" font-size="10.00">&lt;!doctype html&gt;</text>
<text xml:space="preserve" text-anchor="start" x="950.64" y="-1138" font-family="Helvetica,sans-Serif" font-size="10.00">&lt;html lang=&quot;en&#45;US&quot;&gt;</text>
<text xml:space="preserve" text-anchor="start" x="950.64" y="-1126" font-family="Helvetica,sans-Serif" font-size="10.00"> &lt;he...</text>
</a>
</g>
</g>
<!-- blog/fifthpost/&#45;&gt;blog/fifthpost/index.html -->
<g id="edge9" class="edge">
<title>blog/fifthpost/&#45;&gt;blog/fifthpost/index.html</title>
<path fill="none" stroke="#999999" d="M692.4,-987.78C705.58,-993.31 746.81,-1010.8 780.17,-1027 838.69,-1055.42 904.67,-1090.68 948.18,-1114.4"/>
<polygon fill="#999999" stroke="#999999" points="954.7,-1117.96 946.5,-1117.33 952.48,-1116.75 948.12,-1114.37 948.12,-1114.37 948.12,-1114.37 952.48,-1116.75 949.74,-1111.4 954.7,-1117.96"/>
<g id="a_edge9&#45;label"><a xlink:href="blog/fifthpost/index.html" xlink:title="index.html">
<text xml:space="preserve" text-anchor="middle" x="861.41" y="-1084.68" font-family="Helvetica,sans-Serif" font-size="10.00">index.html</text>
</a>
</g>
</g>
<!-- blog/fourthpost/index.html -->
<g id="node12" class="node">
<title>blog/fourthpost/index.html</title>
<g id="a_node12"><a xlink:href="blog/fourthpost/index.html" xlink:title="&lt;!doctype html&gt;\l&lt;html lang=&quot;en&#45;US&quot;&gt;\l &lt;he...\l">
<polygon fill="white" stroke="#b3b3b3" points="1052.18,-1047 942.64,-1047 942.64,-1003 1052.18,-1003 1052.18,-1047"/>
<text xml:space="preserve" text-anchor="start" x="950.64" y="-1034" font-family="Helvetica,sans-Serif" font-size="10.00">&lt;!doctype html&gt;</text>
<text xml:space="preserve" text-anchor="start" x="950.64" y="-1022" font-family="Helvetica,sans-Serif" font-size="10.00">&lt;html lang=&quot;en&#45;US&quot;&gt;</text>
<text xml:space="preserve" text-anchor="start" x="950.64" y="-1010" font-family="Helvetica,sans-Serif" font-size="10.00"> &lt;he...</text>
</a>
</g>
</g>
<!-- blog/fourthpost/&#45;&gt;blog/fourthpost/index.html -->
<g id="edge11" class="edge">
<title>blog/fourthpost/&#45;&gt;blog/fourthpost/index.html</title>
<path fill="none" stroke="#999999" d="M692.49,-904.72C718.37,-914.97 853.46,-968.43 934.57,-1000.53"/>
<polygon fill="#999999" stroke="#999999" points="941.11,-1003.12 932.9,-1003.49 938.76,-1002.18 934.14,-1000.36 934.14,-1000.36 934.14,-1000.36 938.76,-1002.18 935.38,-997.22 941.11,-1003.12"/>
<g id="a_edge11&#45;label"><a xlink:href="blog/fourthpost/index.html" xlink:title="index.html">
<text xml:space="preserve" text-anchor="middle" x="861.41" y="-985.06" font-family="Helvetica,sans-Serif" font-size="10.00">index.html</text>
</a>
</g>
</g>
<!-- blog/fourthpost/possum.png -->
<g id="node13" class="node">
<title>blog/fourthpost/possum.png</title>
<g id="a_node13"><a xlink:href="blog/fourthpost/possum.png" xlink:title="[binary data]">
<polygon fill="white" stroke="#b3b3b3" points="1032.93,-931 961.9,-931 961.9,-895 1032.93,-895 1032.93,-931"/>
<text xml:space="preserve" text-anchor="middle" x="997.41" y="-910" font-family="Helvetica,sans-Serif" font-size="10.00">[binary data]</text>
</a>
</g>
</g>
<!-- blog/fourthpost/&#45;&gt;blog/fourthpost/possum.png -->
<g id="edge12" class="edge">
<title>blog/fourthpost/&#45;&gt;blog/fourthpost/possum.png</title>
<path fill="none" stroke="#999999" d="M692.97,-903.16C722.18,-904.1 876.18,-909.1 952.9,-911.59"/>
<polygon fill="#999999" stroke="#999999" points="960.2,-911.83 952.59,-914.96 957.67,-911.74 952.7,-911.58 952.7,-911.58 952.7,-911.58 957.67,-911.74 952.81,-908.21 960.2,-911.83"/>
<g id="a_edge12&#45;label"><a xlink:href="blog/fourthpost/possum.png" xlink:title="possum.png">
<text xml:space="preserve" text-anchor="middle" x="861.41" y="-912.48" font-family="Helvetica,sans-Serif" font-size="10.00">possum.png</text>
</a>
</g>
</g>
<!-- blog/thirdpost/index.html -->
<g id="node15" class="node">
<title>blog/thirdpost/index.html</title>
<g id="a_node15"><a xlink:href="blog/thirdpost/index.html" xlink:title="&lt;!doctype html&gt;\l&lt;html lang=&quot;en&#45;US&quot;&gt;\l &lt;he...\l">
<polygon fill="white" stroke="#b3b3b3" points="1052.18,-823 942.64,-823 942.64,-779 1052.18,-779 1052.18,-823"/>
<text xml:space="preserve" text-anchor="start" x="950.64" y="-810" font-family="Helvetica,sans-Serif" font-size="10.00">&lt;!doctype html&gt;</text>
<text xml:space="preserve" text-anchor="start" x="950.64" y="-798" font-family="Helvetica,sans-Serif" font-size="10.00">&lt;html lang=&quot;en&#45;US&quot;&gt;</text>
<text xml:space="preserve" text-anchor="start" x="950.64" y="-786" font-family="Helvetica,sans-Serif" font-size="10.00"> &lt;he...</text>
</a>
</g>
</g>
<!-- blog/thirdpost/&#45;&gt;blog/thirdpost/index.html -->
<g id="edge14" class="edge">
<title>blog/thirdpost/&#45;&gt;blog/thirdpost/index.html</title>
<path fill="none" stroke="#999999" d="M692.97,-807.89C719.91,-807.28 853.01,-804.26 933.72,-802.42"/>
<polygon fill="#999999" stroke="#999999" points="941.11,-802.26 933.69,-805.8 938.58,-802.31 933.61,-802.43 933.61,-802.43 933.61,-802.43 938.58,-802.31 933.53,-799.05 941.11,-802.26"/>
<g id="a_edge14&#45;label"><a xlink:href="blog/thirdpost/index.html" xlink:title="index.html">
<text xml:space="preserve" text-anchor="middle" x="861.41" y="-807.5" font-family="Helvetica,sans-Serif" font-size="10.00">index.html</text>
</a>
</g>
</g>
<!-- blog/secondpost/index.html -->
<g id="node17" class="node">
<title>blog/secondpost/index.html</title>
<g id="a_node17"><a xlink:href="blog/secondpost/index.html" xlink:title="&lt;!doctype html&gt;\l&lt;html lang=&quot;en&#45;US&quot;&gt;\l &lt;he...\l">
<polygon fill="white" stroke="#b3b3b3" points="1052.18,-707 942.64,-707 942.64,-663 1052.18,-663 1052.18,-707"/>
<text xml:space="preserve" text-anchor="start" x="950.64" y="-694" font-family="Helvetica,sans-Serif" font-size="10.00">&lt;!doctype html&gt;</text>
<text xml:space="preserve" text-anchor="start" x="950.64" y="-682" font-family="Helvetica,sans-Serif" font-size="10.00">&lt;html lang=&quot;en&#45;US&quot;&gt;</text>
<text xml:space="preserve" text-anchor="start" x="950.64" y="-670" font-family="Helvetica,sans-Serif" font-size="10.00"> &lt;he...</text>
</a>
</g>
</g>
<!-- blog/secondpost/&#45;&gt;blog/secondpost/index.html -->
<g id="edge16" class="edge">
<title>blog/secondpost/&#45;&gt;blog/secondpost/index.html</title>
<path fill="none" stroke="#999999" d="M692.97,-721.42C719.91,-718.19 853.01,-702.21 933.72,-692.52"/>
<polygon fill="#999999" stroke="#999999" points="941.12,-691.64 934.07,-695.88 938.6,-691.94 933.67,-692.53 933.67,-692.53 933.67,-692.53 938.6,-691.94 933.27,-689.18 941.12,-691.64"/>
<g id="a_edge16&#45;label"><a xlink:href="blog/secondpost/index.html" xlink:title="index.html">
<text xml:space="preserve" text-anchor="middle" x="861.41" y="-706.5" font-family="Helvetica,sans-Serif" font-size="10.00">index.html</text>
</a>
</g>
</g>
<!-- blog/firstpost/index.html -->
<g id="node19" class="node">
<title>blog/firstpost/index.html</title>
<g id="a_node19"><a xlink:href="blog/firstpost/index.html" xlink:title="&lt;!doctype html&gt;\l&lt;html lang=&quot;en&#45;US&quot;&gt;\l &lt;he...\l">
<polygon fill="white" stroke="#b3b3b3" points="1052.18,-591 942.64,-591 942.64,-547 1052.18,-547 1052.18,-591"/>
<text xml:space="preserve" text-anchor="start" x="950.64" y="-578" font-family="Helvetica,sans-Serif" font-size="10.00">&lt;!doctype html&gt;</text>
<text xml:space="preserve" text-anchor="start" x="950.64" y="-566" font-family="Helvetica,sans-Serif" font-size="10.00">&lt;html lang=&quot;en&#45;US&quot;&gt;</text>
<text xml:space="preserve" text-anchor="start" x="950.64" y="-554" font-family="Helvetica,sans-Serif" font-size="10.00"> &lt;he...</text>
</a>
</g>
</g>
<!-- blog/firstpost/&#45;&gt;blog/firstpost/index.html -->
<g id="edge18" class="edge">
<title>blog/firstpost/&#45;&gt;blog/firstpost/index.html</title>
<path fill="none" stroke="#999999" d="M692.49,-638.01C718.31,-632.15 852.91,-601.58 934.08,-583.15"/>
<polygon fill="#999999" stroke="#999999" points="941.06,-581.57 934.49,-586.52 938.59,-582.13 933.75,-583.23 933.75,-583.23 933.75,-583.23 938.59,-582.13 933,-579.94 941.06,-581.57"/>
<g id="a_edge18&#45;label"><a xlink:href="blog/firstpost/index.html" xlink:title="index.html">
<text xml:space="preserve" text-anchor="middle" x="861.41" y="-607" font-family="Helvetica,sans-Serif" font-size="10.00">index.html</text>
</a>
</g>
</g>
<!-- feed/feed.xml -->
<g id="node21" class="node">
<title>feed/feed.xml</title>
<g id="a_node21"><a xlink:href="feed/feed.xml" xlink:title="&lt;?xml version=&quot;1.0&quot; ?&gt;\l&lt;rss version=&quot;2.0...\l">
<polygon fill="white" stroke="#b3b3b3" points="746.62,-562 627.64,-562 627.64,-526 746.62,-526 746.62,-562"/>
<text xml:space="preserve" text-anchor="start" x="635.64" y="-547" font-family="Helvetica,sans-Serif" font-size="10.00">&lt;?xml version=&quot;1.0&quot; ?&gt;</text>
<text xml:space="preserve" text-anchor="start" x="635.64" y="-535" font-family="Helvetica,sans-Serif" font-size="10.00">&lt;rss version=&quot;2.0...</text>
</a>
</g>
</g>
<!-- feed/&#45;&gt;feed/feed.xml -->
<g id="edge20" class="edge">
<title>feed/&#45;&gt;feed/feed.xml</title>
<path fill="none" stroke="#999999" d="M286.24,-543.92C305.66,-543.6 380.92,-542.38 442.82,-542 486.05,-541.73 496.86,-541.7 540.09,-542 565.72,-542.18 593.88,-542.52 618.58,-542.88"/>
<polygon fill="#999999" stroke="#999999" points="625.94,-542.99 618.39,-546.25 623.41,-542.95 618.44,-542.88 618.44,-542.88 618.44,-542.88 623.41,-542.95 618.49,-539.51 625.94,-542.99"/>
<g id="a_edge20&#45;label"><a xlink:href="feed/feed.xml" xlink:title="feed.xml">
<text xml:space="preserve" text-anchor="middle" x="491.46" y="-545" font-family="Helvetica,sans-Serif" font-size="10.00">feed.xml</text>
</a>
</g>
</g>
<!-- tags/index.html -->
<g id="node24" class="node">
<title>tags/index.html</title>
<g id="a_node24"><a xlink:href="tags/index.html" xlink:title="&lt;!doctype html&gt;\l&lt;html lang=&quot;en&#45;US&quot;&gt;\l &lt;he...\l">
<polygon fill="white" stroke="#b3b3b3" points="741.9,-454 632.36,-454 632.36,-410 741.9,-410 741.9,-454"/>
<text xml:space="preserve" text-anchor="start" x="640.36" y="-441" font-family="Helvetica,sans-Serif" font-size="10.00">&lt;!doctype html&gt;</text>
<text xml:space="preserve" text-anchor="start" x="640.36" y="-429" font-family="Helvetica,sans-Serif" font-size="10.00">&lt;html lang=&quot;en&#45;US&quot;&gt;</text>
<text xml:space="preserve" text-anchor="start" x="640.36" y="-417" font-family="Helvetica,sans-Serif" font-size="10.00"> &lt;he...</text>
</a>
</g>
</g>
<!-- tags/&#45;&gt;tags/index.html -->
<g id="edge23" class="edge">
<title>tags/&#45;&gt;tags/index.html</title>
<path fill="none" stroke="#999999" d="M286.03,-349.93C318.74,-356.64 520,-397.92 624.01,-419.26"/>
<polygon fill="#999999" stroke="#999999" points="631.05,-420.7 623.02,-422.5 628.57,-420.19 623.7,-419.19 623.7,-419.19 623.7,-419.19 628.57,-420.19 624.38,-415.89 631.05,-420.7"/>
<g id="a_edge23&#45;label"><a xlink:href="tags/index.html" xlink:title="index.html">
<text xml:space="preserve" text-anchor="middle" x="491.46" y="-403.38" font-family="Helvetica,sans-Serif" font-size="10.00">index.html</text>
</a>
</g>
</g>
<!-- tags/another&#45;tag/ -->
<g id="node25" class="node">
<title>tags/another&#45;tag/</title>
<g id="a_node25"><a xlink:href="tags/another-tag/">
<ellipse fill="white" stroke="#666666" cx="687.13" cy="-333" rx="5.4" ry="5.4"/>
</a>
</g>
</g>
<!-- tags/&#45;&gt;tags/another&#45;tag/ -->
<g id="edge24" class="edge">
<title>tags/&#45;&gt;tags/another&#45;tag/</title>
<path fill="none" stroke="#999999" d="M286.23,-348.69C305.65,-347.42 380.88,-342.62 442.82,-340 530.81,-336.28 636.79,-333.98 673.15,-333.25"/>
<polygon fill="#999999" stroke="#999999" points="680.27,-333.11 672.84,-336.63 677.74,-333.16 672.77,-333.26 672.77,-333.26 672.77,-333.26 677.74,-333.16 672.71,-329.88 680.27,-333.11"/>
<g id="a_edge24&#45;label"><a xlink:href="tags/another-tag/" xlink:title="another&#45;tag/">
<text xml:space="preserve" text-anchor="middle" x="491.46" y="-343" font-family="Helvetica,sans-Serif" font-size="10.00">another&#45;tag/</text>
</a>
</g>
</g>
<!-- tags/number&#45;2/ -->
<g id="node27" class="node">
<title>tags/number&#45;2/</title>
<g id="a_node27"><a xlink:href="tags/number-2/">
<ellipse fill="white" stroke="#666666" cx="687.13" cy="-250" rx="5.4" ry="5.4"/>
</a>
</g>
</g>
<!-- tags/&#45;&gt;tags/number&#45;2/ -->
<g id="edge26" class="edge">
<title>tags/&#45;&gt;tags/number&#45;2/</title>
<path fill="none" stroke="#999999" d="M286.22,-347.72C305.61,-342.5 380.73,-322.35 442.82,-307 530.6,-285.3 636.71,-261.15 673.13,-252.93"/>
<polygon fill="#999999" stroke="#999999" points="680.29,-251.31 673.72,-256.25 677.82,-251.87 672.98,-252.96 672.98,-252.96 672.98,-252.96 677.82,-251.87 672.23,-249.67 680.29,-251.31"/>
<g id="a_edge26&#45;label"><a xlink:href="tags/number-2/" xlink:title="number&#45;2/">
<text xml:space="preserve" text-anchor="middle" x="491.46" y="-310" font-family="Helvetica,sans-Serif" font-size="10.00">number&#45;2/</text>
</a>
</g>
</g>
<!-- tags/posts&#45;with&#45;two&#45;tags/ -->
<g id="node29" class="node">
<title>tags/posts&#45;with&#45;two&#45;tags/</title>
<g id="a_node29"><a xlink:href="tags/posts-with-two-tags/">
<ellipse fill="white" stroke="#666666" cx="687.13" cy="-141" rx="5.4" ry="5.4"/>
</a>
</g>
</g>
<!-- tags/&#45;&gt;tags/posts&#45;with&#45;two&#45;tags/ -->
<g id="edge28" class="edge">
<title>tags/&#45;&gt;tags/posts&#45;with&#45;two&#45;tags/</title>
<path fill="none" stroke="#999999" d="M285.88,-348.03C301.11,-344.51 352.67,-331.44 388.82,-308 417.3,-289.54 415.01,-273.45 442.82,-254 523.07,-197.91 635.59,-157.74 673.27,-145.17"/>
<polygon fill="#999999" stroke="#999999" points="680.34,-142.85 674.27,-148.39 677.94,-143.64 673.22,-145.18 673.22,-145.18 673.22,-145.18 677.94,-143.64 672.16,-141.98 680.34,-142.85"/>
<g id="a_edge28&#45;label"><a xlink:href="tags/posts-with-two-tags/" xlink:title="posts&#45;with&#45;two&#45;tags/">
<text xml:space="preserve" text-anchor="middle" x="491.46" y="-257" font-family="Helvetica,sans-Serif" font-size="10.00">posts&#45;with&#45;two&#45;tags/</text>
</a>
</g>
</g>
<!-- tags/second&#45;tag/ -->
<g id="node31" class="node">
<title>tags/second&#45;tag/</title>
<g id="a_node31"><a xlink:href="tags/second-tag/">
<ellipse fill="white" stroke="#666666" cx="687.13" cy="-38" rx="5.4" ry="5.4"/>
</a>
</g>
</g>
<!-- tags/&#45;&gt;tags/second&#45;tag/ -->
<g id="edge30" class="edge">
<title>tags/&#45;&gt;tags/second&#45;tag/</title>
<path fill="none" stroke="#999999" d="M286.29,-348.54C302.86,-346.68 358.27,-338.38 388.82,-308 435.82,-261.27 398.94,-218.66 442.82,-169 510.18,-92.78 632.87,-52.95 673.02,-41.52"/>
<polygon fill="#999999" stroke="#999999" points="680.2,-39.54 673.86,-44.79 677.76,-40.22 672.97,-41.54 672.97,-41.54 672.97,-41.54 677.76,-40.22 672.07,-38.28 680.2,-39.54"/>
<g id="a_edge30&#45;label"><a xlink:href="tags/second-tag/" xlink:title="second&#45;tag/">
<text xml:space="preserve" text-anchor="middle" x="491.46" y="-172" font-family="Helvetica,sans-Serif" font-size="10.00">second&#45;tag/</text>
</a>
</g>
</g>
<!-- tags/another&#45;tag/index.html -->
<g id="node26" class="node">
<title>tags/another&#45;tag/index.html</title>
<g id="a_node26"><a xlink:href="tags/another-tag/index.html" xlink:title="&lt;!doctype html&gt;\l&lt;html lang=&quot;en&#45;US&quot;&gt;\l &lt;he...\l">
<polygon fill="white" stroke="#b3b3b3" points="1052.18,-392 942.64,-392 942.64,-348 1052.18,-348 1052.18,-392"/>
<text xml:space="preserve" text-anchor="start" x="950.64" y="-379" font-family="Helvetica,sans-Serif" font-size="10.00">&lt;!doctype html&gt;</text>
<text xml:space="preserve" text-anchor="start" x="950.64" y="-367" font-family="Helvetica,sans-Serif" font-size="10.00">&lt;html lang=&quot;en&#45;US&quot;&gt;</text>
<text xml:space="preserve" text-anchor="start" x="950.64" y="-355" font-family="Helvetica,sans-Serif" font-size="10.00"> &lt;he...</text>
</a>
</g>
</g>
<!-- tags/another&#45;tag/&#45;&gt;tags/another&#45;tag/index.html -->
<g id="edge25" class="edge">
<title>tags/another&#45;tag/&#45;&gt;tags/another&#45;tag/index.html</title>
<path fill="none" stroke="#999999" d="M692.97,-333.58C719.91,-336.81 853.01,-352.79 933.72,-362.48"/>
<polygon fill="#999999" stroke="#999999" points="941.12,-363.36 933.27,-365.82 938.6,-363.06 933.67,-362.47 933.67,-362.47 933.67,-362.47 938.6,-363.06 934.07,-359.12 941.12,-363.36"/>
<g id="a_edge25&#45;label"><a xlink:href="tags/another-tag/index.html" xlink:title="index.html">
<text xml:space="preserve" text-anchor="middle" x="861.41" y="-359.98" font-family="Helvetica,sans-Serif" font-size="10.00">index.html</text>
</a>
</g>
</g>
<!-- tags/number&#45;2/index.html -->
<g id="node28" class="node">
<title>tags/number&#45;2/index.html</title>
<g id="a_node28"><a xlink:href="tags/number-2/index.html" xlink:title="&lt;!doctype html&gt;\l&lt;html lang=&quot;en&#45;US&quot;&gt;\l &lt;he...\l">
<polygon fill="white" stroke="#b3b3b3" points="1052.18,-276 942.64,-276 942.64,-232 1052.18,-232 1052.18,-276"/>
<text xml:space="preserve" text-anchor="start" x="950.64" y="-263" font-family="Helvetica,sans-Serif" font-size="10.00">&lt;!doctype html&gt;</text>
<text xml:space="preserve" text-anchor="start" x="950.64" y="-251" font-family="Helvetica,sans-Serif" font-size="10.00">&lt;html lang=&quot;en&#45;US&quot;&gt;</text>
<text xml:space="preserve" text-anchor="start" x="950.64" y="-239" font-family="Helvetica,sans-Serif" font-size="10.00"> &lt;he...</text>
</a>
</g>
</g>
<!-- tags/number&#45;2/&#45;&gt;tags/number&#45;2/index.html -->
<g id="edge27" class="edge">
<title>tags/number&#45;2/&#45;&gt;tags/number&#45;2/index.html</title>
<path fill="none" stroke="#999999" d="M692.97,-250.06C719.91,-250.41 853.01,-252.14 933.72,-253.19"/>
<polygon fill="#999999" stroke="#999999" points="941.11,-253.28 933.56,-256.56 938.58,-253.25 933.61,-253.18 933.61,-253.18 933.61,-253.18 938.58,-253.25 933.65,-249.81 941.11,-253.28"/>
<g id="a_edge27&#45;label"><a xlink:href="tags/number-2/index.html" xlink:title="index.html">
<text xml:space="preserve" text-anchor="middle" x="861.41" y="-255.59" font-family="Helvetica,sans-Serif" font-size="10.00">index.html</text>
</a>
</g>
</g>
<!-- tags/posts&#45;with&#45;two&#45;tags/index.html -->
<g id="node30" class="node">
<title>tags/posts&#45;with&#45;two&#45;tags/index.html</title>
<g id="a_node30"><a xlink:href="tags/posts-with-two-tags/index.html" xlink:title="&lt;!doctype html&gt;\l&lt;html lang=&quot;en&#45;US&quot;&gt;\l &lt;he...\l">
<polygon fill="white" stroke="#b3b3b3" points="1052.18,-160 942.64,-160 942.64,-116 1052.18,-116 1052.18,-160"/>
<text xml:space="preserve" text-anchor="start" x="950.64" y="-147" font-family="Helvetica,sans-Serif" font-size="10.00">&lt;!doctype html&gt;</text>
<text xml:space="preserve" text-anchor="start" x="950.64" y="-135" font-family="Helvetica,sans-Serif" font-size="10.00">&lt;html lang=&quot;en&#45;US&quot;&gt;</text>
<text xml:space="preserve" text-anchor="start" x="950.64" y="-123" font-family="Helvetica,sans-Serif" font-size="10.00"> &lt;he...</text>
</a>
</g>
</g>
<!-- tags/posts&#45;with&#45;two&#45;tags/&#45;&gt;tags/posts&#45;with&#45;two&#45;tags/index.html -->
<g id="edge29" class="edge">
<title>tags/posts&#45;with&#45;two&#45;tags/&#45;&gt;tags/posts&#45;with&#45;two&#45;tags/index.html</title>
<path fill="none" stroke="#999999" d="M692.97,-140.95C719.91,-140.69 853.01,-139.4 933.72,-138.61"/>
<polygon fill="#999999" stroke="#999999" points="941.11,-138.54 933.64,-141.99 938.58,-138.56 933.61,-138.61 933.61,-138.61 933.61,-138.61 938.58,-138.56 933.57,-135.24 941.11,-138.54"/>
<g id="a_edge29&#45;label"><a xlink:href="tags/posts-with-two-tags/index.html" xlink:title="index.html">
<text xml:space="preserve" text-anchor="middle" x="861.41" y="-142.5" font-family="Helvetica,sans-Serif" font-size="10.00">index.html</text>
</a>
</g>
</g>
<!-- tags/second&#45;tag/index.html -->
<g id="node32" class="node">
<title>tags/second&#45;tag/index.html</title>
<g id="a_node32"><a xlink:href="tags/second-tag/index.html" xlink:title="&lt;!doctype html&gt;\l&lt;html lang=&quot;en&#45;US&quot;&gt;\l &lt;he...\l">
<polygon fill="white" stroke="#b3b3b3" points="1052.18,-44 942.64,-44 942.64,0 1052.18,0 1052.18,-44"/>
<text xml:space="preserve" text-anchor="start" x="950.64" y="-31" font-family="Helvetica,sans-Serif" font-size="10.00">&lt;!doctype html&gt;</text>
<text xml:space="preserve" text-anchor="start" x="950.64" y="-19" font-family="Helvetica,sans-Serif" font-size="10.00">&lt;html lang=&quot;en&#45;US&quot;&gt;</text>
<text xml:space="preserve" text-anchor="start" x="950.64" y="-7" font-family="Helvetica,sans-Serif" font-size="10.00"> &lt;he...</text>
</a>
</g>
</g>
<!-- tags/second&#45;tag/&#45;&gt;tags/second&#45;tag/index.html -->
<g id="edge31" class="edge">
<title>tags/second&#45;tag/&#45;&gt;tags/second&#45;tag/index.html</title>
<path fill="none" stroke="#999999" d="M692.97,-37.75C719.91,-36.35 853.01,-29.44 933.72,-25.25"/>
<polygon fill="#999999" stroke="#999999" points="941.11,-24.87 933.79,-28.63 938.58,-25 933.62,-25.26 933.62,-25.26 933.62,-25.26 938.58,-25 933.44,-21.89 941.11,-24.87"/>
<g id="a_edge31&#45;label"><a xlink:href="tags/second-tag/index.html" xlink:title="index.html">
<text xml:space="preserve" text-anchor="middle" x="861.41" y="-33" font-family="Helvetica,sans-Serif" font-size="10.00">index.html</text>
</a>
</g>
</g>
</g>
</svg>
