<svg version="1.1" viewBox="0.0 0.0 567.0 381.0" fill="none" stroke="none" stroke-linecap="square" stroke-miterlimit="10" width="567" height="381" xmlns:xlink="http://www.w3.org/1999/xlink" xmlns="http://www.w3.org/2000/svg"><path fill="#ffffff" d="M0 0L567.0 0L567.0 381.0L0 381.0L0 0Z" fill-rule="nonzero"/><path stroke="#333333" stroke-width="1.0" stroke-linecap="butt" d="M72.5 334.5L547.5 334.5" fill-rule="nonzero"/><path stroke="#cccccc" stroke-width="1.0" stroke-linecap="butt" d="M72.5 244.5L547.5 244.5" fill-rule="nonzero"/><path stroke="#cccccc" stroke-width="1.0" stroke-linecap="butt" d="M72.5 153.5L547.5 153.5" fill-rule="nonzero"/><path stroke="#cccccc" stroke-width="1.0" stroke-linecap="butt" d="M72.5 62.5L547.5 62.5" fill-rule="nonzero"/><clipPath id="id_0"><path d="M72.05 62.25L547.95 62.25L547.95 334.95L72.05 334.95L72.05 62.25Z" clip-rule="nonzero"/></clipPath><path stroke="#000000" stroke-width="2.0" stroke-linecap="butt" stroke-opacity="0.0" clip-path="url(#id_0)" d="M275.0 335.0L143.0 335.0L143.0 181.0C143.0 179.89543 143.89543 179.0 145.0 179.0L273.0 179.0C274.10458 179.0 275.0 179.89543 275.0 181.0Z" fill-rule="nonzero"/><path fill="#4285f4" clip-path="url(#id_0)" d="M275.0 335.0L143.0 335.0L143.0 181.0C143.0 179.89543 143.89543 179.0 145.0 179.0L273.0 179.0C274.10458 179.0 275.0 179.89543 275.0 181.0Z" fill-rule="nonzero"/><path stroke="#000000" stroke-width="2.0" stroke-linecap="butt" stroke-opacity="0.0" clip-path="url(#id_0)" d="M477.0 335.0L345.0 335.0L345.0 85.0C345.0 83.89543 345.89542 83.0 347.0 83.0L475.0 83.0C476.10458 83.0 477.0 83.89543 477.0 85.0Z" fill-rule="nonzero"/><path fill="#4285f4" clip-path="url(#id_0)" d="M477.0 335.0L345.0 335.0L345.0 85.0C345.0 83.89543 345.89542 83.0 347.0 83.0L475.0 83.0C476.10458 83.0 477.0 83.89543 477.0 85.0Z" fill-rule="nonzero"/><path fill="#000000" d="M55.721874 334.79376Q55.721874 332.7625 56.128124 331.52814Q56.55 330.29376 57.378124 329.6219Q58.20625 328.95 59.45625 328.95Q60.378124 328.95 61.065624 329.325Q61.76875 329.6844 62.221874 330.3875Q62.675 331.09064 62.925 332.09064Q63.190624 333.09064 63.190624 334.79376Q63.190624 336.8094 62.76875 338.0594Q62.3625 339.29376 61.534374 339.98126Q60.70625 340.65314 59.45625 340.65314Q57.8 340.65314 56.846874 339.45Q55.721874 338.02814 55.721874 334.79376ZM57.159374 334.79376Q57.159374 337.6219 57.815624 338.5594Q58.4875 339.48126 59.45625 339.48126Q60.425 339.48126 61.08125 338.54376Q61.7375 337.60626 61.7375 334.79376Q61.7375 331.96564 61.08125 331.04376Q60.425 330.10626 59.440624 330.10626Q58.471874 330.10626 57.89375 330.9344Q57.159374 331.98126 57.159374 334.79376Z" fill-rule="nonzero"/><path fill="#000000" d="M28.721874 246.55L30.190624 246.425Q30.3625 247.50313 30.95625 248.05Q31.55 248.58125 32.39375 248.58125Q33.409374 248.58125 34.1125 247.81563Q34.815624 247.05 34.815624 245.78438Q34.815624 244.58125 34.14375 243.89375Q33.471874 243.19063 32.378124 243.19063Q31.690624 243.19063 31.14375 243.50313Q30.596874 243.81563 30.284374 244.3L28.971874 244.12813L30.08125 238.25313L35.76875 238.25313L35.76875 239.59688L31.20625 239.59688L30.58125 242.675Q31.6125 241.95625 32.753124 241.95625Q34.253124 241.95625 35.284374 243.00313Q36.315624 244.03438 36.315624 245.65938Q36.315624 247.22188 35.409374 248.34688Q34.3 249.75313 32.39375 249.75313Q30.83125 249.75313 29.846874 248.87813Q28.8625 247.9875 28.721874 246.55ZM37.721874 243.89375Q37.721874 241.8625 38.128124 240.62813Q38.55 239.39375 39.378124 238.72188Q40.20625 238.05 41.45625 238.05Q42.378124 238.05 43.065624 238.425Q43.76875 238.78438 44.221874 239.4875Q44.675 240.19063 44.925 241.19063Q45.190624 242.19063 45.190624 243.89375Q45.190624 245.90938 44.76875 247.15938Q44.3625 248.39375 43.534374 249.08125Q42.70625 249.75313 41.45625 249.75313Q39.8 249.75313 38.846874 248.55Q37.721874 247.12813 37.721874 243.89375ZM39.159374 243.89375Q39.159374 246.72188 39.815624 247.65938Q40.4875 248.58125 41.45625 248.58125Q42.425 248.58125 43.08125 247.64375Q43.7375 246.70625 43.7375 243.89375Q43.7375 241.06563 43.08125 240.14375Q42.425 239.20625 41.440624 239.20625Q40.471874 239.20625 39.89375 240.03438Q39.159374 241.08125 39.159374 243.89375ZM46.721874 243.89375Q46.721874 241.8625 47.128124 240.62813Q47.55 239.39375 48.378124 238.72188Q49.20625 238.05 50.45625 238.05Q51.378124 238.05 52.065624 238.425Q52.76875 238.78438 53.221874 239.4875Q53.675 240.19063 53.925 241.19063Q54.190624 242.19063 54.190624 243.89375Q54.190624 245.90938 53.76875 247.15938Q53.3625 248.39375 52.534374 249.08125Q51.70625 249.75313 50.45625 249.75313Q48.8 249.75313 47.846874 248.55Q46.721874 247.12813 46.721874 243.89375ZM48.159374 243.89375Q48.159374 246.72188 48.815624 247.65938Q49.4875 248.58125 50.45625 248.58125Q51.425 248.58125 52.08125 247.64375Q52.7375 246.70625 52.7375 243.89375Q52.7375 241.06563 52.08125 240.14375Q51.425 239.20625 50.440624 239.20625Q49.471874 239.20625 48.89375 240.03438Q48.159374 241.08125 48.159374 243.89375ZM55.721874 243.89375Q55.721874 241.8625 56.128124 240.62813Q56.55 239.39375 57.378124 238.72188Q58.20625 238.05 59.45625 238.05Q60.378124 238.05 61.065624 238.425Q61.76875 238.78438 62.221874 239.4875Q62.675 240.19063 62.925 241.19063Q63.190624 242.19063 63.190624 243.89375Q63.190624 245.90938 62.76875 247.15938Q62.3625 248.39375 61.534374 249.08125Q60.70625 249.75313 59.45625 249.75313Q57.8 249.75313 56.846874 248.55Q55.721874 247.12813 55.721874 243.89375ZM57.159374 243.89375Q57.159374 246.72188 57.815624 247.65938Q58.4875 248.58125 59.45625 248.58125Q60.425 248.58125 61.08125 247.64375Q61.7375 246.70625 61.7375 243.89375Q61.7375 241.06563 61.08125 240.14375Q60.425 239.20625 59.440624 239.20625Q58.471874 239.20625 57.89375 240.03438Q57.159374 241.08125 57.159374 243.89375Z" fill-rule="nonzero"/><path fill="#000000" d="M25.01875 158.65L23.6125 158.65L23.6125 149.68124Q23.096874 150.16562 22.26875 150.65Q21.45625 151.13437 20.8 151.38437L20.8 150.025Q21.971874 149.4625 22.846874 148.68124Q23.7375 147.88437 24.1125 147.15L25.01875 147.15L25.01875 158.65ZM28.721874 152.99374Q28.721874 150.9625 29.128124 149.72812Q29.55 148.49374 30.378124 147.82187Q31.20625 147.15 32.45625 147.15Q33.378124 147.15 34.065624 147.525Q34.76875 147.88437 35.221874 148.5875Q35.675 149.29062 35.925 150.29062Q36.190624 151.29062 36.190624 152.99374Q36.190624 155.00937 35.76875 156.25937Q35.3625 157.49374 34.534374 158.18124Q33.70625 158.85312 32.45625 158.85312Q30.8 158.85312 29.846874 157.65Q28.721874 156.22812 28.721874 152.99374ZM30.159374 152.99374Q30.159374 155.82187 30.815624 156.75937Q31.4875 157.68124 32.45625 157.68124Q33.425 157.68124 34.08125 156.74374Q34.7375 155.80624 34.7375 152.99374Q34.7375 150.16562 34.08125 149.24374Q33.425 148.30624 32.440624 148.30624Q31.471874 148.30624 30.89375 149.13437Q30.159374 150.18124 30.159374 152.99374ZM37.721874 152.99374Q37.721874 150.9625 38.128124 149.72812Q38.55 148.49374 39.378124 147.82187Q40.20625 147.15 41.45625 147.15Q42.378124 147.15 43.065624 147.525Q43.76875 147.88437 44.221874 148.5875Q44.675 149.29062 44.925 150.29062Q45.190624 151.29062 45.190624 152.99374Q45.190624 155.00937 44.76875 156.25937Q44.3625 157.49374 43.534374 158.18124Q42.70625 158.85312 41.45625 158.85312Q39.8 158.85312 38.846874 157.65Q37.721874 156.22812 37.721874 152.99374ZM39.159374 152.99374Q39.159374 155.82187 39.815624 156.75937Q40.4875 157.68124 41.45625 157.68124Q42.425 157.68124 43.08125 156.74374Q43.7375 155.80624 43.7375 152.99374Q43.7375 150.16562 43.08125 149.24374Q42.425 148.30624 41.440624 148.30624Q40.471874 148.30624 39.89375 149.13437Q39.159374 150.18124 39.159374 152.99374ZM46.721874 152.99374Q46.721874 150.9625 47.128124 149.72812Q47.55 148.49374 48.378124 147.82187Q49.20625 147.15 50.45625 147.15Q51.378124 147.15 52.065624 147.525Q52.76875 147.88437 53.221874 148.5875Q53.675 149.29062 53.925 150.29062Q54.190624 151.29062 54.190624 152.99374Q54.190624 155.00937 53.76875 156.25937Q53.3625 157.49374 52.534374 158.18124Q51.70625 158.85312 50.45625 158.85312Q48.8 158.85312 47.846874 157.65Q46.721874 156.22812 46.721874 152.99374ZM48.159374 152.99374Q48.159374 155.82187 48.815624 156.75937Q49.4875 157.68124 50.45625 157.68124Q51.425 157.68124 52.08125 156.74374Q52.7375 155.80624 52.7375 152.99374Q52.7375 150.16562 52.08125 149.24374Q51.425 148.30624 50.440624 148.30624Q49.471874 148.30624 48.89375 149.13437Q48.159374 150.18124 48.159374 152.99374ZM55.721874 152.99374Q55.721874 150.9625 56.128124 149.72812Q56.55 148.49374 57.378124 147.82187Q58.20625 147.15 59.45625 147.15Q60.378124 147.15 61.065624 147.525Q61.76875 147.88437 62.221874 148.5875Q62.675 149.29062 62.925 150.29062Q63.190624 151.29062 63.190624 152.99374Q63.190624 155.00937 62.76875 156.25937Q62.3625 157.49374 61.534374 158.18124Q60.70625 158.85312 59.45625 158.85312Q57.8 158.85312 56.846874 157.65Q55.721874 156.22812 55.721874 152.99374ZM57.159374 152.99374Q57.159374 155.82187 57.815624 156.75937Q58.4875 157.68124 59.45625 157.68124Q60.425 157.68124 61.08125 156.74374Q61.7375 155.80624 61.7375 152.99374Q61.7375 150.16562 61.08125 149.24374Q60.425 148.30624 59.440624 148.30624Q58.471874 148.30624 57.89375 149.13437Q57.159374 150.18124 57.159374 152.99374Z" fill-rule="nonzero"/><path fill="#000000" d="M25.01875 67.75L23.6125 67.75L23.6125 58.78125Q23.096874 59.265625 22.26875 59.75Q21.45625 60.234375 20.8 60.484375L20.8 59.125Q21.971874 58.5625 22.846874 57.78125Q23.7375 56.984375 24.1125 56.25L25.01875 56.25L25.01875 67.75ZM28.721874 64.75L30.190624 64.625Q30.3625 65.703125 30.95625 66.25Q31.55 66.78125 32.39375 66.78125Q33.409374 66.78125 34.1125 66.015625Q34.815624 65.25 34.815624 63.984375Q34.815624 62.78125 34.14375 62.09375Q33.471874 61.390625 32.378124 61.390625Q31.690624 61.390625 31.14375 61.703125Q30.596874 62.015625 30.284374 62.5L28.971874 62.328125L30.08125 56.453125L35.76875 56.453125L35.76875 57.796875L31.20625 57.796875L30.58125 60.875Q31.6125 60.15625 32.753124 60.15625Q34.253124 60.15625 35.284374 61.203125Q36.315624 62.234375 36.315624 63.859375Q36.315624 65.421875 35.409374 66.546875Q34.3 67.953125 32.39375 67.953125Q30.83125 67.953125 29.846874 67.078125Q28.8625 66.1875 28.721874 64.75ZM37.721874 62.09375Q37.721874 60.0625 38.128124 58.828125Q38.55 57.59375 39.378124 56.921875Q40.20625 56.25 41.45625 56.25Q42.378124 56.25 43.065624 56.625Q43.76875 56.984375 44.221874 57.6875Q44.675 58.390625 44.925 59.390625Q45.190624 60.390625 45.190624 62.09375Q45.190624 64.109375 44.76875 65.359375Q44.3625 66.59375 43.534374 67.28125Q42.70625 67.953125 41.45625 67.953125Q39.8 67.953125 38.846874 66.75Q37.721874 65.328125 37.721874 62.09375ZM39.159374 62.09375Q39.159374 64.921875 39.815624 65.859375Q40.4875 66.78125 41.45625 66.78125Q42.425 66.78125 43.08125 65.84375Q43.7375 64.90625 43.7375 62.09375Q43.7375 59.265625 43.08125 58.34375Q42.425 57.40625 41.440624 57.40625Q40.471874 57.40625 39.89375 58.234375Q39.159374 59.28125 39.159374 62.09375ZM46.721874 62.09375Q46.721874 60.0625 47.128124 58.828125Q47.55 57.59375 48.378124 56.921875Q49.20625 56.25 50.45625 56.25Q51.378124 56.25 52.065624 56.625Q52.76875 56.984375 53.221874 57.6875Q53.675 58.390625 53.925 59.390625Q54.190624 60.390625 54.190624 62.09375Q54.190624 64.109375 53.76875 65.359375Q53.3625 66.59375 52.534374 67.28125Q51.70625 67.953125 50.45625 67.953125Q48.8 67.953125 47.846874 66.75Q46.721874 65.328125 46.721874 62.09375ZM48.159374 62.09375Q48.159374 64.921875 48.815624 65.859375Q49.4875 66.78125 50.45625 66.78125Q51.425 66.78125 52.08125 65.84375Q52.7375 64.90625 52.7375 62.09375Q52.7375 59.265625 52.08125 58.34375Q51.425 57.40625 50.440624 57.40625Q49.471874 57.40625 48.89375 58.234375Q48.159374 59.28125 48.159374 62.09375ZM55.721874 62.09375Q55.721874 60.0625 56.128124 58.828125Q56.55 57.59375 57.378124 56.921875Q58.20625 56.25 59.45625 56.25Q60.378124 56.25 61.065624 56.625Q61.76875 56.984375 62.221874 57.6875Q62.675 58.390625 62.925 59.390625Q63.190624 60.390625 63.190624 62.09375Q63.190624 64.109375 62.76875 65.359375Q62.3625 66.59375 61.534374 67.28125Q60.70625 67.953125 59.45625 67.953125Q57.8 67.953125 56.846874 66.75Q55.721874 65.328125 55.721874 62.09375ZM57.159374 62.09375Q57.159374 64.921875 57.815624 65.859375Q58.4875 66.78125 59.45625 66.78125Q60.425 66.78125 61.08125 65.84375Q61.7375 64.90625 61.7375 62.09375Q61.7375 59.265625 61.08125 58.34375Q60.425 57.40625 59.440624 57.40625Q58.471874 57.40625 57.89375 58.234375Q57.159374 59.28125 57.159374 62.09375Z" fill-rule="nonzero"/><path fill="#000000" d="M181.52592 352.3719Q181.52592 349.5125 183.05717 347.90314Q184.58842 346.29376 187.0103 346.29376Q188.58842 346.29376 189.85405 347.0594Q191.1353 347.8094 191.80717 349.16876Q192.47905 350.5125 192.47905 352.23126Q192.47905 353.98126 191.77592 355.35626Q191.0728 356.73126 189.77592 357.45Q188.49467 358.15314 186.99467 358.15314Q185.3853 358.15314 184.10405 357.3719Q182.83842 356.575 182.18217 355.23126Q181.52592 353.8719 181.52592 352.3719ZM183.08842 352.3875Q183.08842 354.46564 184.1978 355.65314Q185.30717 356.84064 186.99467 356.84064Q188.6978 356.84064 189.80717 355.6375Q190.91655 354.4344 190.91655 352.23126Q190.91655 350.825 190.43217 349.79376Q189.96342 348.7469 189.05717 348.16876Q188.15092 347.59064 187.0103 347.59064Q185.40092 347.59064 184.24467 348.7Q183.08842 349.8094 183.08842 352.3875ZM193.79155 357.95L193.79155 349.65314L195.05717 349.65314L195.05717 350.90314Q195.54155 350.02814 195.9478 349.7469Q196.35405 349.46564 196.85405 349.46564Q197.55717 349.46564 198.29155 349.91876L197.80717 351.21564Q197.29155 350.91876 196.77592 350.91876Q196.3228 350.91876 195.9478 351.2Q195.58842 351.46564 195.43217 351.96564Q195.1978 352.71564 195.1978 353.60626L195.1978 357.95L193.79155 357.95ZM198.80717 348.10626L198.80717 346.4969L200.21342 346.4969L200.21342 348.10626L198.80717 348.10626ZM198.80717 357.95L198.80717 349.65314L200.21342 349.65314L200.21342 357.95L198.80717 357.95ZM202.54155 358.6375L203.91655 358.84064Q203.99467 359.48126 204.3853 359.7625Q204.91655 360.15314 205.8228 360.15314Q206.79155 360.15314 207.3228 359.7625Q207.85405 359.3719 208.04155 358.66876Q208.15092 358.2469 208.15092 356.85626Q207.22905 357.95 205.85405 357.95Q204.1353 357.95 203.1978 356.71564Q202.2603 355.48126 202.2603 353.7469Q202.2603 352.5594 202.68217 351.5594Q203.11967 350.5594 203.93217 350.0125Q204.7603 349.46564 205.85405 349.46564Q207.3228 349.46564 208.27592 350.65314L208.27592 349.65314L209.5728 349.65314L209.5728 356.825Q209.5728 358.7625 209.18217 359.575Q208.79155 360.3875 207.93217 360.85626Q207.0728 361.325 205.8228 361.325Q204.33842 361.325 203.41655 360.65314Q202.5103 359.98126 202.54155 358.6375ZM203.71342 353.65314Q203.71342 355.27814 204.35405 356.02814Q205.0103 356.77814 205.97905 356.77814Q206.9478 356.77814 207.60405 356.04376Q208.2603 355.29376 208.2603 353.7Q208.2603 352.16876 207.58842 351.40314Q206.91655 350.6219 205.96342 350.6219Q205.02592 350.6219 204.36967 351.3875Q203.71342 352.15314 203.71342 353.65314ZM217.21342 356.91876Q216.43217 357.59064 215.71342 357.8719Q214.99467 358.1375 214.16655 358.1375Q212.79155 358.1375 212.05717 357.46564Q211.3228 356.79376 211.3228 355.7625Q211.3228 355.15314 211.60405 354.65314Q211.8853 354.1375 212.3228 353.84064Q212.77592 353.52814 213.33842 353.3719Q213.7603 353.2625 214.58842 353.16876Q216.29155 352.96564 217.10405 352.6844Q217.10405 352.3875 217.10405 352.3094Q217.10405 351.45 216.71342 351.10626Q216.16655 350.6219 215.10405 350.6219Q214.11967 350.6219 213.6353 350.98126Q213.16655 351.325 212.9478 352.2L211.5728 352.0125Q211.7603 351.1375 212.18217 350.59064Q212.61967 350.04376 213.43217 349.7625Q214.24467 349.46564 215.30717 349.46564Q216.36967 349.46564 217.02592 349.71564Q217.6978 349.96564 218.0103 350.34064Q218.3228 350.71564 218.4478 351.29376Q218.52592 351.65314 218.52592 352.59064L218.52592 354.46564Q218.52592 356.4344 218.60405 356.95Q218.6978 357.46564 218.96342 357.95L217.49467 357.95Q217.27592 357.5125 217.21342 356.91876ZM217.10405 353.77814Q216.33842 354.09064 214.80717 354.3094Q213.93217 354.4344 213.5728 354.59064Q213.21342 354.7469 213.0103 355.0594Q212.8228 355.35626 212.8228 355.71564Q212.8228 356.27814 213.24467 356.65314Q213.68217 357.02814 214.49467 357.02814Q215.30717 357.02814 215.93217 356.6844Q216.5728 356.325 216.86967 355.7Q217.10405 355.23126 217.10405 354.29376L217.10405 353.77814ZM220.80717 357.95L220.80717 349.65314L222.05717 349.65314L222.05717 350.8094Q222.4478 350.2 223.08842 349.84064Q223.74467 349.46564 224.5728 349.46564Q225.49467 349.46564 226.08842 349.85626Q226.68217 350.23126 226.91655 350.91876Q227.90092 349.46564 229.47905 349.46564Q230.71342 349.46564 231.36967 350.15314Q232.04155 350.825 232.04155 352.2469L232.04155 357.95L230.65092 357.95L230.65092 352.71564Q230.65092 351.8719 230.5103 351.5125Q230.36967 351.1375 230.0103 350.91876Q229.65092 350.6844 229.16655 350.6844Q228.29155 350.6844 227.71342 351.2625Q227.1353 351.84064 227.1353 353.1219L227.1353 357.95L225.72905 357.95L225.72905 352.5594Q225.72905 351.6219 225.3853 351.15314Q225.04155 350.6844 224.2603 350.6844Q223.66655 350.6844 223.16655 350.9969Q222.66655 351.3094 222.43217 351.91876Q222.21342 352.5125 222.21342 353.6375L222.21342 357.95L220.80717 357.95ZM233.80717 348.10626L233.80717 346.4969L235.21342 346.4969L235.21342 348.10626L233.80717 348.10626ZM233.80717 357.95L233.80717 349.65314L235.21342 349.65314L235.21342 357.95L233.80717 357.95Z" fill-rule="nonzero"/><path fill="#000000" d="M381.52094 357.95L381.52094 346.4969L389.8022 346.4969L389.8022 347.84064L383.03656 347.84064L383.03656 351.35626L389.3803 351.35626L389.3803 352.7L383.03656 352.7L383.03656 356.59064L390.0678 356.59064L390.0678 357.95L381.52094 357.95ZM392.28656 357.95L392.28656 346.4969L393.6928 346.4969L393.6928 357.95L392.28656 357.95ZM401.9897 355.27814L403.4428 355.45Q403.09906 356.73126 402.16156 357.4344Q401.2397 358.1375 399.8022 358.1375Q397.97406 358.1375 396.91156 357.0125Q395.84906 355.8875 395.84906 353.8719Q395.84906 351.77814 396.9272 350.6219Q398.0053 349.46564 399.72406 349.46564Q401.3803 349.46564 402.4272 350.60626Q403.4897 351.73126 403.4897 353.77814Q403.4897 353.90314 403.4897 354.15314L397.3022 354.15314Q397.3803 355.52814 398.0678 356.2625Q398.77094 356.98126 399.8022 356.98126Q400.58344 356.98126 401.1303 356.575Q401.6772 356.16876 401.9897 355.27814ZM397.3803 352.9969L402.0053 352.9969Q401.91156 351.95 401.47406 351.4344Q400.8022 350.6219 399.7397 350.6219Q398.77094 350.6219 398.09906 351.27814Q397.4428 351.91876 397.3803 352.9969ZM407.6147 357.95L404.45844 349.65314L405.9428 349.65314L407.72406 354.6219Q408.02094 355.41876 408.2553 356.29376Q408.4428 355.6375 408.78656 354.71564L410.6303 349.65314L412.0678 349.65314L408.9272 357.95L407.6147 357.95ZM418.9897 355.27814L420.4428 355.45Q420.09906 356.73126 419.16156 357.4344Q418.2397 358.1375 416.8022 358.1375Q414.97406 358.1375 413.91156 357.0125Q412.84906 355.8875 412.84906 353.8719Q412.84906 351.77814 413.9272 350.6219Q415.0053 349.46564 416.72406 349.46564Q418.3803 349.46564 419.4272 350.60626Q420.4897 351.73126 420.4897 353.77814Q420.4897 353.90314 420.4897 354.15314L414.3022 354.15314Q414.3803 355.52814 415.0678 356.2625Q415.77094 356.98126 416.8022 356.98126Q417.58344 356.98126 418.1303 356.575Q418.6772 356.16876 418.9897 355.27814ZM414.3803 352.9969L419.0053 352.9969Q418.91156 351.95 418.47406 351.4344Q417.8022 350.6219 416.7397 350.6219Q415.77094 350.6219 415.09906 351.27814Q414.4428 351.91876 414.3803 352.9969ZM422.3178 357.95L422.3178 349.65314L423.58344 349.65314L423.58344 350.825Q424.4897 349.46564 426.22406 349.46564Q426.97406 349.46564 427.59906 349.73126Q428.22406 349.9969 428.53656 350.4344Q428.84906 350.8719 428.97406 351.48126Q429.0522 351.8719 429.0522 352.84064L429.0522 357.95L427.64594 357.95L427.64594 352.90314Q427.64594 352.04376 427.47406 351.6219Q427.3178 351.1844 426.89594 350.9344Q426.4897 350.6844 425.9272 350.6844Q425.02094 350.6844 424.3647 351.2625Q423.72406 351.825 423.72406 353.41876L423.72406 357.95L422.3178 357.95ZM434.3803 356.6844L434.58344 357.9344Q433.9897 358.0594 433.52094 358.0594Q432.7553 358.0594 432.33344 357.825Q431.91156 357.575 431.7397 357.1844Q431.5678 356.77814 431.5678 355.5125L431.5678 350.7469L430.53656 350.7469L430.53656 349.65314L431.5678 349.65314L431.5678 347.59064L432.97406 346.7469L432.97406 349.65314L434.3803 349.65314L434.3803 350.7469L432.97406 350.7469L432.97406 355.59064Q432.97406 356.2 433.03656 356.3719Q433.1147 356.54376 433.28656 356.65314Q433.45844 356.7469 433.77094 356.7469Q434.0053 356.7469 434.3803 356.6844ZM435.2553 361.15314L435.09906 359.825Q435.5522 359.95 435.89594 359.95Q436.3647 359.95 436.64594 359.79376Q436.9272 359.6375 437.1147 359.35626Q437.2397 359.15314 437.53656 358.3094Q437.58344 358.2 437.66156 357.96564L434.52094 349.65314L436.03656 349.65314L437.7553 354.45Q438.09906 355.3719 438.3647 356.3719Q438.59906 355.40314 438.9428 354.48126L440.70844 349.65314L442.1147 349.65314L438.95844 358.09064Q438.45844 359.46564 438.1772 359.98126Q437.8022 360.66876 437.3178 360.9969Q436.83344 361.325 436.16156 361.325Q435.7553 361.325 435.2553 361.15314Z" fill-rule="nonzero"/><path fill="#757575" d="M19.70625 31.8625L22.2375 31.6125Q22.45625 32.878124 23.159374 33.4875Q23.8625 34.08125 25.05 34.08125Q26.3 34.08125 26.940624 33.55Q27.58125 33.01875 27.58125 32.3Q27.58125 31.846874 27.3 31.534374Q27.034374 31.20625 26.378124 30.971874Q25.909374 30.815624 24.284374 30.409374Q22.190624 29.89375 21.346874 29.128124Q20.159374 28.065624 20.159374 26.534374Q20.159374 25.55 20.721874 24.70625Q21.284374 23.846874 22.33125 23.39375Q23.378124 22.940624 24.8625 22.940624Q27.3 22.940624 28.51875 24.003124Q29.753124 25.065624 29.815624 26.846874L27.20625 26.95625Q27.034374 25.971874 26.4875 25.534374Q25.940624 25.096874 24.846874 25.096874Q23.70625 25.096874 23.065624 25.565624Q22.659374 25.8625 22.659374 26.3625Q22.659374 26.815624 23.034374 27.14375Q23.534374 27.565624 25.425 28.01875Q27.33125 28.45625 28.2375 28.940624Q29.14375 29.409374 29.659374 30.253124Q30.175 31.08125 30.175 32.3Q30.175 33.409374 29.55 34.378124Q28.940624 35.33125 27.815624 35.815624Q26.690624 36.284374 25.01875 36.284374Q22.58125 36.284374 21.26875 35.159374Q19.95625 34.01875 19.70625 31.8625ZM31.76875 31.253124Q31.76875 30.01875 32.378124 28.878124Q32.9875 27.721874 34.096874 27.1125Q35.20625 26.503124 36.58125 26.503124Q38.690624 26.503124 40.05 27.878124Q41.409374 29.253124 41.409374 31.3625Q41.409374 33.471874 40.034374 34.878124Q38.675 36.26875 36.596874 36.26875Q35.315624 36.26875 34.14375 35.690624Q32.9875 35.096874 32.378124 33.9875Q31.76875 32.8625 31.76875 31.253124ZM34.3 31.378124Q34.3 32.76875 34.95625 33.51875Q35.628124 34.253124 36.58125 34.253124Q37.55 34.253124 38.20625 33.51875Q38.8625 32.76875 38.8625 31.3625Q38.8625 29.9875 38.20625 29.253124Q37.55 28.51875 36.58125 28.51875Q35.628124 28.51875 34.95625 29.253124Q34.3 29.9875 34.3 31.378124ZM49.4875 36.05L49.4875 34.659374Q48.971874 35.39375 48.14375 35.83125Q47.315624 36.26875 46.39375 36.26875Q45.45625 36.26875 44.70625 35.8625Q43.95625 35.440624 43.6125 34.690624Q43.284374 33.940624 43.284374 32.628124L43.284374 26.721874L45.753124 26.721874L45.753124 31.003124Q45.753124 32.971874 45.89375 33.425Q46.034374 33.8625 46.39375 34.128124Q46.753124 34.378124 47.3 34.378124Q47.940624 34.378124 48.440624 34.034374Q48.940624 33.690624 49.128124 33.175Q49.315624 32.659374 49.315624 30.659374L49.315624 26.721874L51.784374 26.721874L51.784374 36.05L49.4875 36.05ZM56.70625 36.05L54.2375 36.05L54.2375 26.721874L56.534374 26.721874L56.534374 28.05Q57.1125 27.096874 57.58125 26.8Q58.065624 26.503124 58.659374 26.503124Q59.503124 26.503124 60.284374 26.971874L59.51875 29.128124Q58.89375 28.721874 58.3625 28.721874Q57.846874 28.721874 57.471874 29.003124Q57.1125 29.284374 56.909374 30.034374Q56.70625 30.784374 56.70625 33.159374L56.70625 36.05ZM69.4875 29.471874L67.05 29.909374Q66.925 29.190624 66.4875 28.815624Q66.05 28.440624 65.3625 28.440624Q64.44063 28.440624 63.878124 29.08125Q63.33125 29.721874 63.33125 31.221874Q63.33125 32.878124 63.89375 33.565624Q64.45625 34.253124 65.39375 34.253124Q66.09688 34.253124 66.53438 33.846874Q66.9875 33.440624 67.175 32.471874L69.59688 32.878124Q69.22188 34.55 68.14375 35.409374Q67.08125 36.26875 65.28438 36.26875Q63.2375 36.26875 62.01875 34.971874Q60.8 33.675 60.8 31.39375Q60.8 29.08125 62.01875 27.8Q63.2375 26.503124 65.33125 26.503124Q67.03438 26.503124 68.03438 27.2375Q69.03438 27.971874 69.4875 29.471874ZM76.75313 33.08125L79.20625 33.4875Q78.7375 34.846874 77.70625 35.565624Q76.69063 36.26875 75.14375 36.26875Q72.70625 36.26875 71.55 34.675Q70.62813 33.39375 70.62813 31.45625Q70.62813 29.128124 71.83125 27.815624Q73.05 26.503124 74.90938 26.503124Q76.9875 26.503124 78.19063 27.878124Q79.39375 29.253124 79.34688 32.096874L73.15938 32.096874Q73.175 33.190624 73.7375 33.8Q74.31563 34.409374 75.175 34.409374Q75.75313 34.409374 76.14375 34.096874Q76.55 33.784374 76.75313 33.08125ZM76.89375 30.58125Q76.8625 29.503124 76.33125 28.95625Q75.8 28.39375 75.05 28.39375Q74.2375 28.39375 73.72188 28.9875Q73.19063 29.565624 73.19063 30.58125L76.89375 30.58125ZM85.47188 33.39375L87.95625 33.003124Q88.1125 33.721874 88.59688 34.096874Q89.08125 34.471874 89.94063 34.471874Q90.90938 34.471874 91.39375 34.128124Q91.70625 33.878124 91.70625 33.471874Q91.70625 33.190624 91.53438 33.003124Q91.34688 32.83125 90.70625 32.675Q87.72188 32.01875 86.925 31.471874Q85.81563 30.721874 85.81563 29.3625Q85.81563 28.159374 86.76875 27.33125Q87.7375 26.503124 89.7375 26.503124Q91.65938 26.503124 92.58125 27.128124Q93.51875 27.753124 93.87813 28.971874L91.55 29.409374Q91.39375 28.8625 90.97188 28.58125Q90.56563 28.284374 89.78438 28.284374Q88.81563 28.284374 88.39375 28.55Q88.1125 28.753124 88.1125 29.05Q88.1125 29.315624 88.3625 29.503124Q88.69063 29.753124 90.65938 30.20625Q92.62813 30.64375 93.425 31.3Q94.19063 31.95625 94.19063 33.128124Q94.19063 34.409374 93.1125 35.346874Q92.05 36.26875 89.94063 36.26875Q88.03438 36.26875 86.925 35.4875Q85.81563 34.70625 85.47188 33.39375ZM96.34688 25.45625L96.34688 23.159374L98.81563 23.159374L98.81563 25.45625L96.34688 25.45625ZM96.34688 36.05L96.34688 26.721874L98.81563 26.721874L98.81563 36.05L96.34688 36.05ZM100.34688 36.05L100.34688 34.128124L103.84688 30.1125Q104.70625 29.128124 105.12813 28.70625Q104.69063 28.7375 103.9875 28.753124L100.69063 28.76875L100.69063 26.721874L108.40938 26.721874L108.40938 28.471874L104.84688 32.58125L103.58125 33.940624Q104.6125 33.878124 104.8625 33.878124L108.675 33.878124L108.675 36.05L100.34688 36.05ZM115.75313 33.08125L118.20625 33.4875Q117.7375 34.846874 116.70625 35.565624Q115.69063 36.26875 114.14375 36.26875Q111.70625 36.26875 110.55 34.675Q109.62813 33.39375 109.62813 31.45625Q109.62813 29.128124 110.83125 27.815624Q112.05 26.503124 113.90938 26.503124Q115.9875 26.503124 117.19063 27.878124Q118.39375 29.253124 118.34688 32.096874L112.15938 32.096874Q112.175 33.190624 112.7375 33.8Q113.31563 34.409374 114.175 34.409374Q114.75313 34.409374 115.14375 34.096874Q115.55 33.784374 115.75313 33.08125ZM115.89375 30.58125Q115.8625 29.503124 115.33125 28.95625Q114.8 28.39375 114.05 28.39375Q113.2375 28.39375 112.72188 28.9875Q112.19063 29.565624 112.19063 30.58125L115.89375 30.58125ZM129.44063 39.83125L127.7375 39.83125Q126.39375 37.815624 125.69063 35.628124Q124.9875 33.425 124.9875 31.378124Q124.9875 28.846874 125.8625 26.58125Q126.6125 24.6125 127.78438 22.940624L129.47188 22.940624Q128.25313 25.6125 127.8 27.4875Q127.3625 29.346874 127.3625 31.440624Q127.3625 32.878124 127.62813 34.39375Q127.89375 35.89375 128.3625 37.26875Q128.65938 38.159374 129.44063 39.83125ZM131.2375 36.05L131.2375 23.159374L133.70625 23.159374L133.70625 27.8Q134.84688 26.503124 136.40938 26.503124Q138.1125 26.503124 139.22188 27.7375Q140.34688 28.971874 140.34688 31.284374Q140.34688 33.675 139.20625 34.971874Q138.08125 36.26875 136.45625 36.26875Q135.64375 36.26875 134.8625 35.8625Q134.09688 35.45625 133.53438 34.675L133.53438 36.05L131.2375 36.05ZM133.69063 31.175Q133.69063 32.628124 134.14375 33.33125Q134.78438 34.315624 135.84688 34.315624Q136.675 34.315624 137.2375 33.6125Q137.81563 32.909374 137.81563 31.409374Q137.81563 29.815624 137.2375 29.1125Q136.65938 28.39375 135.75313 28.39375Q134.8625 28.39375 134.26875 29.08125Q133.69063 29.76875 133.69063 31.175ZM141.175 26.721874L143.8 26.721874L146.03438 33.346874L148.20625 26.721874L150.76875 26.721874L147.47188 35.690624L146.89375 37.33125Q146.56563 38.14375 146.26875 38.565624Q145.97188 39.003124 145.58125 39.26875Q145.20625 39.534374 144.64375 39.675Q144.09688 39.83125 143.39375 39.83125Q142.675 39.83125 141.9875 39.690624L141.76875 37.753124Q142.34688 37.8625 142.81563 37.8625Q143.675 37.8625 144.08125 37.3625Q144.50313 36.8625 144.72188 36.08125L141.175 26.721874ZM156.62813 26.721874L156.62813 28.690624L154.94063 28.690624L154.94063 32.440624Q154.94063 33.58125 154.9875 33.784374Q155.03438 33.971874 155.20625 34.096874Q155.37813 34.20625 155.62813 34.20625Q155.95625 34.20625 156.6125 33.971874L156.83125 35.89375Q155.95625 36.26875 154.87813 36.26875Q154.20625 36.26875 153.65938 36.05Q153.12813 35.815624 152.87813 35.45625Q152.62813 35.096874 152.53438 34.4875Q152.45625 34.065624 152.45625 32.753124L152.45625 28.690624L151.31563 28.690624L151.31563 26.721874L152.45625 26.721874L152.45625 24.8625L154.94063 23.425L154.94063 26.721874L156.62813 26.721874ZM163.75313 33.08125L166.20625 33.4875Q165.7375 34.846874 164.70625 35.565624Q163.69063 36.26875 162.14375 36.26875Q159.70625 36.26875 158.55 34.675Q157.62813 33.39375 157.62813 31.45625Q157.62813 29.128124 158.83125 27.815624Q160.05 26.503124 161.90938 26.503124Q163.9875 26.503124 165.19063 27.878124Q166.39375 29.253124 166.34688 32.096874L160.15938 32.096874Q160.175 33.190624 160.7375 33.8Q161.31563 34.409374 162.175 34.409374Q162.75313 34.409374 163.14375 34.096874Q163.55 33.784374 163.75313 33.08125ZM163.89375 30.58125Q163.8625 29.503124 163.33125 28.95625Q162.8 28.39375 162.05 28.39375Q161.2375 28.39375 160.72188 28.9875Q160.19063 29.565624 160.19063 30.58125L163.89375 30.58125ZM167.47188 33.39375L169.95625 33.003124Q170.1125 33.721874 170.59688 34.096874Q171.08125 34.471874 171.94063 34.471874Q172.90938 34.471874 173.39375 34.128124Q173.70625 33.878124 173.70625 33.471874Q173.70625 33.190624 173.53438 33.003124Q173.34688 32.83125 172.70625 32.675Q169.72188 32.01875 168.925 31.471874Q167.81563 30.721874 167.81563 29.3625Q167.81563 28.159374 168.76875 27.33125Q169.7375 26.503124 171.7375 26.503124Q173.65938 26.503124 174.58125 27.128124Q175.51875 27.753124 175.87813 28.971874L173.55 29.409374Q173.39375 28.8625 172.97188 28.58125Q172.56563 28.284374 171.78438 28.284374Q170.81563 28.284374 170.39375 28.55Q170.1125 28.753124 170.1125 29.05Q170.1125 29.315624 170.3625 29.503124Q170.69063 29.753124 172.65938 30.20625Q174.62813 30.64375 175.425 31.3Q176.19063 31.95625 176.19063 33.128124Q176.19063 34.409374 175.1125 35.346874Q174.05 36.26875 171.94063 36.26875Q170.03438 36.26875 168.925 35.4875Q167.81563 34.70625 167.47188 33.39375ZM178.28438 33.58125L180.75313 33.58125L180.75313 35.346874Q180.75313 36.425 180.56563 37.034374Q180.37813 37.659374 179.8625 38.14375Q179.34688 38.64375 178.56563 38.925L178.08125 37.909374Q178.83125 37.659374 179.14375 37.221874Q179.45625 36.8 179.47188 36.05L178.28438 36.05L178.28438 33.58125ZM187.47188 33.39375L189.95625 33.003124Q190.1125 33.721874 190.59688 34.096874Q191.08125 34.471874 191.94063 34.471874Q192.90938 34.471874 193.39375 34.128124Q193.70625 33.878124 193.70625 33.471874Q193.70625 33.190624 193.53438 33.003124Q193.34688 32.83125 192.70625 32.675Q189.72188 32.01875 188.925 31.471874Q187.81563 30.721874 187.81563 29.3625Q187.81563 28.159374 188.76875 27.33125Q189.7375 26.503124 191.7375 26.503124Q193.65938 26.503124 194.58125 27.128124Q195.51875 27.753124 195.87813 28.971874L193.55 29.409374Q193.39375 28.8625 192.97188 28.58125Q192.56563 28.284374 191.78438 28.284374Q190.81563 28.284374 190.39375 28.55Q190.1125 28.753124 190.1125 29.05Q190.1125 29.315624 190.3625 29.503124Q190.69063 29.753124 192.65938 30.20625Q194.62813 30.64375 195.425 31.3Q196.19063 31.95625 196.19063 33.128124Q196.19063 34.409374 195.1125 35.346874Q194.05 36.26875 191.94063 36.26875Q190.03438 36.26875 188.925 35.4875Q187.81563 34.70625 187.47188 33.39375ZM198.15938 26.721874L200.44063 26.721874L200.44063 27.9875Q201.65938 26.503124 203.34688 26.503124Q204.2375 26.503124 204.89375 26.878124Q205.56563 27.2375 205.9875 27.9875Q206.59688 27.2375 207.3 26.878124Q208.01875 26.503124 208.83125 26.503124Q209.8625 26.503124 210.56563 26.925Q211.28438 27.346874 211.62813 28.14375Q211.89375 28.753124 211.89375 30.08125L211.89375 36.05L209.40938 36.05L209.40938 30.721874Q209.40938 29.33125 209.15938 28.925Q208.81563 28.39375 208.1125 28.39375Q207.58125 28.39375 207.12813 28.721874Q206.675 29.034374 206.47188 29.64375Q206.26875 30.253124 206.26875 31.565624L206.26875 36.05L203.8 36.05L203.8 30.940624Q203.8 29.565624 203.65938 29.175Q203.53438 28.784374 203.25313 28.596874Q202.9875 28.39375 202.50313 28.39375Q201.94063 28.39375 201.47188 28.70625Q201.01875 29.003124 200.81563 29.596874Q200.62813 30.175 200.62813 31.51875L200.62813 36.05L198.15938 36.05L198.15938 26.721874ZM216.19063 29.565624L213.94063 29.159374Q214.33125 27.8 215.25313 27.159374Q216.175 26.503124 217.9875 26.503124Q219.64375 26.503124 220.44063 26.89375Q221.25313 27.284374 221.58125 27.89375Q221.925 28.4875 221.925 30.096874L221.89375 32.9875Q221.89375 34.20625 222.00313 34.8Q222.12813 35.378124 222.45625 36.05L220.01875 36.05Q219.90938 35.8 219.76875 35.315624Q219.70625 35.096874 219.69063 35.034374Q219.05 35.64375 218.33125 35.95625Q217.6125 36.26875 216.8 36.26875Q215.34688 36.26875 214.51875 35.4875Q213.69063 34.690624 213.69063 33.503124Q213.69063 32.70625 214.06563 32.096874Q214.44063 31.471874 215.12813 31.14375Q215.81563 30.815624 217.09688 30.565624Q218.83125 30.2375 219.4875 29.95625L219.4875 29.70625Q219.4875 29.003124 219.12813 28.70625Q218.78438 28.39375 217.81563 28.39375Q217.15938 28.39375 216.78438 28.659374Q216.40938 28.909374 216.19063 29.565624ZM219.4875 31.565624Q219.01875 31.721874 217.9875 31.940624Q216.95625 32.159374 216.64375 32.378124Q216.15938 32.721874 216.15938 33.253124Q216.15938 33.76875 216.55 34.14375Q216.94063 34.51875 217.53438 34.51875Q218.20625 34.51875 218.8 34.08125Q219.25313 33.753124 219.39375 33.26875Q219.4875 32.940624 219.4875 32.065624L219.4875 31.565624ZM224.34688 36.05L224.34688 23.159374L226.81563 23.159374L226.81563 36.05L224.34688 36.05ZM229.34688 36.05L229.34688 23.159374L231.81563 23.159374L231.81563 36.05L229.34688 36.05ZM239.75313 33.08125L242.20625 33.4875Q241.7375 34.846874 240.70625 35.565624Q239.69063 36.26875 238.14375 36.26875Q235.70625 36.26875 234.55 34.675Q233.62813 33.39375 233.62813 31.45625Q233.62813 29.128124 234.83125 27.815624Q236.05 26.503124 237.90938 26.503124Q239.9875 26.503124 241.19063 27.878124Q242.39375 29.253124 242.34688 32.096874L236.15938 32.096874Q236.175 33.190624 236.7375 33.8Q237.31563 34.409374 238.175 34.409374Q238.75313 34.409374 239.14375 34.096874Q239.55 33.784374 239.75313 33.08125ZM239.89375 30.58125Q239.8625 29.503124 239.33125 28.95625Q238.8 28.39375 238.05 28.39375Q237.2375 28.39375 236.72188 28.9875Q236.19063 29.565624 236.19063 30.58125L239.89375 30.58125ZM246.70625 36.05L244.2375 36.05L244.2375 26.721874L246.53438 26.721874L246.53438 28.05Q247.1125 27.096874 247.58125 26.8Q248.06563 26.503124 248.65938 26.503124Q249.50313 26.503124 250.28438 26.971874L249.51875 29.128124Q248.89375 28.721874 248.3625 28.721874Q247.84688 28.721874 247.47188 29.003124Q247.1125 29.284374 246.90938 30.034374Q246.70625 30.784374 246.70625 33.159374L246.70625 36.05ZM256.34686 25.45625L256.34686 23.159374L258.8156 23.159374L258.8156 25.45625L256.34686 25.45625ZM256.34686 36.05L256.34686 26.721874L258.8156 26.721874L258.8156 36.05L256.34686 36.05ZM260.47186 33.39375L262.95624 33.003124Q263.1125 33.721874 263.59686 34.096874Q264.08124 34.471874 264.9406 34.471874Q265.90936 34.471874 266.39374 34.128124Q266.70624 33.878124 266.70624 33.471874Q266.70624 33.190624 266.53436 33.003124Q266.34686 32.83125 265.70624 32.675Q262.72186 32.01875 261.925 31.471874Q260.8156 30.721874 260.8156 29.3625Q260.8156 28.159374 261.76874 27.33125Q262.7375 26.503124 264.7375 26.503124Q266.65936 26.503124 267.58124 27.128124Q268.51874 27.753124 268.8781 28.971874L266.55 29.409374Q266.39374 28.8625 265.97186 28.58125Q265.5656 28.284374 264.78436 28.284374Q263.8156 28.284374 263.39374 28.55Q263.1125 28.753124 263.1125 29.05Q263.1125 29.315624 263.3625 29.503124Q263.6906 29.753124 265.65936 30.20625Q267.6281 30.64375 268.425 31.3Q269.1906 31.95625 269.1906 33.128124Q269.1906 34.409374 268.1125 35.346874Q267.05 36.26875 264.9406 36.26875Q263.03436 36.26875 261.925 35.4875Q260.8156 34.70625 260.47186 33.39375ZM276.2375 36.05L276.2375 23.159374L278.70624 23.159374L278.70624 27.8Q279.84686 26.503124 281.40936 26.503124Q283.1125 26.503124 284.22186 27.7375Q285.34686 28.971874 285.34686 31.284374Q285.34686 33.675 284.20624 34.971874Q283.08124 36.26875 281.45624 36.26875Q280.64374 36.26875 279.8625 35.8625Q279.09686 35.45625 278.53436 34.675L278.53436 36.05L276.2375 36.05ZM278.6906 31.175Q278.6906 32.628124 279.14374 33.33125Q279.78436 34.315624 280.84686 34.315624Q281.675 34.315624 282.2375 33.6125Q282.8156 32.909374 282.8156 31.409374Q282.8156 29.815624 282.2375 29.1125Q281.65936 28.39375 280.7531 28.39375Q279.8625 28.39375 279.26874 29.08125Q278.6906 29.76875 278.6906 31.175ZM292.7531 33.08125L295.20624 33.4875Q294.7375 34.846874 293.70624 35.565624Q292.6906 36.26875 291.14374 36.26875Q288.70624 36.26875 287.55 34.675Q286.6281 33.39375 286.6281 31.45625Q286.6281 29.128124 287.83124 27.815624Q289.05 26.503124 290.90936 26.503124Q292.9875 26.503124 294.1906 27.878124Q295.39374 29.253124 295.34686 32.096874L289.15936 32.096874Q289.175 33.190624 289.7375 33.8Q290.3156 34.409374 291.175 34.409374Q291.7531 34.409374 292.14374 34.096874Q292.55 33.784374 292.7531 33.08125ZM292.89374 30.58125Q292.8625 29.503124 292.33124 28.95625Q291.8 28.39375 291.05 28.39375Q290.2375 28.39375 289.72186 28.9875Q289.1906 29.565624 289.1906 30.58125L292.89374 30.58125ZM301.6281 26.721874L301.6281 28.690624L299.9406 28.690624L299.9406 32.440624Q299.9406 33.58125 299.9875 33.784374Q300.03436 33.971874 300.20624 34.096874Q300.3781 34.20625 300.6281 34.20625Q300.95624 34.20625 301.6125 33.971874L301.83124 35.89375Q300.95624 36.26875 299.8781 36.26875Q299.20624 36.26875 298.65936 36.05Q298.1281 35.815624 297.8781 35.45625Q297.6281 35.096874 297.53436 34.4875Q297.45624 34.065624 297.45624 32.753124L297.45624 28.690624L296.3156 28.690624L296.3156 26.721874L297.45624 26.721874L297.45624 24.8625L299.9406 23.425L299.9406 26.721874L301.6281 26.721874ZM307.6281 26.721874L307.6281 28.690624L305.9406 28.690624L305.9406 32.440624Q305.9406 33.58125 305.9875 33.784374Q306.03436 33.971874 306.20624 34.096874Q306.3781 34.20625 306.6281 34.20625Q306.95624 34.20625 307.6125 33.971874L307.83124 35.89375Q306.95624 36.26875 305.8781 36.26875Q305.20624 36.26875 304.65936 36.05Q304.1281 35.815624 303.8781 35.45625Q303.6281 35.096874 303.53436 34.4875Q303.45624 34.065624 303.45624 32.753124L303.45624 28.690624L302.3156 28.690624L302.3156 26.721874L303.45624 26.721874L303.45624 24.8625L305.9406 23.425L305.9406 26.721874L307.6281 26.721874ZM314.7531 33.08125L317.20624 33.4875Q316.7375 34.846874 315.70624 35.565624Q314.6906 36.26875 313.14374 36.26875Q310.70624 36.26875 309.55 34.675Q308.6281 33.39375 308.6281 31.45625Q308.6281 29.128124 309.83124 27.815624Q311.05 26.503124 312.90936 26.503124Q314.9875 26.503124 316.1906 27.878124Q317.39374 29.253124 317.34686 32.096874L311.15936 32.096874Q311.175 33.190624 311.7375 33.8Q312.3156 34.409374 313.175 34.409374Q313.7531 34.409374 314.14374 34.096874Q314.55 33.784374 314.7531 33.08125ZM314.89374 30.58125Q314.8625 29.503124 314.33124 28.95625Q313.8 28.39375 313.05 28.39375Q312.2375 28.39375 311.72186 28.9875Q311.1906 29.565624 311.1906 30.58125L314.89374 30.58125ZM321.70624 36.05L319.2375 36.05L319.2375 26.721874L321.53436 26.721874L321.53436 28.05Q322.1125 27.096874 322.58124 26.8Q323.0656 26.503124 323.65936 26.503124Q324.5031 26.503124 325.28436 26.971874L324.51874 29.128124Q323.89374 28.721874 323.3625 28.721874Q322.84686 28.721874 322.47186 29.003124Q322.1125 29.284374 321.90936 30.034374Q321.70624 30.784374 321.70624 33.159374L321.70624 36.05ZM325.65936 39.83125Q326.39374 38.26875 326.6906 37.425Q326.9875 36.596874 327.2375 35.51875Q327.4875 34.425 327.6125 33.440624Q327.7375 32.45625 327.7375 31.440624Q327.7375 29.346874 327.28436 27.4875Q326.84686 25.6125 325.64374 22.940624L327.3156 22.940624Q328.64374 24.83125 329.3781 26.95625Q330.1125 29.065624 330.1125 31.253124Q330.1125 33.08125 329.53436 35.190624Q328.8781 37.55 327.3625 39.83125L325.65936 39.83125Z" fill-rule="nonzero"/></svg>