<?xml version="1.0" encoding="UTF-8" standalone="no"?>
<!DOCTYPE svg PUBLIC "-//W3C//DTD SVG 1.1//EN"
 "http://www.w3.org/Graphics/SVG/1.1/DTD/svg11.dtd">
<!-- Generated by graphviz version 2.50.0 (20211209.1537)
 -->
<!-- Title: g Pages: 1 -->
<svg width="330pt" height="320pt"
 viewBox="0.00 0.00 330.32 320.00" xmlns="http://www.w3.org/2000/svg" xmlns:xlink="http://www.w3.org/1999/xlink">
<g id="graph0" class="graph" transform="scale(1 1) rotate(0) translate(4 316)">
<title>g</title>
<g id="node1" class="node">
<title></title>
<g id="a_node1"><a xlink:href=".">
<ellipse fill="white" stroke="#666666" cx="5.5" cy="-156" rx="5.5" ry="5.5"/>
</a>
</g>
</g>
<!-- 2025&#45;07&#45;04.md -->
<g id="node2" class="node">
<title>2025&#45;07&#45;04.md</title>
<g id="a_node2"><a xlink:href="2025-07-04.md" xlink:title="...title: Hello from the pond!\l&#45;&#45;&#45;\l\l![Pond ...\l">
<polygon fill="white" stroke="#b3b3b3" points="322.08,-312 187.07,-312 187.07,-256 322.08,-256 322.08,-312"/>
<text text-anchor="start" x="194.82" y="-299" font-family="Helvetica,sans-Serif" font-size="10.00">...title: Hello from the pond!</text>
<text text-anchor="start" x="194.82" y="-287" font-family="Helvetica,sans-Serif" font-size="10.00">&#45;&#45;&#45;</text>
<text text-anchor="start" x="194.82" y="-263" font-family="Helvetica,sans-Serif" font-size="10.00">![Pond ...</text>
</a>
</g>
</g>
<!-- &#45;&gt;2025&#45;07&#45;04.md -->
<g id="edge1" class="edge">
<title>&#45;&gt;2025&#45;07&#45;04.md</title>
<path fill="none" stroke="#999999" d="M10.79,-158.22C32.06,-169.24 127.78,-218.83 192.48,-252.35"/>
<polygon fill="#999999" stroke="#999999" points="199.43,-255.95 191.22,-255.5 196.1,-254.22 192.77,-252.5 192.77,-252.5 192.77,-252.5 196.1,-254.22 194.32,-249.5 199.43,-255.95 199.43,-255.95"/>
<g id="a_edge1&#45;label"><a xlink:href="2025-07-04.md" xlink:title="2025&#45;07&#45;04.md">
<text text-anchor="middle" x="98.91" y="-223" font-family="Helvetica,sans-Serif" font-size="10.00">2025&#45;07&#45;04.md</text>
</a>
</g>
</g>
<!-- 2025&#45;07&#45;07.md -->
<g id="node3" class="node">
<title>2025&#45;07&#45;07.md</title>
<g id="a_node3"><a xlink:href="2025-07-07.md" xlink:title="...title: Tiny home\l&#45;&#45;&#45;\l\l![Tiny boxy home s...\l">
<polygon fill="white" stroke="#b3b3b3" points="308.83,-184 200.32,-184 200.32,-128 308.83,-128 308.83,-184"/>
<text text-anchor="start" x="208.45" y="-171" font-family="Helvetica,sans-Serif" font-size="10.00">...title: Tiny home</text>
<text text-anchor="start" x="208.45" y="-159" font-family="Helvetica,sans-Serif" font-size="10.00">&#45;&#45;&#45;</text>
<text text-anchor="start" x="208.45" y="-135" font-family="Helvetica,sans-Serif" font-size="10.00">![Tiny boxy home s...</text>
</a>
</g>
</g>
<!-- &#45;&gt;2025&#45;07&#45;07.md -->
<g id="edge2" class="edge">
<title>&#45;&gt;2025&#45;07&#45;07.md</title>
<path fill="none" stroke="#999999" d="M11.21,-156C33.33,-156 128.42,-156 192.71,-156"/>
<polygon fill="#999999" stroke="#999999" points="200.39,-156 192.89,-159.38 196.64,-156 192.89,-156 192.89,-156 192.89,-156 196.64,-156 192.89,-152.63 200.39,-156 200.39,-156"/>
<g id="a_edge2&#45;label"><a xlink:href="2025-07-07.md" xlink:title="2025&#45;07&#45;07.md">
<text text-anchor="middle" x="98.91" y="-159" font-family="Helvetica,sans-Serif" font-size="10.00">2025&#45;07&#45;07.md</text>
</a>
</g>
</g>
<!-- 2025&#45;07&#45;10.md -->
<g id="node4" class="node">
<title>2025&#45;07&#45;10.md</title>
<g id="a_node4"><a xlink:href="2025-07-10.md" xlink:title="...title: Cozy\l&#45;&#45;&#45;\l\l![Tiny home interior wi...\l">
<polygon fill="white" stroke="#b3b3b3" points="315.72,-56 193.43,-56 193.43,0 315.72,0 315.72,-56"/>
<text text-anchor="start" x="201.5" y="-43" font-family="Helvetica,sans-Serif" font-size="10.00">...title: Cozy</text>
<text text-anchor="start" x="201.5" y="-31" font-family="Helvetica,sans-Serif" font-size="10.00">&#45;&#45;&#45;</text>
<text text-anchor="start" x="201.5" y="-7" font-family="Helvetica,sans-Serif" font-size="10.00">![Tiny home interior wi...</text>
</a>
</g>
</g>
<!-- &#45;&gt;2025&#45;07&#45;10.md -->
<g id="edge3" class="edge">
<title>&#45;&gt;2025&#45;07&#45;10.md</title>
<path fill="none" stroke="#999999" d="M10.79,-153.78C32.06,-142.76 127.78,-93.17 192.48,-59.65"/>
<polygon fill="#999999" stroke="#999999" points="199.43,-56.05 194.32,-62.5 196.1,-57.78 192.77,-59.5 192.77,-59.5 192.77,-59.5 196.1,-57.78 191.22,-56.5 199.43,-56.05 199.43,-56.05"/>
<g id="a_edge3&#45;label"><a xlink:href="2025-07-10.md" xlink:title="2025&#45;07&#45;10.md">
<text text-anchor="middle" x="98.91" y="-128" font-family="Helvetica,sans-Serif" font-size="10.00">2025&#45;07&#45;10.md</text>
</a>
</g>
</g>
</g>
</svg>
